<mxfile host="Electron" modified="2024-06-02T05:51:27.997Z" agent="Mozilla/5.0 (Windows NT 10.0; Win64; x64) AppleWebKit/537.36 (KHTML, like Gecko) draw.io/24.4.13 Chrome/124.0.6367.207 Electron/30.0.6 Safari/537.36" etag="WvSfvlsjIatz58WxlSPu" version="24.4.13" type="device">
  <diagram name="Page-1" id="hZjLJd5DQb2nPM2vNGDl">
    <mxGraphModel dx="1687" dy="1080" grid="1" gridSize="10" guides="1" tooltips="1" connect="1" arrows="1" fold="1" page="1" pageScale="1" pageWidth="3300" pageHeight="4681" math="0" shadow="0">
      <root>
        <mxCell id="0" />
        <mxCell id="1" parent="0" />
        <mxCell id="kUMYeLrfrgq7O8A4BPYU-1" value="Main Class" style="rounded=0;whiteSpace=wrap;html=1;fillColor=#60a917;fontColor=#ffffff;strokeColor=#2D7600;sketch=1;curveFitting=1;jiggle=2;" parent="1" vertex="1">
          <mxGeometry x="540" y="270" width="120" height="60" as="geometry" />
        </mxCell>
        <mxCell id="a5B9X3Do3ak_Rsppw4Uo-3" style="edgeStyle=orthogonalEdgeStyle;rounded=0;orthogonalLoop=1;jettySize=auto;html=1;exitX=1;exitY=0.5;exitDx=0;exitDy=0;entryX=0;entryY=0.5;entryDx=0;entryDy=0;" edge="1" parent="1" source="kUMYeLrfrgq7O8A4BPYU-2" target="kUMYeLrfrgq7O8A4BPYU-9">
          <mxGeometry relative="1" as="geometry" />
        </mxCell>
        <mxCell id="kUMYeLrfrgq7O8A4BPYU-2" value="Create SemesterWindow instance" style="rounded=0;whiteSpace=wrap;html=1;fillColor=#60a917;fontColor=#ffffff;strokeColor=#2D7600;" parent="1" vertex="1">
          <mxGeometry x="850" y="270" width="120" height="60" as="geometry" />
        </mxCell>
        <mxCell id="kUMYeLrfrgq7O8A4BPYU-3" style="edgeStyle=orthogonalEdgeStyle;rounded=0;orthogonalLoop=1;jettySize=auto;html=1;exitX=1;exitY=0.5;exitDx=0;exitDy=0;entryX=-0.013;entryY=0.512;entryDx=0;entryDy=0;entryPerimeter=0;" parent="1" source="kUMYeLrfrgq7O8A4BPYU-1" target="kUMYeLrfrgq7O8A4BPYU-2" edge="1">
          <mxGeometry relative="1" as="geometry" />
        </mxCell>
        <mxCell id="kUMYeLrfrgq7O8A4BPYU-13" style="edgeStyle=orthogonalEdgeStyle;rounded=0;orthogonalLoop=1;jettySize=auto;html=1;exitX=0.5;exitY=1;exitDx=0;exitDy=0;entryX=0.5;entryY=0;entryDx=0;entryDy=0;fillColor=#60a917;strokeColor=#2D7600;" parent="1" source="kUMYeLrfrgq7O8A4BPYU-9" target="kUMYeLrfrgq7O8A4BPYU-12" edge="1">
          <mxGeometry relative="1" as="geometry">
            <Array as="points">
              <mxPoint x="1210" y="340" />
              <mxPoint x="1210" y="340" />
            </Array>
          </mxGeometry>
        </mxCell>
        <mxCell id="kUMYeLrfrgq7O8A4BPYU-14" value="A button pressed" style="edgeLabel;html=1;align=center;verticalAlign=middle;resizable=0;points=[];" parent="kUMYeLrfrgq7O8A4BPYU-13" vertex="1" connectable="0">
          <mxGeometry x="-0.3667" y="-1" relative="1" as="geometry">
            <mxPoint as="offset" />
          </mxGeometry>
        </mxCell>
        <mxCell id="kUMYeLrfrgq7O8A4BPYU-9" value="create 8 semester buttons" style="rounded=0;whiteSpace=wrap;html=1;fillColor=#60a917;fontColor=#ffffff;strokeColor=#2D7600;" parent="1" vertex="1">
          <mxGeometry x="1150" y="270" width="120" height="60" as="geometry" />
        </mxCell>
        <mxCell id="kUMYeLrfrgq7O8A4BPYU-16" style="edgeStyle=orthogonalEdgeStyle;rounded=0;orthogonalLoop=1;jettySize=auto;html=1;entryX=1;entryY=0.5;entryDx=0;entryDy=0;" parent="1" source="kUMYeLrfrgq7O8A4BPYU-12" target="kUMYeLrfrgq7O8A4BPYU-15" edge="1">
          <mxGeometry relative="1" as="geometry" />
        </mxCell>
        <mxCell id="kUMYeLrfrgq7O8A4BPYU-12" value="create a semester instance" style="rounded=0;whiteSpace=wrap;html=1;fillColor=#60a917;fontColor=#ffffff;strokeColor=#2D7600;" parent="1" vertex="1">
          <mxGeometry x="1150" y="370" width="120" height="60" as="geometry" />
        </mxCell>
        <mxCell id="kUMYeLrfrgq7O8A4BPYU-22" style="edgeStyle=orthogonalEdgeStyle;rounded=0;orthogonalLoop=1;jettySize=auto;html=1;entryX=1;entryY=0.5;entryDx=0;entryDy=0;" parent="1" source="kUMYeLrfrgq7O8A4BPYU-15" target="kUMYeLrfrgq7O8A4BPYU-21" edge="1">
          <mxGeometry relative="1" as="geometry" />
        </mxCell>
        <mxCell id="kUMYeLrfrgq7O8A4BPYU-15" value="call semester.getAllCourse()&amp;nbsp;" style="rounded=0;whiteSpace=wrap;html=1;fillColor=#60a917;fontColor=#ffffff;strokeColor=#2D7600;" parent="1" vertex="1">
          <mxGeometry x="960" y="370" width="150" height="60" as="geometry" />
        </mxCell>
        <mxCell id="kUMYeLrfrgq7O8A4BPYU-19" value="Program flow - Base Program" style="rounded=1;whiteSpace=wrap;html=1;strokeWidth=2;fillWeight=4;hachureGap=8;hachureAngle=45;fillColor=#1ba1e2;sketch=1;" parent="1" vertex="1">
          <mxGeometry x="500" y="170" width="200" height="60" as="geometry" />
        </mxCell>
        <mxCell id="kUMYeLrfrgq7O8A4BPYU-20" value="" style="shape=image;verticalLabelPosition=bottom;labelBackgroundColor=default;verticalAlign=top;aspect=fixed;imageAspect=0;image=data:image/png,iVBORw0KGgoAAAANSUhEUgAAAY8AAAF2CAYAAACWBxQ2AAAACXBIWXMAAA7EAAAOxAGVKw4bAAAgAElEQVR4nO3de3xU1b338c+eyYSQ2+QCCSQEAig3EblzKApYFY6C2kixXltbevQ5VbAvPaAip0Jta89TTxW8nNaKgLUPVEoBOT0V5SJQTuQmIBAIEMiFXCeZhJDbZDKznz9E5SpZJiEkft+vV/6A2TNrreG38l177T2MNWTkGBsREZFGumZAfxyt3QkREWl7LK/XqzMPERFptBlPzNKZh4iImFN4iIiIMYWHiIgYU3iIiIgxhYeIiBhTeIiIiDGFh4iIGFN4iIiIMYWHiIgYU3iIiIgxhYeIiBhTeIiIiDGFh4iIGFN4iIiIMYWHiIgYU3iIiIgxhYeIiBhTeIiIiDGFh4iIGFN4iIiIMYWHiIgYU3iIiIgxhYeIiBhTeIiIiDGFh4iIGFN4iIiIMYWHiIgYU3iIiIgxhYeIiBhTeIiIiDGFh4iIGFN4iIiIMYWHiIgYU3iIiIgxhYeIiBhTeIiIiDGFh4iIGFN4iIiIMYWHiIgYU3iIiIgxhYeIiBhTeIiIiDGFh4iIGFN4iIiIMYWHiIgYU3iIiIgxhYeIiBhTeIiIiDGFh4iIGFN4iIiIMYWHiIgYU3iIiIgxhYeIiBhTeIiIiDGFh4iIGFN4iIiIMYWHiIgYU3iIiIgxhYeIiBhTeIiIiDGFh4iIGFN4iIiIMYWHiIgYU3iIiIgxhYeIiBhTeIiIiDGFh4iIGFN4iIiIMYWHiIgYU3iIiIgxhYeIiBhTeIiIiDGFh4iIGFN4iIiIMYWHiIgYU3iIiIgxhYeIiBgLae0OXE5p09JbuwtyhVq5cHSjjlMNycU0tobaC515iIiIMYWHiIgYU3iIiIgxhYeIiBhTeIiIiDGFh4iIGFN4iIiIMYWHiIgYU3iIiIgxhYeIiBhTeIiIiDGFh4iIGFN4iIiIMYWHiIgYU3iIiIgxhYeIiBj7Rn0ZVMtwkjQ8le9PTmJ473Biwix8p2rJPVbOjg+PsmRbDYHW7mJb5ejAiHuHMucuN5n/tYGn1tVjt3afWoRqqNk5Q+k/vhf33NyF63qEEUEDRcc8vL/iMO/ursXf2v1rBxQeTWKReONgXn00gWBGLiuWZOGxQ+nSNZL+QzpzTeejbf+XnTOGh18aTIffbeKVjMs3GivCzZQZQ3lkSIfL1mbrUA01OyuMW574Fk+PsMjcmscfP6ziZEgEoyamMm12LAm/3MrLe/xt/31tZQqPpnBEMmFyAu7C4zz+/CH2n7mcecfC6bAJtlrnmoerdyLXd7HYcRnbdHTuypNzrmVCRDlvvVbA2Md6XsbWLzPVUPOz69jx/hFeXFXE2iP+L96/9R9XE/rKdUy8LZG39p7gpNKjSRQeTWG5cEdAsLQOT8O5D9oEzpn1ztg40r53FZOHx5AUBZUFXjauzmTxplNU2wAWKWmjWTihnJnPebj2gT7cPjSaOIef/IMFLHkzky2+OO5+8GomDYkmISyAJ6uE5UsOsurw2SupS7cFjpg4ptx3NZOGuUmOdhKorSP/WBnrV2SybF8DA+4ayuwpnegaYtH9F7cyBaC+mF/+aBcf1hiO6SYvjz+ZS/zUAfz4pniSQ70smL6TNd7zZ7BdVUfh4Vye+3MmH3fszY1N/5e6cqmGWqSGKvbl8fdz382qkxwqhDHxYcRZKDyaSOHRFMEqjuYGCBmUwj2DC3l1t++ie9NWdGcef34Yt4Z6Wb06g0OVDlJGpHL3Y6NIDUvn6ferv3iuo1MiP52dSGVGLm//PhsrKZGpd6Yy++kItuMm4Xgu7y7KweeOZXJad6bPgqIZn5JeY9CWI5J7nhnBtPgKVq3O4J0KC3dCJP0HuXFbDQSxKT2Yy1vrXDw1OZxdyw7w9xM2BH0c8pmPyYqJ5s7HRjIy0cvqpfsp8Ps4eJHZa9eW885r5Z+9F93BapZ/rCuUaqhFauiCnGEkxEEgp45yBUeTKTyawq5n49IjTOzTj+88O5brtuWy4v08Nu6voeas4rToe3t/bos/yR9m7uDPJ04/uNlD+XNjmfHdngzZsJ+d9acPd3bE9ek2nnrLSx0AhRwJuYHXp3RmwJbdPDS/6PSqqYDt1R35008SGNPHQfqeYKPb2hUWw3WpDrKWH+C196q+3Br5y5e9LjpYTEVcMrPsDuQfKGLTWfvVZmOywjsxNi6T6XOyyKpHPqcaumw1FDuqO+Pj/Gx7x6OzjmagW3WbyHf8OLNm7uCNzdW4h/Vm5txxLH95KA+NCOeLS73OKMaMjMDOKmZ7pQt3dOhnP1EBMg9VEXTHMjDpjPV1sI7t28pPT3oAm5zsKhrsAHs+PrvwT+aeojQYQqzbYdSWXV1FVgn0urkv9wwJJ8x0eW86JtvHRyuyFRwXoBpq+RoK6dKNJ3/UBef+I/xhq08Xy5uBzjyagd9TytIFpSxfHMWo8ance2cyP3g6jgFvpPPM2moCjo4kdbZwpfRj0eJ+579AsJbI8DP+bPso8Z59SCBog+2nvPKcTfAgBACHw8IC7Ma2Fahg8a/30vHR/vxwzjjuzfew7oMc/rreQ15tIwZtOqZADTkFbf3Sb8tRDbVcDTliEpj+zDWMqjnB3JdzydN9z81C4dGMGipPsfW9faRvLmHmC0OZOKUHA9dlsJfPJqVv32HmLC8//x5zO4An2+aL3X3bpuEic8S+5JKpsW1BfX4B82cXs2xAV26b0J3JD45g8h0lvP6r3azMvtQMMxwTENBy75JUQ18xJsxryIqO55E5g7ktrIQXnzvA1goVYXNReLSAYIWHDfv8TBwbRlwI0FBLUZmNM8ymKKOMvJZcgAdN2wpQnHGCRRknWLYylbnz+vPIfV3Z+MIJvnKeGbcjJlRDTWdFxfMvc4ZxV3Qpv527l7VFKtLmpGseTXTBbV5XBP1SQ7CLq8lvAAKn2LqzBqtXClMHuVr27iGDts59rDa3hF0FNs7wEMI+fzl/EL8VQnTUOaVyOcfUzqmGmn9MVmQcP3p2GFNjSvnt3D38XVumzU5nHk1gxaYwb14ygf3lHCuqpaS8ASIjGHxDd25J9bHh5RyOBgCCZKzMYM3wYdwx61t0WpvLlmN11LtCSeoZz6hOXl74TTb5zVLfjWurIKobP5uXTP3uMo4W1FLmc5I0sBtT+wTJfLuUktMrxsBxL4d8XRn7wCDyooopwiYnvZDM6ss5pvZLNdQCYwpz88Azw7i/t5+ty4qo6ZHAuB5nHmBTeqSEA6XawmoKhUcT2DWV7DqYyMRrkxk2PpTIUPBV1ZGdWcirc7NYk+H74vZFu9LDgmc/5mhaLyaN6s30SS5CA35K8yrYtqGiWW8dbExbdm0lOw91JW1MT8bFhhAaaKA0v4INb25n8dovb7sMevJ4cUEET9yfzP0PJ1JfVsT8XYVkVl/eMbVXqqHmH5MjvhNj+rhwOF3ccP9gbjjviCD/eHkdczaf96lMMWB5vRf4eGY7lTYtvbW7IFeolQtHN+o41ZBcTGNrqD2Y8cQsXfMQERFzCg8RETGm8BAREWMKDxERMabwEBERYwoPERExpvAQERFjCg8RETGm8BAREWMKDxERMabwEBERYwoPERExpvAQERFjCg8RETGm8BAREWPfqO/zEBGRptP3eYiIyNei8BAREWMKDxERMabwEBERYwoPERExpvAQERFjCg8RETGm8BAREWMKDxERMRbS2h24nNKmpbd2F+QKtXLh6EYdpxqSi2lsDbUXOvMQERFjCg8RETGm8BAREWMKDxERMabwEBERYwoPERExpvAQERFjCg8RETGm8BAREWMKDxERMabwEBERYwoPERExpvAQERFjCg8RETGm8BAREWMKDxERMfaN+jKoluEkaXgq35+cxPDe4cSEWfhO1ZJ7rJwdHx5lybYaAq3dxTbGFR/HP9/Wg5tHxNI7oQMd7AbKCyv4eH0Wi/7upTzY2j1sbqqhlmaFxzPj/47kO51LefHhHfztZGv3qO1TeDSJReKNg3n10QSCGbmsWJKFxw6lS9dI+g/pzDWdj2K3dhebyhnDwy8NpsPvNvFKxmUYjcvNg8+OZGqYlw1bjvFBQT11zg70Hd2DO380gn4R6fzk3UoaWr4nl4lqqMVZLoY9MJB/7tTm38krisKjKRyRTJicgLvwOI8/f4j9/jMee8fC6bBp64tkV+9Eru9iseNyNeg/yR/nbmR5tY9TZyy3128qw/efY7hvdCI9VlSS1V6W4qqhFhd1XV+e+HaQDZsrmDCulTrRDik8msJy4Y6AYGkdnvOWwjaBc2a9MzaOtO9dxeThMSRFQWWBl42rM1m86RTVNoBFStpoFk4oZ+ZzHq59oA+3D40mzuEn/2ABS97MZIsvjrsfvJpJQ6JJCAvgySph+ZKDrDrsP2uFeum2wBETx5T7rmbSMDfJ0U4CtXXkHytj/YpMlu1rYMBdQ5k9pRNdQyy6/+JWpgDUF/PLH+3iwxrDMd3k5fEnc4mfOoAf3xRPcqiXBdN3ssZ7/mrQX+nDf+5fOpx0cEHQ66eqrf82PZNqqEVq6Iu3N7IzjzzSjcC6nawquZoJX/9fSs6h8GiKYBVHcwOEDErhnsGFvLrbd9G9aSu6M48/P4xbQ72sXp3BoUoHKSNSufuxUaSGpfP0+9VfPNfRKZGfzk6kMiOXt3+fjZWUyNQ7U5n9dATbcZNwPJd3F+Xgc8cyOa0702dB0YxPSa8xaMsRyT3PjGBafAWrVmfwToWFOyGS/oPcuK0GgtiUHszlrXUunpoczq5lB/j7CRuCPg75zMdkxURz52MjGZnoZfXS/RT4fRw8+RXbCE4nUeFOnCEhxCXHMO6OPtwRWcHS1/IpaU+7D6qhlqshy8Wo7w9kQkMOs/5fGXUT+mA1wz+ZfEbh0RR2PRuXHmFin35859mxXLctlxXv57Fxfw01Z9W0Rd/b+3Nb/En+MHMHfz5x+sHNHsqfG8uM7/ZkyIb97Kw/fbizI65Pt/HUW17qACjkSMgNvD6lMwO27Oah+UV8NmcK2F7dkT/9JIExfRyk7wk2uq1dYTFcl+oga/kBXnuv6sutkb982euig8VUxCUzy+5A/oEiNp21X202Jiu8E2PjMpk+J4usei4ppG9f3vx5KokOwLYpzzrBa/MO8t/HGtr+NYAzqYZarIbcw/vz07EBVv78CHtqIEXJ0ax0q24T+Y4fZ9bMHbyxuRr3sN7MnDuO5S8P5aER4XT4/CBnFGNGRmBnFbO90oU7OvSzn6gAmYeqCLpjGZh0RmUH69i+rfz0pAewycmuosEOsOdjD2cutk7mnqI0GEKs22HUll1dRVYJ9Lq5L/cMCSfMdGKZjsn28dGK7EZNeoBAdjbzntvGEz/fxfNvZrEjmMDjv7qBuTdHtLsVj2qo+WvIik7kX/+lKzV/28eijPZze8WVpL3Nw1bh95SydEEpyxdHMWp8KvfemcwPno5jwBvpPLO2moCjI0mdLVwp/Vi0uN/5LxCsJTL8jD/bPkq8Zx8SCNpg+ymvPGcTPAgBwOGwsAC7sW0FKlj86710fLQ/P5wzjnvzPaz7IIe/rveQV9uIQZuOKVBDTkHjL1bYNTVkHDi9h7KnmPUfnODQv1/PYz/oy/jtn7CustEv1SaohpqxhqxQrv/hNYyvyuaJd88MUGlOCo9m1FB5iq3v7SN9cwkzXxjKxCk9GLgug718Nil9+w4zZ3n5+ReD7QCebBs+35G1bRouMkfsS+7ZNLYtqM8vYP7sYpYN6MptE7oz+cERTL6jhNd/tZuV2Ze6nclwTECgKftNgVr+sf0k/zrQTf9uFuta45bPy0A19BVjonE1FPtPA5gxJsj6l/LxujvS5XRbnSMdYDlxdwon0eWnvNRPI0+E5QIUHi0gWOFhwz4/E8eGERcCNNRSVGbjDLMpyigjryXvFgqathWgOOMEizJOsGxlKnPn9eeR+7qy8YUTVHzVRDVup+k6dHBiEcT/DdiFUA19XQ76DutMpxAXk2aOZdIFjnj4N+P5cUUeTz28jx3fgFpqKbrm0UQX3OZ1RdAvNQS7uJr8BiBwiq07a7B6pTB1kKtl7/gwaOvcx2pzS9hVYOMMDyHs85fzB/FbIURHnVMqLTQmq4OL6NALPNDBzcQbonGcLGdPbvs661ANNeeYbDL/Zw9z/mPXOT+f8PJH1QQClax6ZRf//koOR9vLZ4Vaic48msCKTWHevGQC+8s5VlRLSXkDREYw+Ibu3JLqY8PLnxdokIyVGawZPow7Zn2LTmtz2XKsjnpXKEk94xnVycsLv8kmv1lWXo1rqyCqGz+bl0z97jKOFtRS5nOSNLAbU/sEyXy79IvbYQPHvRzydWXsA4PIiyqmCJuc9EIyq1tmTI5uPXlpdiKeTzxk5NZQWN5AaFw0I25MYWy3ev7x+lG2t6NNbNVQc4/JpvyYh63HznunSUnqhR30c+STYrbqvydpMoVHE9g1lew6mMjEa5MZNj6UyFDwVdWRnVnIq3OzWJPh++L2RbvSw4JnP+ZoWi8mjerN9EkuQgN+SvMq2Lahgq+6Xd24X41oy66tZOehrqSN6cm42BBCAw2U5lew4c3tLF775W2XQU8eLy6I4In7k7n/4UTqy4qYv6uQzOqWGVOwuIS/bg5nwrAk7r6hA+EhUF9VS3ZmAa8uzOK9/XVt/hPXZ1INXb4xSfOyvN6v+HhmO5M2Lb21uyBXqJULRzfqONWQXExja6g9mPHELF3zEBERcwoPERExpvAQERFjCg8RETGm8BAREWMKDxERMabwEBERYwoPERExpvAQERFjCg8RETGm8BAREWMKDxERMabwEBERYwoPERExpvAQERFj36jv8xARkabT93mIiMjXovAQERFjCg8RETGm8BAREWMKDxERMabwEBERYwoPERExpvAQERFjCg8RETEW0toduJzSpqW3dhfkCrVy4ehGHacakotpbA21FzrzEBERYwoPERExpvAQERFjCg8RETGm8BAREWMKDxERMabwEBERYwoPERExpvAQERFjCg8RETGm8BAREWMKDxERMabwEBERYwoPERExpvAQERFjCg8RETH2jfoyqJbhJGl4Kt+fnMTw3uHEhFn4TtWSe6ycHR8eZcm2GgKt3cU2xtGlJwsW9GfgedUZJP2V9cze6MdujY61GNVQS+nQJYG70npw43Vuuse5CAn42fHWVp79sJZga3eujVN4NIlF4o2DefXRBIIZuaxYkoXHDqVL10j6D+nMNZ2Ptv1fcs4YHn5pMB1+t4lXMi7PaKzIUNyWn+1/PsDfcs+c4jZlRxva/nt6FtVQS4ke2Jf/eLoXV9VVsGHDUVbl1VPvckFBe6uh1qHwaApHJBMmJ+AuPM7jzx9iv/+Mx96xcDrsNr+6cfVO5PouFjsuY5uOqFCiqeOjHYVsOtbOp7lqqEVYkQn8nxm96Fl4nJk/z2TPqXZeR61A4dEUlgt3BARL6/A0nPugTeCcWe+MjSPte1cxeXgMSVFQWeBl4+pMFm86RbUNYJGSNpqFE8qZ+ZyHax/ow+1Do4lz+Mk/WMCSNzPZ4ovj7gevZtKQaBLCAniySli+5CCrDp+9lXPptsARE8eU+65m0jA3ydFOArV15B8rY/2KTJbta2DAXUOZPaUTXUMsuv/iVqYA1Bfzyx/t4sMawzHd5OXxJ3OJnzqAH98UT3KolwXTd7LGe/6kDo0KpaPtp+JU0/+JrniqoRaoIYuEsT25KbaG1S8dUXC0EIVHUwSrOJobIGRQCvcMLuTV3b6L7k1b0Z15/Plh3BrqZfXqDA5VOkgZkcrdj40iNSydp9+v/uK5jk6J/HR2IpUZubz9+2yspESm3pnK7Kcj2I6bhOO5vLsoB587lslp3Zk+C4pmfEp6jUFbjkjueWYE0+IrWLU6g3cqLNwJkfQf5MZtNRDEpvRgLm+tc/HU5HB2LTvA30/YEPRxyGc+JismmjsfG8nIRC+rl+6nwO/j4MkLTWqLqOhQrKCPiioI7RiCKxCgpt5un1sNqqHmryHLxdAhMYQU57DxcACwCO3oxKpvwKeLR81G4dEUdj0blx5hYp9+fOfZsVy3LZcV7+excX8NNWfVtEXf2/tzW/xJ/jBzB38+cfrBzR7KnxvLjO/2ZMiG/eysP324syOuT7fx1Fte6gAo5EjIDbw+pTMDtuzmoflFfDZnCthe3ZE//SSBMX0cpO8JNrqtXWExXJfqIGv5AV57r+rLrZG/fNnrooPFVMQlM8vuQP6BIjadtV9tNiYrvBNj4zKZPieLrHq+UrTbhcPl5t8W/jNzwiws26aqpIKtaw/zhzVllLanXwCqoeavIUc4qUkO/DlV+Ef256WHUriuUwhWQz3HPsnhd28eZUdZu1yKXFa6VbeJfMePM2vmDt7YXI17WG9mzh3H8peH8tCIcDp8fpAzijEjI7Czitle6cIdHfrZT1SAzENVBN2xDEyyvnzRYB3bt5WfnvQANjnZVTTYAfZ87OHMxdbJ3FOUBkOIdTuM2rKrq8gqgV439+WeIeGEndF8o5iOyfbx0YrsSwYH2Bxfm8GCPx5i/iu7mDl3O8/OP8jfTnRg3IMjeGlaJ6JM+3qFUw01cw05OhDnBnr0Ys7dHdm/4lOeeX4nv1zqwb72Kn7x7NX0dxn2Vc6jM49m4PeUsnRBKcsXRzFqfCr33pnMD56OY8Ab6TyztpqAoyNJnS1cKf1YtLjf+S8QrCUy/Iw/2z5KvGcfEgjaYPsprzxnEzwIAcDhsLAAu7FtBSpY/Ou9dHy0Pz+cM4578z2s+yCHv673kFfbiEGbjilQQ05B4y79+ktLWb2q9Iy/KWXrliKOPX09T327NzetKGNVO1s5qoaasYYsB6EhFqGOcv7rZ/vY9vm1sz0e9laHsuSR7tx+bRYHP2lPp7CXn8KjGTVUnmLre/tI31zCzBeGMnFKDwauy2Avn01K377DzFlejv/cJ9oBPNk2cHqVZds0XGSO2Jf8ndnYtqA+v4D5s4tZNqArt03ozuQHRzD5jhJe/9VuVmZfamIZjgkINOX3vV1H+rYKAsOi6N4FKGvCa13BVENfMSYaWUPBBqrrbKoOFPHJWTdd2JRleMm140nu4sJBoM3fydaaFB4tIFjhYcM+PxPHhhEXAjTUUlRm4wyzKcooI68lKzZo2laA4owTLMo4wbKVqcyd159H7uvKxhdOUPFVE9W4naYLDXWCHaC6MavaNk411ASBarILbG5JCCfGAs8ZfbBCHYQCJ33B9nkDxmWkax5NdMFtXlcE/VJDsIuryW8AAqfYurMGq1cKUwe5Lvyc5mLQ1rmP1eaWsKvAxhkeQtjnL+cP4rdCiI46p1RabEwWrgstaVxRTBgbg9Nbxid57Wvaq4aaeUx2LVv/t4JAv+5M6XtmMTnoNTKBFKrYf6S9/S8Fl5/OPJrAik1h3rxkAvvLOVZUS0l5A0RGMPiG7tyS6mPDyzkcDQAEyViZwZrhw7hj1rfotDaXLcfqqHeFktQznlGdvLzwm2zym2Xl1bi2CqK68bN5ydTvLuNoQS1lPidJA7sxtU+QzLdLKTk9swLHvRzydWXsA4PIiyqmCJuc9EIyq1toTM5ovv/zQfQtKGH30WpKTgXpEB/NiPEpjOvm44OXsth73v5G26Uaaokx2eR/eIil14/kB8+MIuZveXxSaBM/IJnv3hxN6Uef8N/tbAHSGhQeTWDXVLLrYCITr01m2PhQIkPBV1VHdmYhr87NYk2G74s9VbvSw4JnP+ZoWi8mjerN9EkuQgN+SvMq2Lahggt+5OHr9qsRbdm1lew81JW0MT0ZFxtCaKCB0vwKNry5ncVrv7ztMujJ48UFETxxfzL3P5xIfVkR83cVklndQmMK1rL9f8u5emxX7v6nMKLDoP5UHdmHTvDb32fxP5n17WqfWjXUQmPyVfD2L7ZR8t2rSLu5LzfGOKjznGTbsp28ucpDubKjySyv9wIf8W2n0qalt3YX5Aq1cuHoRh2nGpKLaWwNtQcznpilax4iImJO4SEiIsYUHiIiYkzhISIixhQeIiJiTOEhIiLGFB4iImJM4SEiIsYUHiIiYkzhISIixhQeIiJiTOEhIiLGFB4iImJM4SEiIsYUHiIiYuwb9X0eIiLSdPo+DxER+VoUHiIiYkzhISIixhQeIiJiTOEhIiLGFB4iImJM4SEiIsYUHiIiYkzhISIixkJauwOXU9q09NbuglyhVi4c3ajjVENyMY2tofZCZx4iImJM4SEiIsYUHiIiYkzhISIixhQeIiJiTOEhIiLGFB4iImJM4SEiIsYUHiIiYkzhISIixhQeIiJiTOEhIiLGFB4iImJM4SEiIsYUHiIiYkzhISIixr5RXwbVMpwkDU/l+5OTGN47nJgwC9+pWnKPlbPjw6Ms2VZDoLW72IY4r+7H4l/1IsV5sSOC7PrdRv7tAx/25exYi1INNT+LzoN68tBdyYy6KoIYV5CKgnL+98MsFr3vpTzY2v1r+xQeTWKReONgXn00gWBGLiuWZOGxQ+nSNZL+QzpzTeejbf8XnDOGh18aTIffbeKVjJYfTbAwnwX/WUG4de4jFjFDr2b6jQ6y8/1t/339gmqoJUQM6s9v5/TAnZ3P8rezyPe5SB3enSnTRnJN7DZ+8qdyfJelJ+2XwqMpHJFMmJyAu/A4jz9/iP3+Mx57x8LpsGnrCxxX70Su72Kx4zK1Z1edYsfHp85/wBHJ/Wnh2FlHWH2wrb+rZ1ANtQAHg29MJrmmkHk//5RNVaf/enMRxeHjeXJcEv2XlbNHp3NNovBoCsuFOwKCpXV4Gs590CZwzqx3xsaR9r2rmDw8hqQoqCzwsnF1Jos3naLaBrBISRvNwgnlzHzOw7UP9OH2odHEOfzkHyxgyZuZbPHFcfeDVzNpSDQJYQE8WSUsX3KQVYfPXo1fui1wxMQx5b6rmTTMTXK0k0BtHfnHyli/IpNl+xoYcNdQZk/pRNcQi+6/uJUpABuYN0cAAAi5SURBVPXF/PJHu/iwxnBMN3l5/Mlc4qcO4Mc3xZMc6mXB9J2s8TZuJRo2sAd39Ayw7dUT5LX136ZnUg21QA1ZOEMsqPPhrT3z7fRTVh6Ang5c553ZiimFR1MEqziaGyBkUAr3DC7k1d2+i+5NW9Gdefz5Ydwa6mX16gwOVTpIGZHK3Y+NIjUsnaffr/7iuY5Oifx0diKVGbm8/ftsrKREpt6ZyuynI9iOm4Tjuby7KAefO5bJad2ZPguKZnxKeo1BW45I7nlmBNPiK1i1OoN3KizcCZH0H+TGbTUQxKb0YC5vrXPx1ORwdi07wN9P2BD0cchnPiYrJpo7HxvJyEQvq5fup8Dv4+DJRm5hWB24cXIynbz5/MfH7elaB6qhFqmhAPu3l3Lqn5L43rfzOPxhFT4grHt30oaHkL+5gP3nBbWYUng0hV3PxqVHmNinH995dizXbctlxft5bNxfQ81ZNW3R9/b+3BZ/kj/M3MGfT5x+cLOH8ufGMuO7PRmyYT87608f7uyI69NtPPWWlzoACjkScgOvT+nMgC27eWh+EZ/NmQK2V3fkTz9JYEwfB+l7go1ua1dYDNelOshafoDX3qv6cmvkL1/2uuhgMRVxycyyO5B/oIhNZ+1Xm43JCu/E2LhMps/JIqseI87u3blrsIOsd3PY2942qlVDLVJD3n/sZ263Ycx9+FssHJnHuhPh3HRLHL6tnzL7j2XUfvXTpRF0q24T+Y4fZ9bMHbyxuRr3sN7MnDuO5S8P5aER4XT4/CBnFGNGRmBnFbO90oU7OvSzn6gAmYeqCLpjGZh0xnl0sI7t28pPT3oAm5zsKhrsAHs+9nDmYutk7ilKgyHEuh1GbdnVVWSVQK+b+3LPkHDCTE/jTcdk+/hoRbZxcEAIwyel0Lu+lJXrq9rlXUeqoRaoIbueg5uz2XTCInlwKg/ekUjXKi/r/+Gl0H/pp8ul6cyjGfg9pSxdUMryxVGMGp/KvXcm84On4xjwRjrPrK0m4OhIUmcLV0o/Fi3ud/4LBGuJDD/jz7aPEu/ZhwSCNth+yivP2QQPQgBwOCwswG5sW4EKFv96Lx0f7c8P54zj3nwP6z7I4a/rPeQ1ZllmOqZADTkF5hcrHPFJTBnTgdIt2XxUbvz0NkM11Lw1FD2oHy/O6kH43sM8+cs8siLiuf27fXngZ9cz8k87mL3qpM4+mkjh0YwaKk+x9b19pG8uYeYLQ5k4pQcD12Wwl88mpW/fYeYsL+e8hY8dwJNtA6dXWbZNw0XmiH3JDf/GtgX1+QXMn13MsgFduW1CdyY/OILJd5Tw+q92szL7Umt8wzEBAeOLFRZXTejB0NBTvPP+N2OrQTX0FWOikTXkiuXBf+1J8uEDTPvPXIqCQGkx7/y2jE/u+yfm33ct39uzlcXZ7erq2WWn8GgBwQoPG/b5mTg2jLgQoKGWojIbZ5hNUUZZy94tFDRtK0BxxgkWZZxg2cpU5s7rzyP3dWXjCyeo+Kq5ZdzO1xCewF23RFL/6X7+O+ebNdFVQ1+fI9ZN33jIWVtGyZmvaTeQmV5C/nd60Sc1BLK1f9UUuubRRBfc5nVF0C81BLu4mvwGIHCKrTtrsHqlMHWQ68LPaS4GbZ37WG1uCbsKbJzhIYR9/nL+IH4rhOioc0qlxcdk0WVcKuOjfXz0t0JK23F2qIaad0zBKh/l9ZDcx437rBe1SOgbS6JVj6esPV49u7x05tEEVmwK8+YlE9hfzrGiWkrKGyAygsE3dOeWVB8bXs7haAAgSMbKDNYMH8Yds75Fp7W5bDlWR70rlKSe8Yzq5OWF32ST3ywrr8a1VRDVjZ/NS6Z+dxlHC2op8zlJGtiNqX2CZL5dSsnpX9aB414O+boy9oFB5EUVU4RNTnohmdUtPKYQN3fcFkdIXhYr97bf+ypVQy0wphoPf11XzejbB/LyrGjW7KikzO8ksW9X7rw5joaDh1iZ0Z4+LNQ6FB5NYNdUsutgIhOvTWbY+FAiQ8FXVUd2ZiGvzs1iTYbvi9sX7UoPC579mKNpvZg0qjfTJ7kIDfgpzatg24YKGvuRh0b1qxFt2bWV7DzUlbQxPRkXG0JooIHS/Ao2vLmdxWu/vO0y6MnjxQURPHF/Mvc/nEh9WRHzdxWSWd2yY4oakcptXQPs+UMuWe14kagaaokxNbD37W08WXwV9327Cw/+uCdRriCVJZXsWbOXJSsLuOTlGLkky+tt5Ed824G0aemt3QW5Qq1cOLpRx6mG5GIaW0PtwYwnZumah4iImFN4iIiIMYWHiIgYU3iIiIgxhYeIiBhTeIiIiDGFh4iIGFN4iIiIMYWHiIgYU3iIiIgxhYeIiBhTeIiIiDGFh4iIGFN4iIiIMYWHiIgY+0Z9n4eIiDSdvs9DRES+FoWHiIgYU3iIiIgxhYeIiBhTeIiIiDGFh4iIGFN4iIiIMYWHiIgYU3iIiIgxhYeIiBhTeIiIiDGFh4iIGFN4iIiIMYWHiIgYU3iIiIgxhYeIiBhTeIiIiDGFh4iIGFN4iIiIMYWHiIgYU3iIiIgxhYeIiBhTeIiIiDGFh4iIGFN4iIiIMYWHiIgYU3iIiIgxhYeIiBhTeIiIiDGFh4iIGFN4iIiIMYWHiIgYU3iIiIgxhYeIiBhTeIiIiDGFh4iIGFN4iIiIMYWHiIgYU3iIiIgxhYeIiBhTeIiIiDGFh4iIGFN4iIiIMYWHiIgYU3iIiIgxhYeIiBhTeIiIiDGFh4iIGFN4iIiIMYWHiIgYU3iIiIgxhYeIiBhTeIiIiDGFh4iIGFN4iIiIMYWHiIgYU3iIiIgxhYeIiBhTeIiIiDGFh4iIGFN4iIiIMYWHiIgYU3iIiIgxhYeIiBhTeIiIiDGFh4iIGFN4iIiIMYWHiIgYU3iIiIgxhYeIiBhTeIiIiDGFh4iIGFN4iIiIMYWHiIgYU3iIiIgxhYeIiBhTeIiIiDGFh4iIGLMeeOjHdmt3QkRE2pb/D/Xq/PdbCxGUAAAAAElFTkSuQmCC;" parent="1" vertex="1">
          <mxGeometry x="990" y="160" width="142.97" height="134" as="geometry" />
        </mxCell>
        <mxCell id="kUMYeLrfrgq7O8A4BPYU-28" style="edgeStyle=orthogonalEdgeStyle;rounded=0;orthogonalLoop=1;jettySize=auto;html=1;entryX=1;entryY=0.5;entryDx=0;entryDy=0;" parent="1" source="kUMYeLrfrgq7O8A4BPYU-21" target="kUMYeLrfrgq7O8A4BPYU-27" edge="1">
          <mxGeometry relative="1" as="geometry" />
        </mxCell>
        <mxCell id="kUMYeLrfrgq7O8A4BPYU-21" value="Create courseWindow with fetched courses from semester.getAllCourse()" style="rounded=0;whiteSpace=wrap;html=1;fillColor=#60a917;fontColor=#ffffff;strokeColor=#2D7600;" parent="1" vertex="1">
          <mxGeometry x="750" y="370" width="175" height="60" as="geometry" />
        </mxCell>
        <mxCell id="kUMYeLrfrgq7O8A4BPYU-38" style="edgeStyle=orthogonalEdgeStyle;rounded=0;orthogonalLoop=1;jettySize=auto;html=1;entryX=0.5;entryY=0;entryDx=0;entryDy=0;" parent="1" source="kUMYeLrfrgq7O8A4BPYU-27" target="kUMYeLrfrgq7O8A4BPYU-37" edge="1">
          <mxGeometry relative="1" as="geometry" />
        </mxCell>
        <mxCell id="kUMYeLrfrgq7O8A4BPYU-27" value="Call cousewindow.showWindow()" style="rounded=0;whiteSpace=wrap;html=1;fillColor=#60a917;fontColor=#ffffff;strokeColor=#2D7600;" parent="1" vertex="1">
          <mxGeometry x="530" y="370" width="180" height="60" as="geometry" />
        </mxCell>
        <mxCell id="kUMYeLrfrgq7O8A4BPYU-34" value="" style="shape=image;verticalLabelPosition=bottom;labelBackgroundColor=default;verticalAlign=top;aspect=fixed;imageAspect=0;image=data:image/png,iVBORw0KGgoAAAANSUhEUgAAA4wAAAF0CAYAAABolLf/AAAACXBIWXMAAA7EAAAOxAGVKw4bAAAgAElEQVR4nO3deXgV1eHG8Xfuzb6HhCwkYd9X2QUVRQUXBKQK1qXVaqvtT61b1apUa9Vqrbu2riharVpXVNxBEFoQQUAhC5AAIQnZyb7fO78/2EJyktwsEAjfz/PwPJrMnTnn3HNO5r1nZq6VkpJi333v/fpp02YBAAAAADBi+DD9+U93ymHbdmeXBQAAAABwlLFtm8AIAAAAADDz2h8YVy77upOLAgAAAAA4GvzuuhtYYQQAAAAAmNm2LUdnFwIAAAAAcPRhhREAAAAA0CRWGAEAAAAAjbDCCAAAAABoEoERAAAAANAID70BAAAAABhxSSoAAAAAoEmsMAIAAAAAGmGFEQAAAADQJFYYAQAAAACN8NAbAAAAAECTCIwAAAAAACPuYQQAAAAANMIlqQAAAACAJhEYAQAAAACN8LUaAAAAAIAmscIIAAAAADAiMAIAAAAAGuGSVAAAAABAk1hhBAAAAAA0wtdqAAAAAACaRGAEAAAAABhxDyMAAAAAwIgVRgAAAACAEYERAAAAANAID70BAAAAADSJexgBAAAAAEasMAIAAAAAjAiMAAAAAIBGuIcRAAAAANAkAiMAAAAAwIjACAAAAAAwIjACAAAAAIwIjAAAAAAAI76HEQAAAABgxAojAAAAAMCIwAgAAAAAMCIwAgAAAACMCIwAAAAAACMCIwAAAADAiMAIAAAAADAiMAIAAAAAGrFtm8AIAAAAADAjMAIAAAAAjAiMAAAAAAAjAiMAAAAAwIjACAAAAAAwIjACAAAAAIwIjAAAAAAAIwIjAAAAAMCIwAgAAAAAMCIwAgAAAACMCIwAAAAAACMCIwAAAADAiMAIAAAAADAiMAIAAAAAjAiMAAAAAAAjAiMAAAAAwIjACAAAAAAwIjACAAAAAIwIjAAAAAAAIwIjAAAAAMCIwAgAAAAAMCIwAgAAAACMCIwAAAAAACMCIwAAAADAiMAIAAAAADAiMAIAAAAAjAiMAAAAAAAjAiMAAAAAwIjACAAAAAAwIjACAAAAAIwIjAAAAAAAIwIjAAAAAMCIwAgAAAAAMCIwAgAAAACMCIwAAAAAACMCIwAAAADAiMAIAAAAADAiMAIAAAAAjAiMAAAAAAAjAiMAAAAAwIjACAAAAAAwIjACAAAAAIwIjAAAAAAAIwIjAAAAAMCIwAgAAAAAMCIwAgAAAACMCIwAAAAAACMCIwAAAADAiMAIAAAAADAiMAIAAAAAjAiMAAAAAAAjAiMAAAAAwIjACAAAAAAwIjACAAAAAIwIjAAAAAAAIwIjAAAAAMCIwAgAAAAAMCIwAgAAAACMCIwAAAAAACMCIwAAAADAiMAIAAAAADAiMAIAAAAAjAiMAAAAAAAjAiMAAAAAwIjACAAAAAAwIjACAAAAAIwIjAAAAAAAIwIjAAAAAMCIwAgAAAAAMCIwAgAAAACMCIwAAAAAACMCIwAAAADAiMAIAAAAADAiMAIAAAAAjAiMAAAAAAAjAiMAAAAAwIjACAAAAAAwIjACAAAAAIwIjAAAAAAAIwIjAAAAAMCIwAgAAAAAMCIwAgAAAACMCIwAAAAAACMCIwAAAADAiMAIAAAAADAiMAIAAAAAjAiMAAAAAAAjAiMAAAAAwIjACAAAAAAwIjACAAAAAIy8OuvAq7p166xDA+hiJhUWerTdnKtWHeaSADhefLBgkkfbMe8A6CiezjsdjRVGAAAAAIARgREAAAAAYERgBAAAAAAYERgBAAAAAEYERgAAAACAEYERAAAAAGBEYAQAAAAAGBEYAQAAAABGBEYAAAAAgBGBEQAAAABgRGAEAAAAABgRGAEAAAAARgRGAAAAAIARgREAAAAAYERgBAAAAAAYERjhmW5XaFxVnU77+yRZHbktgMPMUtzZ4/XuC+M0M4YReWRZSpgzWV//Z5IujO5qbU+/Qnu0t/8crv53LIzZrjT2ulJdujavzi4AjhzrhHt18vfz5ffhpVo27y3V2p1don0C+6v7NTep17xpCh3aUz7+kqswUxU/rlLegge17a3NcnV2GYGjhPfwYXrz3l6K3Pe31bZt1VXXKi+rWBu/z9KHn2UppeTQwe3wcsrP15b3cfYR4YG2Uo2WPrJc962qlXHaC4zR/H+M1pkhUu6na3TJSwWqO9KFPQYdr/0KjXXGvNTZ/W9vnROU/OTXmv/tkZ0xOrLubXnvOlJnv4/wDIHxuOGrsMsvU5Dc0tmXKyb2be3K6vzEaPW5SMM/XqCEwVUq+fBV7Vi4UZUlDvn0n6jIubPVLf4+uTu7kMBRx1by4h/1ZqJLcjgUEOKvPkOidfrPRmn6WfF69ZEf9K/E/eHI1q5PVmvmYsnu/CFv5gzT1Y+fIN/nluvpxA4upO1WdZ23Jp4apdDVmSoy7D5sXJwmBdmqqWvjJ9yHs/ydrcm6HQP9CkfYkZyXmnh9Vx6LBxyOsdea964jMY8cKwiMx4ug0xU/L0GVb76qygsvVfxFfZXxeOphGPyt4DtG/f/zsuL7bNWOWecq6dOseuVZqB33/V4O5+GYoIBjna38rTlavqrep9qfpWphr566465huuLWEdp9y3p9VXhw9BzNf4y9+0Xr5BhL3x+OnbsrtG6jpYkj43RKeJY+LmzQEJafpkyNlDM5Txvio9S7DYc4rOXvZC3V7WjuVzjSjvy81PD1XXksNtSxY6/1712HHp155KhHYDwuWPI+9wrFROUo618Pqyz+Eg29/FIFPfUXlTa61tOSc/ilGvjQbYqdMki+VoFKv3xOKXftkLvRgG7Nto1f63PhfPUe46WSey9X8iFhcR+7Vu56c5cVfbJ63jNfPWeeqMDuTtXt+lH5bz6lbX//j8pK97/aWxFPp2rCr9frx5jZyiyutz/fOToh/x1FvH62vvnd13LLqcDb/6dTrlym1WOel+/8pzTwytMU6L9CiUNmaJfrFPW+70+KnzFegd39ZZfsVvkP32j3g7crbWnOgfJasaeq1z3zlTBzvAIjHKpJWaHdj96hrf/6UXVMgjiCKnam66Hnw7Twjjj9ckaovvlXkepkKWHOJL1ysa3nrl+td3P2dkpHWDddcMkAzRgbqrgQp1yVVcpMK9CS91L01k/VB1b2neHdNOuCvjpnXJh6hjlVU1qp9MQdeuypdKW59u57wRmFuuGWdEXMHapfnxGhOJ9CPXX9Wn1caMsZ3k1zLuqv88aFqUewVJJVqG8WpWjh8lKV204N/9kY3XlBpGK9LPW8/xxdIEk1OXrgynX6quJgGZreRwuNYlnK+C5LEWP66czJ/lr8ScUhVy04YmI1fYittS/mqebKqENf6/TTqGl9dP7kCA2MC1BUkFSaXaQVHyfrhSUlHpdfcssODNeF1w7U7PGhivG3VZRRqCXvJ+mV/5aruv4hW6zrvjafvke33pOnEZcN1MwxIermqFVmUpZefSlFK6q7ad4vBmjG6BBF+bmUl5qrd15N0odb6n0A1+66mftVy33G876HrqE185Ik+SX00JW/7KczhgYqyF2ttA27tPD1bPW56WTNTPpOl7+6x/B6R8tjscU+f3jq7wgL1+x5/XXe+HAlhEjl+aVav3KHXvtwt3ZUHrpt2+ru+dhrLfN7d/BYLc3LLY/1jukHC6bv0a1352rIRQM0Y9zeObZ43xz7coM5Fm1DYDweWDGKufxceWUuVPaKbSrvu1KDn7lMcRMeUvKqmkM37fcbjfnmWUXWrlT6vb/Vnhwf+U+5TMMXRchuEOlas21jIYo4/wx51/5PGS//1PIJQvcZGvbtu0oIW6+Mp25X2vYqeY+YqYQb3tCk0/tqzbQHVVzZ0k6aEDNGPV/+St37rlD63b9TRVWOivKHqO+3n2pg/Hfa+ciNSs1xyKf3UIWdOU7eVunB2kWeq2HL3le837dKf+RGpeb5K3DWderz8lIFB07S989uZYUUR1T5xgytLIzTrLFR6vPvIm01nSQ4gvTzO8brqogifbgoUa8XWQqNCtKQkaEKteoOjEcrLFq3PDBaZweU6qtPt+jdHFuhPcI0wrdG+fUGrRUWotnXTdCE6EItenOTsmqrlVRsywrprhvuG6tzfAq1aFGikkscShjfW/Oum6jefqv0x88rlZ+Urpe/9tbt5wVo3Vub9VmGLbmrlbzvL3zL+yhv4R5nS1Z2lr5K6adrpsQq/tNUpbsP/q73KXEaVJmrv6yt1Zm/bvhaH51wcqQCs3K1eFW5cqu9NXRqX53/27Fy5H+rRzfYLZZ/72ECNPPGUapOzdD7C9NV6hOoyTP6aN6N42QVrtSzSa5W19URGa0b74xWSWK6Xnt+h6we0Zo7u7fu/GOg1ihUUdvT9Z9Xdqo6NFznzemp62+Tsn//o1ZVdHDdGrZ2S33Gw76HrsWjeUmSIzJOd907UpPtPfro7U3aXOxQ7LA4/eHuWJWHWlJSU0fwpL+21Oc7/mkJVkiUbrx/jGYEFuvzxcl6K8etkF5RmjnjBD0zIkA3/zlVW2raW/d9x/Jwvm4t03vn0VzVjrHe2rZwREbrprtjVZO665A5du6N46R6cyzajsB4HLD6XKS40/1U+Y83tafKLfeit1TwyAvqcfmp2rrqq3onW4GKvP1uRYYmafuUc5S8et+Zxev/UuHD3+vEWy1VtmlbA68+Ch4cIDvzB5XktDST+Sr8tseU0HuL0k45Uylr9p/xvKasNa/q5Hfma8jV/9F3T7btElsr5AzF9LhTq6c8pJL9hY68Ut1GeavkvuuU9Fjiwf0+UP+V3gq9+RElxK9VyrgZSkuq3fvjf3+qmi83a+hdtyhi4W+V39YgC7SFq1xpGbYcgwMV65TxxMwKCtOo3g6lvrNZ//io7OAf7nfrb+XQiJ8N0dndy/X2/NV6PmX/jnbpnYb7C4jUlG4pun5+qlIPfAZlafDMITo3olgv3vq93s7YN4q+zdOee6bo9xf20eilm7Q2KUdF3eJ0m+2rzM3ZWn7IfUeWBnmyj0M/92pYOlmq1LLlBfr11T10Zq80vbx93368QjVtSpCKVifr+0ofTWvUliV6df6KQ360ZG2tYp4boQljQuW1oVDZzZZ/H6ef/BPX6trn8w588r50k0uxTwzSlEkhejFp7yflraqr01/eP36n218uVJUkabe2ep2if17QXUNXrNcVT2ar2JakLK0p99cb/xelkwY6tGqDu2PrdoiW+4wV7EnfQ5fjwbwkOTTy/IE6KahM/77ze720bd9GyzO19rLJenqOlNPkAdwt91cP+nzHPrrGoaFzhmhGVLneumuNXtxf6RUZWrJ1lF68tb+unb5bN31SIXe76r73WJ7O163W6L3zbK5a59fWsd6GtnD6yz9xra57Lk9lTc6xaA+eSdTlORV06S8V7rVVu99as3fA5nys3UvL5XvB5YoMrbep9whFnBYjbXxDGd9X1PtFhYre/lDldW3c1sQKkjPQkkqKVNdSXvQarqgZfaX1byhjXf1j2apZ/KKyd/kq7Pxz5NvW3uzOVfaDTx0Mi5JUvFkl26WQXz+ovmf3k9P0LAyv4YqeNUD2ukXKyw+VT2Tk3n/dKlX83xQpepLCB/KZDI4w26XKaslyOOXn3cQm5WVKzZX6njlIPx8dID9T/3YG68TR/nKnZenTppYDDuywWsve21EvLO59/UkTAmWn5mhNibdCQ3z2/gt2KSW5TO7QcA3v0cJDZjpiH5Is2SpYnak1VUE6fUqY9jeLz5A4nR5VpaXL9oeupjm8nQoM8laws1Z7KqSgYG/PvzbIXa1VKwsOueTNnVusLSVSeLjv3j/Era2ru0prvttTr9y2du4oU53t0obVefvC4l7F6aXKd3spPNQ8SbarbvV50Gc86nvoejyYl+QM1oRRfnKnZeqLQ66fdCllRbZ2dODyc4f1+eY4gzVpbIDstEx9nnroeChat0vL8x0aOqH73qeTtrfurZmvW6vhe+fhXNXmsd6WtrD3zrFlzc2xaBfOZrs6n/GKu2yEtPMlFZX2VkB/SbJUtnKt3OfNVPzsKOW8lrt3W0es/GIdcq1LUUWD+cZOT1OlSwrc/4PWbGtiV8hVYUtBIfJySM1eU+ZMkH+8U66Pt6iy4Xa1qSpLrZPVr5/8nVJVW/6g1KWpNKXB6WLtd9p6/uXyWvCYBnyarL7JXyrrhX9ox4LPVL7/fklnbwX0csox7GGdkvtw4/26dsg7hLMhHGGWl4IDJbuuThVNrby5irTwoY3yv3aIfjX/VF2cmaevv9yp95fkadf+D04c/oqJsFSbVqYWLwJwVWhnVoONHP7q0d2Sd8JgvbJwcOPXuCsVFNDCfjtiH/vYpbn6cm2t7j2ph4b/e4/W13pp3Gkx6paZri+3uo1/Da2AYJ154QBdMDlC/bp7y7vecC737LD7Dl6l7IIGqx22LZdbcjisvSeqra2rXa3cwkM3cbltya7VnpIG74V77xS7/1h2R9atPk/6jCd9D12PJ/OSw0/REZZq08ob9R93foXyXFLP9hThcPT55jj8FBNhqWZ7ubIbjgdXhdKzbTljAhTtkHLbW/fWzNet1fC983SuautYb0tbuKuUnd/CHIt2ITB2cc5Tr1CPfl6ynL/V2OTfNvitrcjL58r/9X+osv6gdBtmm7o68+Werdm2Ptd2lW+rlnXWKAVHWtqzu7lXWHvXwh2Gz4gsS5ZlSS4PZkiHlxzGpUKXbMPL3SlvavPJHyrtlHmKv+Z36vnQJ0q4ebGSZs7Tzo2VkuWQZUmupXdr3X0rDA/tqVLlj1wEgSPMJ0QDEyy5dpdqVzMfxNRkZunJO3P01tBYnTu9p877xXidNytX//zren2wY98L938vlweHdRkeimVJqv5pi+a/s0e1DX9tu5S3o8Un1nTAPvar09rl2So8OUbTRyZrQ0p3TR/vra3vZ2m7S43/Glr+mnHzibp5lFuJS9P0xIZS5ZS5VGeF6MKbB2u0h0fdW0675SspPK7rgS9La3KfLT5xsCPr1rgae8vQzCYe9T10LR7OS9LevtOo/7jt9n0f8+Hs881wWJJlmQOLw5LkPrSu7ap7K+brVmn43jk9n5fbM9Zb1RYezbFoDwJjlxaqyMt/Jt/a77XjNw+rsLT+77wV/Jtn1P+0X6rHwOeUmuyS3NmqznbL0buf/BxSRf2HWkTHHnrJZ2u2NbGLVfDFarlmnay4i/tr12PNPBzGtUMV211yDhisAKdUVn+28BqgoP5O2alpB1YfbbdbspyynPs/S99Xrvje8mt1j69U5YpXtXXFa0r72/Uas+QxDb5/nnbPelU1demqyHDJEVSjyhXLVM55DjqdpciTeurkEGnn57nKaPEPqEs5iRl6JTFDb33QW3++d4iuuSRW3zyYoSJ3tfIKbXlHByraIQ/21YC7UtkFtpx+trITC7SrLX/MO2If9VRtytSyvASddWqUeobHaYL3Hj2/ssL48AVH92hNH+mlwm/W6tZn8w7ek+3t1LmH4/qmDq5rcw5b3VrVZ5rpezwprIvxcF5yVytvjy3vqAB1t6T6XxXtCPVVWDv65hEfz5LkrlRmri3v2EDFOqSd9evtDFSvWEuu7Ip9q2jtrHt75+smGd47q7VzVSvH+mHsB2g7mr0ri5qt+JkRqvv0CW1b+K6y363/702l/vUNVTrHKO4XJ+z9YKr2J+V/mytr7MWKG+lbb0feCpwzR8H1w1ZrtjVyq+rff1fmTh+FzX9J/SaGNr1p3SblLEqWRv1CCZOD6/3Cku/51ygmrkZFH32uavfe/VbvzpW8hip0lF+9bX0UNG+uQjwOjA0/D7Tl2vyJ8re4ZIWG7b2nse5H5X68XRrza/U5o5unOwYOE0vhwwfo7iu6K7AgUy9/Vtrsp9INe3hleq7WZdlyBnjJT5JcJVqzsVqOfnE6t7+z9cVxleq/aytk9U3Q3JHN3x/kqnWr1vJSSHCDP0mt2IdH6or01YoyBYzrq9tnRMr+MUPfNrxUdD8vh7wtqaK4RvWvoAsbE6vRAYeWpMnyt0ZH17U5h6tuHvaZFvseupBWzEuuUq37qVrOfj00vbfjkH3EnxijAR5MQ03211b0+Q7jKtWKNWVS7zidN/jQk4/wiQma0s2tpDV5KrDV/rq3d742auK9a8Vc1aax3gH9AB2PFcYuyyH/uVcoMjBTmc8tUo3hnMi98nllbLxGAy7+pcLvW6fCqjLlP/ygCs9/Qv0+Wizvx19XUY5TfhMvUs9zQlRVUX8nrdm2CcVfKvmSexT00b0auHyTur/1mrJXJqm61Jaje28FjxulmpcvVeq3tSp+9AbtmPWJer+/RN5PvayCbRXyHjlbPa+dLeeaPyvphf1PSHWp4uP3VXz3X5Xw8ntyPfqmSvb4yX/yxep5fqSqy2zPPiWJ+pVGL7lE7i+WqyRlu6orAuQ/9Ur1ObFGxbd/ue9eyWrt+dsNSj/vffV873/ye/55Za/Lkts3UgGjT1f3hGXaOPfpRvd4Au1nKXJAtE6tdcnh5aXgiEANGhGj00YFyjsvW0/9bbP+W9LMq0Pjdfe9capZX6BtWZUqqHaqx/B4zR3oVspr+cq1Jcml9e8n69vxo/TzOyYo9JMMrc92yTc8SIMTqrXohZ3a1mzfdivxg0R9PG6sZt02WZFfpGtFWpVqvH3Uo0+EJkYW6sG/71CmW3JtL1RydaymXDZSu4JzlC1bO1ftVkq55/vwjK1tK7KUOmeQhvas0ddv52pPE1OVO6dAP+yWLj5ruG6pTNcPeVLkgBjNGOulnDxbfept23T5PS1X69qrvQ5f3VruM6lBnvQ9HJvaNy9JLq1btE1rJw3TZXeOV/BHmUosstR9UKxmjvZVsQd9v8n+2oo+39o6x43trYvCGxSurkwrP8vV1o8S9cH4cbrgtokKXrxL67JdCu4VrdnnRMtv61b986v9Vzi0t+7tna9b8955NldlBbd1rLe/H6DjERi7KudA9bj8JDmSHlb6sibOWlxJynj+G/X95zzFn3GXCheXyU55RuvOKNPAh/6g2PteUC/lq/Srl5R4zm0KeXuV4uu9vDXbmtmqW/WA1pywUgl/+L16nHuVBlwcKafTJdeeTFWsX66d+69X2LNUyaefrrK77lSvXz+g2Bh/ubM2qeDZy7X+gX+rtN7DU+3Nj2r9PH8NuftyJTyyQM7qHJWteFdbZtwkn398p76etF/pOuX/d556zb1RMbGhcrhKVZ28Sruvn6atzycdvNA1/zMlTpmqkttvVcL5f9TQ67vJWVesqsRVyn35e9UyseGwsDR4xijdO0OybVs15dXanV6kz15N0qKvc1t8eIhdWaK1ybGac1IfnRruJR9XnfIzi7T0pTVa+MXBx5+787P0wF212jK3r6afM0TTQp1yl1UoedUWlXvQt+2SPD1112ptm9NXMyb20/UzvOXjqlX+riJ9t7TowJM83Xm79MhTgbr50jhdenW0agqy9eS6vaHE0314yp25W19uGaABMTn6Yn2ju28OchXrtYc3yveq/po2b7imu2uUkZipl+5PVeWcKbq73pMemyt/a3R0XTujbi31GU/7Ho5F7ZuXJMm9O1333uPWlb/oo6kXD9csd412/JShZx/J0tkPjlCfFu7Qa7q/et7nW1vnPqcM1O9OOfSndlWWsr7MVWZZgZ695zvtvLC/Zk8bpKlhDlUXlmnD5xv1l/eylFrvO03bXfd2zdete+88mavaM9bb2xboeNaaNWvsR594Ws8+8+QRPfCqblzCB6BjTCosbHkjSXOuWnWYSwLgePHBgkkebce8035Wt5569LlhCn13pX7zn9Lj6oOF47nuDdEWns87HeV3192gG6//P+5hBAAAwNHKUuyJsRrsrFXqdvNDqrqu47nuDdEWnYlLUgEAANDpvIYO0t8u9FNqUrF25taowu1Q1MAe+tn0bnKkbtW7G7ruQwGO57o3RFscfQiMAAAA6HTu3D1KLOujyWd018xu3vK13CorLNPmrzbrtbd3aUsztx0f647nujdEWxx9CIwAAADodO78XC14LFcLOrsgneB4rntDtMXRh3sYAQAAAABGBEYAAAAAgBGBEQAAAABgRGAEAAAAABgRGAEAAAAARgRGAAAAAIARgREAAAAAYERgBAAAAAAYERgBAAAAAEYERgAAAACAEYERAAAAAGDk1VkHnlRY2FmHBnCc+mDBpM4uAoDjDPMOgGMdK4wAAAAAACMCIwAAAADAiMAIAAAAADAiMAIAAAAAjAiMAAAAAAAjAiMAAAAAwIjACAAAAAAwIjACAAAAAIwIjAAAAAAAI6/OOvCcq1Z11qEBdDEfLJjk0XbMOwA6iqfzDgAc61hhBAAAAAAYERgBAAAAAEYERgAAAACAEYERAAAAAGBEYAQAAAAAGBEYAQAAAABGBEYAAAAAgBGBEQAAAABgRGAEAAAAABgRGAEAAAAARgRGAAAAAIARgREAAAAAYERgBAAAAAAYERgBAAAAAEYERgAAAACAEYHRyFLCnMn6+j+TdGG01eK2cWeP17svjNPMmJa2PVZ1jTpaQfF66O1z9Mbl4fLq7MIAOIow5wMA0JTj5rzZKzxc58zqrWljw9Uvyld+lkvFeaXatC5T7y3apY2Fdpv37fByys/XlvdRFr87ss5Hax0PK98AnXhWH82aHKkhCf4K8ZGqy6qUubNI33+9Ta+uLFN1Z5fxKOc9eqTenR+v0APn1W6tfOJrzf+2rjOLhWOIs88Avfhwf3Vfs1GXPpKlkrZP1R2mo+bDpsbHvaVDGTcAgKPGcREYAwf001/uGKjRvhVasyxdL6VWqNTtpcheETpj6jA9fmqsXnlwnV5PqVPrz0Vs7fpktWYuluzDdSLjDNPVj58g3+eW6+lEzw7SsXU+AnXcrw11PRy8omN1050jdW6cS6nfZeqdb0qUW2EpJDZM4ydHa0TEVtV2WukOow5u/9pNybrhz0W65JphOjMgTy89s8gEEQ0AABTDSURBVEVfbuakF55yaOjUOPWSpNFxOiU8S4sLO7tMHTcfNjU+at2MGwDA0aPLB0YroLuuuXmgRtu5evy29fo4013vt+l655MY3fqX0frVLUO09eaftLqs/qtteZogD2eQ8u4XrZNjLH3v4fbtq3PTDntYVOvrengKEaJLbxmpc6LK9cFf1+ofP1TJdeCXGXr/nc3ydthyN7OLY1WHt39tjXZsylNKka0z3KVat7FE+a6WXwZIkvwidPZkf2WvzFDupDidfVKAPvu44jCOvSM85zc5Phg3AICjRxcPjJa6T+mrs6JcWvvcZi3ObHya4SrI1j9f362Jf4jTpaelas0n9U9GbLmDuumiSwfpZ2ND1M1Zp91bsvX+GylatKV233mFpYQ5k/TKxbaeu3613s05eBbhDO+mORf113njwtQjWCrJKtQ3i1K0cHmpyuudbDjDu2nWBX11zrgw9Qxzqqa0UumJO/TYU5kKmD1Gd14QqVgvSz3vP0cXSFJNjh64cp2+qujIOu+tx4IzCnXDLemKmDtUvz4jQnE+hXrq+nXacOqJbazjvv1O36Nb787VkIsGaMa4UMX42yrOKNSS95P08n/LVS2nhv+s5bp62qb+PeN05S/6aurQQIVZtdqxIV0vvFGhWg9O8sIm9dfcfpa2vf2jnj0kLO7vFrZq6/3QERau2fP667zx4UoIkcrzS7V+5Q699uFu7ag8+L541g6e9It0pbla2f5n7dGtf8zWgMuHaO74EEU467R7a7befz1FH26ple1B+zvCuumCSwZoxthQxYU45aqsUmZagZa8l6K3fqrukgEanSt4bLxOCa3WN8vStCOih66dGqfei7cq7ZDO1tzctVYfF/tq1LQ+On9yhAbGBSgqSCrNLtKKj5P1wpKSQ+aNjpjzWxqzAAAca7p2YLS8dMLoMPnUFmjpd1VNntCW/LBba8tjderYSIUvTlfB/r//jgCdf9MIlSRl6I0Xd6g6KESnzeil398TrKD53+n17U2fIlsh3XXDfWN1jk+hFi1KVHKJQwnje2vedRPV22+V/vh5uVySrLBo3fLAaJ0dUKqvPt2id3NshfYI0wjfGuW7bQUkpevlr711+3kBWvfWZn2WYUvuaiU3dfNcO+tshYVo9nUTNCG6UIve3KSs2molFdsyPdrB0zpKkiMyWjfdHaua1F16f2G6Sn0CNXlGH829cZxUuFLPJtnKb6Gunh7PEdNTf/7LMI1z7dFHb2/S5mKHYobG6ZY7vOVSSwsIXho9MVKBdXv02ZLSFi87tUKidOP9YzQjsFifL07WWzluhfSK0swZJ+iZEQG6+c+p2lJzcPuW28G1731orl+0of0jovR/d0WrdvvevlwTHKrTZ/TS9feEKGj+av1rewvt7wjSz+8Yr6siivThokS9XmQpNCpIQ0aGKtSqIyyi41m+mnJadwUVZuqbxAplRO/RNb/pobMGpOrZlMY9rqm5S/LRCSdHKjArV4tXlSu32ltDp/bV+b8dK0f+t3p0Q/1Pf9ox53swZgEAOBZ17cDo8FdCjEN2QZl2ljezXW25duZIXjGB6uGQCg6cZfvJuWGN/rCgQFWSpCx9tbZSf39sqC66MEYfNfkABkuDZg7RuRHFevHW7/V2xr6Nvs3Tnnum6PcX9tHopZu0tsahET8borO7l+vt+av1fMr+A+/SO/v+qyQpR0Xd4nSb7avMzdla3tJ9Ze2ssxUQqSndUnT9/FSlHgg6lhLaXMd9mzv95Z+4Vtc9l6eyfZsu3eRS7BODNGVSiF5M2qPsZuvq6fGcGjunv8YHluntu77X81v2VWx5ptb/8iQ9db6U3Vz7OQPUJ84pu7BEW4taWo50aOicIZoRVa637lqjF7fuO9aKDC3ZOkov3tpf107frZvqr1p70A51arlftL79AxScskZXvVSgvYueWfp6fbUef2SQLrowRoseyWq2/a2QMI3q7VDqO5v1j4/KDtbn3RaaCGgjR1Sszhrh1O7PsrS51lbdmixtuGKETp/aTa+k5O+bkw8yz12SVKJX5684ZNsla2sV89wITRgTKq8NhTpwd2Cb53xPxiwAAMemLv7MS6f8fSR3VZ2qmjv3t12qqLIlPy/51V9Kc1fpu9WFh5yYuHN36+tEW4FDIzSoqbjtDNZJEwJlp+ZoTYm3QkN89v4LdikluUzu0HAN72FJzmCdONpf7rQsfbq1o65Xamed7Wote29HgxMu02E8rGO9/a5aWXAgJEmSO7dYW0qk8HDfljtiK9p07HBfubdn6bNt9dvUpeT/5mhXi83sVICv5K6obXCpmrlMk8YGyE7L1Oeph+64aN0uLc93aOiE7ops0L4ttoMn/aK17e+u0upVhaqst4u6rEx9mWQroLm+vL/Y5WVKzZX6njlIPx8dcGifATqcpV5T4jXUWa5lK4tUK8kuztXSn1yKODFe4wMML/Fg7nJ4OxUY5K1gZ632VEhBwd6HXj3Rjjm/4+dyAACODl17hVEuVVZLDj8v+Td3gms5FehnSQ1Dll2t3IZP5LPrlJNXI430VaSfZLxm0eGvHt0teScM1isLBzf+vbtSQQF7t4uJsFSbVqacDrtkqZ11dlVoZ5YHhfG0jgf+v0rZ+Q0SmG3L5ZYcDst4yWubjufwVfdwS7Wp5cpuUA13XoVy3VJcswdyqbJmb/sFtFQoh59iIizVbG98LLkqlJ5tyxkToGiHlLv/HNKTdvCkX7S2/e1q5TTqy7XKzK6RhjXTlw/Up0gLH9oo/2uH6FfzT9XFmXn6+suden9JnnZVNvM6oC28QnXWqcFy5O1SUpW/4mIlyVJ6UrFqxkXp7Ak+Wrms5tDLy5uYu6yAYJ154QBdMDlC/bp7y7veuG50EUY75vyOn8sBADg6dO3A6K5UerZb1gnB6h0oJZY0sZ1PkHrHWKrbWq6Gz4ixmgkNTT8lb++Jf/VPWzT/nT2Nzy9sl/J27L9pcN+PmqtHa3RAnV0eFcbTOu6voK26dp1ItaJNJdm23bhN3XbjB9g02qZS6bvdsk4IUd8QafOe5jd3WJJlmQOvw5LkbvDeetoOLfaLVra/JKehkA6Htb9YLarJzNKTd+boraGxOnd6T533i/E6b1au/vnX9fpgB6sq6Dh+w+J1Rowlh6On7n+6Z6Pfj5saq6jlO5XToN82mrssf824+UTdPMqtxKVpemJDqXLKXKqzQnThzYM12nDsts356vi5HACAo0TXDox2nTas36Pq8eGaeqKfPv/S/BCY0LGxGhfgVvIP+TrktrV9K0jKqvdDy0ux0T5SebUKGt5Es5+7UtkFtpx+trITC7SrqYDgrFZeoS3v6EBFO6SMjvhkur119pSndewoHrdpjfL32PLuHqDuDd+6UF+Ft3Ttq12njRuKVD0+XNNPCdTij8qbfqCLu1KZuba8YwMV65B21t/QGahesZZc2RWtX3Fwe9AvWtv+Dj/FRDZsEB8l9PCWyquU31RfbsSlnMQMvZKYobc+6K0/3ztE11wSq28ezGhbPwIa8dL4qTGKqCvW+y+kauMhK9gO9Z02TL8YHqczeqTr35nNdzpH92hNH+mlwm/W6tZn8w5eku3t1LmmuaDNc/5hmMsBADhKdPF7GG3lr0jTl7lOjb1omM6Na1xdZ2Ssrr0sRsEFmfr3sgbf72X5asLkbgqsv31MD00bYqk8MV8pTS2quEr137UVsvomaO5I76Yvt3SVaM3Gajn6xenc/s4ma+GqdavW8lJIsCdvVzvr7ClP69ja3TZV11a06frEGjn79dC03vX3YannidHq12IT2sr7Nk1f5Tk07MIRunSgVzPHKtWKNWVS7zidN/jQz17CJyZoSje3ktbkHXzqrqc86RetbX/LVxMnRyiw3oY+veJ19iBLZZsLDvTl5vpaw2NUpudqXZYtZ4CX/DytG9ACKzRaZ4/zVvkP2/XqN9lavqr+vyy98V6mchyhmn5aSMufeHo55G1JFcU1qn9rY9iYWI02XXPe5jnfs7kcAIBjUddeYZRkV+Tr+ce3KP6Ogbr5byfrpGWZWp1aqTK3l6J6R+j002PUzy7UKw8m6bsGX2Bv11TJNWak/n5tuj7fVKGqwGBNPa+3RtpFWvBeThNPy5MktxI/SNTH48Zq1m2TFflFulakVanG20c9+kRoYmShHvz7DmW6XVr/frK+HT9KP79jgkI/ydD6bJd8w4M0OKFai17YqW0uybW9UMnVsZpy2UjtCs5RtmztXLVbKU08BbU9dfacp3Vs3V6brqvnbbr2w1StnzhEl90xXsEfZyqpyFLkwFjNGuOlvKa+jqQeuyJPzz2+VT3vGKAr75uiCSsz9W1SmQoqbfmFBqhXv2CVLtmg1xNtbf0oUR+MH6cLbpuo4MW7tC7bpeBe0Zp9TrT8tm7VP79qSyD3pF+0sv3dNbLGjNAj16brs58qVBMapukze2lAbZFeei9HpXbz7b/FK1533xunmvUF2pZVqYJqp3oMj9fcgW6lvJav3GYuzw6ICFRUgCXL11fxUd5K3V178KmUwCEsRU2O1zi/an3xRY6KDf2qJildn+7oqV+dHKdh/ynWxmbuvXXnFOiH3dLFZw3XLZXp+iFPihwQoxljvZSTZ6tPg+3bPud7Npeb6mseH4wbAMDRo8sHRkkq35Kq224u1Lmz+mjauN66epqP/C2XinNLtWl5op75cJc2Fhq+4H7bdt3xdIWmXTFQl18TrFCrVru3ZurJx1P0UTPfxyVJdkmenrprtbbN6asZE/vp+hne8nHVKn9Xkb5bWnTgRMidn6UH7qrVlrl9Nf2cIZoW6pS7rELJq7aofN8h3Hm79MhTgbr50jhdenW0agqy9eS6pgNje+rcGp7WsTWaq6unx6vL3KG776nTVZf11RkXj9D5qtHOjbv0zH3Z6n/LZJ3tQTnKU7bpDzcXasb5vXXmmHj96hQf+TlsVZdVKWN7oRbta3u7rEDP3vOddl7YX7OnDdLUMIeqC8u04fON+st7WUr1IKAa28GDftGq9neV6e1H0hQ0e6B+eU2Iwqxa7d6yS0++nqKPdhzsB023f4nWJsdqzkl9dGq4l3xcdcrPLNLSl9Zo4RdlTYZi7xOG640/JSjckqR4/emZWJ32xBL9aQWnvjBwBOrMqeHyykjTJ5uaWM5zl+vzLwt0ydWxOntkijaua2YecxXrtYc3yveq/po2b7imu2uUkZipl+5PVeWcKbrbu8Hm7ZjzPRmzDTU1Pv5SOoRxAwA4alhr1qyxH33iaT37zJNH9MBzrlp1RI93+FhKmDNJr1xs67nrV+vdhk9hADpVvf553Wq92/RS4DHtgwWTPNqu68w7ADqbp/MOAByrfnfdDbrx+v/r6vcwHhk+Pk5Ztls1tV3zZBxdBN+dCAAAgFY6Li5JPSwcARp3WpjCHEE64/QgKSdNKcWdXSgAAAAA6DgExrZyBOjkn4/QzHCpeFeOXng+TVv4KjoAAAAAXQiBsa3q8vXE1V/oic4uB9AsW7s++J/O/KCzywEAAIBjEfcwAgAAAACMCIwAAAAAACMCIwAAAADAiMAIAAAAADAiMAIAAAAAjAiMAAAAAAAjAiMAAAAAwIjACAAAAAAwIjACAAAAAIwIjAAAAAAAIwIjAAAAAMDIq7MO/MGCSZ11aADHKeYdAACA1mGFEQAAAABgRGAEAAAAABgRGAEAAAAARgRGAAAAAIARgREAAAAAYERgBAAAAAAYERgBAAAAAEYERgAAAACAEYERAAAAAGBEYAQAAAAAGBEYAQAAAABGBEYAAAAAgBGBEQAAAABgRGAEAAAAABgRGAEAAAAARgRGAAAAAIARgREAAAAAYERgBAAAAAAYERgBAAAAAEYERgAAAACAEYERAAAAAGBEYAQAAAAAGBEYAQAAAABGBEYAAAAAgBGBEQAAAABgRGAEAAAAABgRGAEAAAAARgRGAAAAAIARgREAAAAAYERgBAAAAAAYERgBAAAAAEYERgAAAACAEYERAAAAAGBEYAQAAAAAGBEYAQAAAABGBEYAAAAAgBGBEQAAAABgRGAEAAAAABgRGAEAAAAARgRGAAAAAIARgREAAAAAYERgBAAAAAAYERgBAAAAAEYERgAAAACAEYERAAAAAGBEYAQAAAAAGBEYAQAAAABGBEYAAAAAgBGBEQAAAABgRGAEAAAAABgRGAEAAAAARgRGAAAAAIARgREAAAAAYERgBAAAAAAYERgBAAAAAEYERgAAAACAEYERAAAAAGBEYAQAAAAAGBEYAQAAAABGBEYAAAAAgBGBEQAAAABgRGAEAAAAABgRGAEAAAAARgRGAAAAAIARgREAAAAAYERgBAAAAAAYERgBAAAAAEYERgAAAACAEYERAAAAAGBEYAQAAAAAGBEYAQAAAABGBEYAAAAAgBGBEQAAAABgRGAEAAAAABgRGAEAAAAARgRGAAAAAIARgREAAAAAYERgBAAAAAAYERgBAAAAAEYERgAAAACAEYERAAAAAGBEYAQAAAAAGBEYAQAAAABGBEYAAAAAgBGBEQAAAABgRGAEAAAAABgRGAEAAAAARgRGAAAAAIARgREAAAAAYERgBAAAAAA0YlkWgREAAAAAYEZgBAAAAAAYERgBAAAAAEYERgAAAACAEYERAAAAAGBEYAQAAAAAGDksy+rsMgAAAAAAjkKsMAIAAAAAjAiMAAAAAAAjAiMAAAAAwIjACAAAAAAwIjACAAAAAIwIjAAAAACARizLIjACAAAAAMz4HkYAAAAAgBErjAAAAAAAIwIjAAAAAKAR7mEEAAAAADSJexgBAAAAAEasMAIAAAAAjAiMAAAAAAAjAiMAAAAAoBHLsriHEQAAAABgxgojAAAAAKARvlYDAAAAANAkLkkFAAAAABixwggAAAAAaIRLUgEAAAAATeKSVAAAAABAIw6HgxVGAAAAAIAZK4wAAAAAACNWGAEAAAAAjViWxQojAAAAAMCMFUYAAAAAgBErjAAAAAAAI1YYAQAAAACNOBwOVhgBAAAAAI1ZliWHw8EiIwAAAACgMdIiAAAAAKARvlYDAAAAAGDkcDhYYQQAAAAAmHEPIwAAAACgEcuy9P/IUp0yNooh5QAAAABJRU5ErkJggg==;" parent="1" vertex="1">
          <mxGeometry x="330" y="452.05999999999995" width="268.5" height="110" as="geometry" />
        </mxCell>
        <mxCell id="kUMYeLrfrgq7O8A4BPYU-40" style="edgeStyle=orthogonalEdgeStyle;rounded=0;orthogonalLoop=1;jettySize=auto;html=1;exitX=1;exitY=0.5;exitDx=0;exitDy=0;entryX=0;entryY=0.5;entryDx=0;entryDy=0;" parent="1" source="kUMYeLrfrgq7O8A4BPYU-37" target="kUMYeLrfrgq7O8A4BPYU-39" edge="1">
          <mxGeometry relative="1" as="geometry" />
        </mxCell>
        <mxCell id="kUMYeLrfrgq7O8A4BPYU-41" value="Add course button&lt;div&gt;&amp;nbsp;pressed&lt;div&gt;&lt;br&gt;&lt;/div&gt;&lt;/div&gt;" style="edgeLabel;html=1;align=center;verticalAlign=middle;resizable=0;points=[];" parent="kUMYeLrfrgq7O8A4BPYU-40" vertex="1" connectable="0">
          <mxGeometry x="-0.0565" y="2" relative="1" as="geometry">
            <mxPoint y="2" as="offset" />
          </mxGeometry>
        </mxCell>
        <mxCell id="kUMYeLrfrgq7O8A4BPYU-73" style="edgeStyle=orthogonalEdgeStyle;rounded=0;orthogonalLoop=1;jettySize=auto;html=1;entryX=0.5;entryY=0;entryDx=0;entryDy=0;" parent="1" source="kUMYeLrfrgq7O8A4BPYU-37" target="kUMYeLrfrgq7O8A4BPYU-2" edge="1">
          <mxGeometry relative="1" as="geometry">
            <Array as="points">
              <mxPoint x="200" y="610" />
              <mxPoint x="200" y="130" />
              <mxPoint x="910" y="130" />
            </Array>
          </mxGeometry>
        </mxCell>
        <mxCell id="kUMYeLrfrgq7O8A4BPYU-89" style="edgeStyle=orthogonalEdgeStyle;rounded=0;orthogonalLoop=1;jettySize=auto;html=1;exitX=0.75;exitY=1;exitDx=0;exitDy=0;entryX=0.5;entryY=0;entryDx=0;entryDy=0;" parent="1" source="kUMYeLrfrgq7O8A4BPYU-37" target="kUMYeLrfrgq7O8A4BPYU-42" edge="1">
          <mxGeometry relative="1" as="geometry" />
        </mxCell>
        <mxCell id="kUMYeLrfrgq7O8A4BPYU-90" value="Course button pressed&lt;div&gt;&amp;nbsp;(Selecting a course)&lt;/div&gt;" style="edgeLabel;html=1;align=center;verticalAlign=middle;resizable=0;points=[];" parent="kUMYeLrfrgq7O8A4BPYU-89" vertex="1" connectable="0">
          <mxGeometry x="0.0019" relative="1" as="geometry">
            <mxPoint as="offset" />
          </mxGeometry>
        </mxCell>
        <mxCell id="kUMYeLrfrgq7O8A4BPYU-92" style="edgeStyle=orthogonalEdgeStyle;rounded=0;orthogonalLoop=1;jettySize=auto;html=1;exitX=0.25;exitY=1;exitDx=0;exitDy=0;entryX=0.5;entryY=0;entryDx=0;entryDy=0;" parent="1" source="kUMYeLrfrgq7O8A4BPYU-37" target="kUMYeLrfrgq7O8A4BPYU-91" edge="1">
          <mxGeometry relative="1" as="geometry">
            <Array as="points">
              <mxPoint x="590" y="680" />
              <mxPoint x="420" y="680" />
            </Array>
          </mxGeometry>
        </mxCell>
        <mxCell id="kUMYeLrfrgq7O8A4BPYU-93" value="Sync button&amp;nbsp;&lt;div&gt;pressed&lt;/div&gt;" style="edgeLabel;html=1;align=center;verticalAlign=middle;resizable=0;points=[];" parent="kUMYeLrfrgq7O8A4BPYU-92" vertex="1" connectable="0">
          <mxGeometry x="-0.1937" relative="1" as="geometry">
            <mxPoint as="offset" />
          </mxGeometry>
        </mxCell>
        <mxCell id="kUMYeLrfrgq7O8A4BPYU-37" value="Add addCourse button and&amp;nbsp; course buttons" style="rounded=0;whiteSpace=wrap;html=1;fillColor=#60a917;fontColor=#ffffff;strokeColor=#2D7600;glass=0;shadow=0;" parent="1" vertex="1">
          <mxGeometry x="560" y="580" width="120" height="60" as="geometry" />
        </mxCell>
        <mxCell id="kUMYeLrfrgq7O8A4BPYU-46" style="edgeStyle=orthogonalEdgeStyle;rounded=0;orthogonalLoop=1;jettySize=auto;html=1;exitX=1;exitY=0.5;exitDx=0;exitDy=0;entryX=0;entryY=0.5;entryDx=0;entryDy=0;" parent="1" source="kUMYeLrfrgq7O8A4BPYU-39" target="kUMYeLrfrgq7O8A4BPYU-45" edge="1">
          <mxGeometry relative="1" as="geometry" />
        </mxCell>
        <mxCell id="kUMYeLrfrgq7O8A4BPYU-39" value="Create AddCourseWindow() instance" style="rounded=0;whiteSpace=wrap;html=1;fillColor=#60a917;fontColor=#ffffff;strokeColor=#2D7600;" parent="1" vertex="1">
          <mxGeometry x="870" y="580" width="120" height="60" as="geometry" />
        </mxCell>
        <mxCell id="kUMYeLrfrgq7O8A4BPYU-95" style="edgeStyle=orthogonalEdgeStyle;rounded=0;orthogonalLoop=1;jettySize=auto;html=1;exitX=0.5;exitY=1;exitDx=0;exitDy=0;entryX=0.5;entryY=0;entryDx=0;entryDy=0;" parent="1" source="kUMYeLrfrgq7O8A4BPYU-42" target="kUMYeLrfrgq7O8A4BPYU-94" edge="1">
          <mxGeometry relative="1" as="geometry" />
        </mxCell>
        <mxCell id="kUMYeLrfrgq7O8A4BPYU-42" value="create a course instance" style="rounded=0;whiteSpace=wrap;html=1;fillColor=#60a917;fontColor=#ffffff;strokeColor=#2D7600;" parent="1" vertex="1">
          <mxGeometry x="790" y="720" width="120" height="60" as="geometry" />
        </mxCell>
        <mxCell id="kUMYeLrfrgq7O8A4BPYU-78" style="edgeStyle=orthogonalEdgeStyle;rounded=0;orthogonalLoop=1;jettySize=auto;html=1;exitX=1;exitY=0.5;exitDx=0;exitDy=0;entryX=0.75;entryY=1;entryDx=0;entryDy=0;" parent="1" source="kUMYeLrfrgq7O8A4BPYU-45" target="kUMYeLrfrgq7O8A4BPYU-15" edge="1">
          <mxGeometry relative="1" as="geometry">
            <mxPoint x="1130" y="440" as="targetPoint" />
          </mxGeometry>
        </mxCell>
        <mxCell id="kUMYeLrfrgq7O8A4BPYU-45" value="Call addcourse.showWindow()" style="rounded=0;whiteSpace=wrap;html=1;fillColor=#60a917;fontColor=#ffffff;strokeColor=#2D7600;" parent="1" vertex="1">
          <mxGeometry x="1060" y="580" width="170" height="60" as="geometry" />
        </mxCell>
        <mxCell id="kUMYeLrfrgq7O8A4BPYU-48" value="" style="shape=image;verticalLabelPosition=bottom;labelBackgroundColor=default;verticalAlign=top;aspect=fixed;imageAspect=0;image=data:image/png,iVBORw0KGgoAAAANSUhEUgAAAYwAAACoCAYAAADzc9neAAAACXBIWXMAAA7EAAAOxAGVKw4bAAARZklEQVR4nO3deXRU9d3H8c+92QiZLBMSMhDZRQGBUihiCIiCwSWIYIFQrNCKVQH3ApbysB3EpWJ7pFSoQllUbAiowSNo2cpOWWRTgRQREUhikAmQhMRk5j5/gBLZ+gNjJjm8X+dwjmTuvfNlInnP795hxoqKinJ63ttPn362WwAAXEzwd/+x/MP3AzkHAKCKswM9AACgeiAYAAAjBAMAYMR2HCfQMwAAqgFWGAAAIwQDAGCEYAAAjBAMAIARggEAMEIwAABG7B6pzQM9AwCgGrAdhQV6BgBANWCLYAAADHANAwBgxOadQQAAJmyJYgAA/jdWGAAAI1zDAAAYIRgAACMEAwBghIveAAAj9uLFmwI9AwCgGuCUFADACMEAABghGAAAIwQDAGCEYAAAjAQHegBUL5NnZAR6BOCqNPzBvoEegWDg8k0a8VCgRwCuKl6vV263W16vN6BzcEoKAKq4qrKyJxgAACMEAwBghGBUE/4jGXr8zu66+7m1Kg30MACuStXvordTpP1LZ2vmglXadahAQdF11Ohn3fWboX3VOsoK9HTnq27zAsBFVLNg+PTVogka/uo2fetpq269GsnO3a0tB04otGZV/OFbcfNalsVyEEBAVa9gnNqi9HnbVehK0u9fHq/ucad/6Pp9ftlBkuSoYM8iTZ++QOv+e0z+6Ebq0OthDevbSlFHMzVi4FTt7jBKC8Z3Vbjvc815ZJjmHbtNE9OHq33BEv1xwF9Vev8o3bRvrv65KUS9X3pCkYv+pvT1++T1Ryjh2hvV59Enldo4WAV7MjV92kKt23dMir1OnQc8piF3NlZ4Bc0bbZXq0PKpevG1FdpfGq+2d7SU/wcPhnPRGUKz3tBjI+er4Lbxmvtou5/++wLgqlCtnrSWHdihXfmOarTppk5xZ5+h20Gn/xjO8TWaMvZVLT3oUvue96hz7a+1auY4vbg41/BTP8q0a/ZzSs+upy6971bTPbP192VZspun6t472stTUiwrMlhO/hpNGTdNy3LilHxPL3WOP6KPXpmg2btKKmxef+4STXllifae8qj9bTcqYsc67S07e+xLzWAnJivt/oG679YmV/pQA8B5qtcK4+QJFciSKzZGoRe4uejjldqYb6nBfSP0zKDGsvM8yh00VduWrlFO+xCDO3AkT0+N/csQtQqTCtdsU5jlqNQJV5OUAfrNULeCJRWuXKmNXim2bRPF1wiTGtZXzKe7tHXzQflaNVVQBcy7P3SnPiu2Vb//SI15oKmsA5H6csgcHfpu320Xn8Hfqqm6/LLxFTzAAHBx1SsYNSNUU45Onjgpn84d3lFB/nGVOrbiPXGyJVkxCapdQ/Lne5Xvq33OwXzy+c6/i6DEhqp/5qd7RPIjGvuAo2np8/X8sHc068Zfa+Qf+inem69Sx6+8rZl6c+t3e9oKKir64Urmiuc9ptzjBfI5thISE07fFu9RvK0zwXBUYDoDAFSQahWMoIbNdF24tHb7Gm0+3lGdostfOLYU6XYr1PIrLydPfkXJzs9V7ilHdv1YuYMtWZKc4mIVO1J4Sa5y8v3SudeerXJfsGPVJm20pvc8rPX/eFbPZ87RjI+6aKI7WsFWsK4d/LpeSbvmouf1rnzeWvJEuRRk+fX1mdss71F5/Wf3jYgxmwEAKkq1CoblStK9qQ20IWOlXnq6SB8nNVBYYY6+yKmvgRPvV/N2Keoct1ZLMyfrxeK2Ctu9TLt8NdX61iR5og6rTqStHZ9m6vX5Zap34ANtKHCkyIvdm6PszAl6dpNLLZvEyvfVSflkKyQkWBHtUpRca4NWvDVGY3KSdW1EiXL35arh4HHq3zSoQuZt1MrW9aEb9ck7L2hS4S8UvneZsnz6/tTWpWZIq/ulVn+4VcXNUnT7DTE/9bcFwFWimj0xraEbfjtJEwZ2Ur3inVqSkaH3V2epuFaComzJiuygoROf1J0Ni7Rl0TtalROr5IFjNeruurLC2mrAsB5qEZmtVfPe1qrCJKV19Zy3wCivZoJHIQfX6/30dC3ea+n67kM1pHu87OiOenzSU+rZ3FbWsoVKf2+F9pR5lBh97sN55fPadVL1xOPd1SQsW/9ZvkWltwxSap2zx7cuMYP/8Dqlz52rt1Z+/pN8FwBcnSyXy+X06tNfU/78p0DPgmpg8owM3q0WqGSjX3pNk0Y8xLvVAgCqB4IBADBCMAAARqrVq6RQNXi93irzgS4AKg/BwGUZ/mBfud1uLnwDVyGCgcsW6FdqAAgMrmEAAIwQDACAEYIBADBCMAAARggGAMAIwQAAGCEYAAAjBAMAYIRgAACMEAwAgBGCAQAwQjAAAEYIBgDACMEAABghGAAAIwQDAGCEYAAAjBAMAIARggEAMMJneuOyTJ6REegRgKvS8Af7BnoEgoHLN2nEQ4EeAbiqeL1eud1ueb3egM7BKSkAqOKqysqeYAAAjBAMAIARggEAMFJ1g+EUaf+/XtXoh9LU865U9f7Vg3r6hfnaecIJ9GTnK9uuKf1vV0rK7Up7Ya2+H7Fskyb/8nalTlylkoAOCAA/XhUNhk9fLZqg4S+/px0ljXRrr566pYVLeQdOKLSmFejhLsEv76o5ytj7baAHAYAKVzVfVntqi9LnbVehK0m/f3m8usedjoTf55cdJEmOCvYs0vTpC7Tuv8fkj26kDr0e1rC+rRR1NFMjBk7V7g6jtGB8V4X7PtecR4Zp3rHbNDF9uNoXLNEfB/xVpfeP0k375uqfm0LU+6UnFLnob0pfv09ef4QSrr1RfR59UqmNg1WwJ1PTpy3Uun3HpNjr1HnAYxpyZ2OFX2DsiMZNFXNwnxb940OlvthTnnM3cAr0ycKpmvXRTn2RnS9fZEO1v3eYnuhzg1zHT8/1bb/H1CJrgT76JFeqk6T7htyhovdeV+a2Q/q2VlulDX9G/VpEyJJz0dlCs97QYyPnq+C28Zr7aLuf9FsF4OpRJVcYZQd2aFe+oxptuqlT3NkVhR10elzn+BpNGfuqlh50qX3Pe9S59tdaNXOcXlycK7MTVmXaNfs5pWfXU5fed6vpntn6+7Is2c1Tde8d7eUpKZYVGSwnf42mjJumZTlxSr6nlzrHH9FHr0zQ7F0XPsHkNOypQV3cKt7xtt78T8H5s1jhigqVajTqoNt79VCb8INaPfMvytjnO7NBqXa+PV2bwtvp5tZxKvzi35o6cpz+5Wupm39RV75DGzV31nIddXTJ2ezEZKXdP1D33drkMh95ALi4qrnCOHlCBbLkio1R6AVuLvp4pTbmW2pw3wg9M6ix7DyPcgdN1bala5TTPsTgDhzJ01Nj/zJErcKkwjXbFGY5KnXC1SRlgH4z1K1gSYUrV2qjV4pt20TxNcKkhvUV8+kubd18UL5WTRV0zlHLSkLV/nf91XL9NC2fvVD3tG4h+wdn0IKUcFMPdbd360j+Kfk9MbIO5ehwdpkUf3oL23OXHh/1sFoUNVH2r17WFldXDf2/R9VeG3Ry23it+DpbeT6p5raLz+Zv1VRdftn4Sh55ALioqhmMmhGqKUcnT5yUT+cO6agg/7hKHVvxnjjZkqyYBNWuIfnzvcr31T7nYD75fDpPUGJD1T9To4jkRzT2AUfT0ufr+WHvaNaNv9bIP/RTvDdfpY5feVsz9ebW7/a0FVRUdOGVjN8n1b1LD/R4X79f+K5mLa2jhHL9KtufrpFPzdRnReX3DpXjLzeXJ1F1giQr3KWIIMmOqyNPiCR/hFzhkvyOHDkquNzZAOBHqpLBCGrYTNeFS2u3r9Hm4x3VKbr803RLkW63Qi2/8nLy5FeU7Pxc5Z5yZNePlTvYkiXJKS5WsSOFl+QqJ98vnXut3Cr3BTtWbdJGa3rPw1r/j2f1fOYczfioiya6oxVsBevawa/rlbRrzM7fWWFqkTZInZc+p9XzMlT/+1j5lb15rbKKgtS4z/N64YFWOpX5tAb/fd8P9w8O/uHKxbbPG12yFBFzBbMBwI9QJYNhuZJ0b2oDbchYqZeeLtLHSQ0UVpijL3Lqa+DE+9W8XYo6x63V0szJerG4rcJ2L9MuX021vjVJnqjDqhNpa8enmXp9fpnqHfhAGwocKfJi9+YoO3OCnt3kUssmsfJ9dVI+2QoJCVZEuxQl19qgFW+N0ZicZF0bUaLcfblqOHic+jc994RUufmjO2tgWgtteO0THXB05rSapYjICAVZfnn3rNCCGYu1fWWW/NaV/ai/1Gxpdb/U6g+3qrhZim6/IeaKjg8A56qiT0xr6IbfTtKEgZ1Ur3inlmRk6P3VWSqulaAoW7IiO2joxCd1Z8MibVn0jlblxCp54FiNuruurLC2GjCsh1pEZmvVvLe1qjBJaV09F3iWflbNBI9CDq7X++npWrzX0vXdh2pI93jZ0R31+KSn1LO5raxlC5X+3grtKfMoMfp/PWy26vV4QHfVDSp3v5bctwzSoKRrVJa1XEu2+tT16cH6eeiVvUzYusRs/sPrlD53rt5a+fkVHRsALsRyuVxOrz79NeXPfwr0LKgGJs/I4N1qgUo2+qXXNGnEQ7xbLQCgeiAYAAAjBAMAYKRKvkoKVZvX660yH+gCoPIQDFyW4Q/2ldvt5sI3cBUiGLhsgX6lBoDA4BoGAMAIwQAAGCEYAAAjBAMAYIRgAACMEAwAgBGCAQAwQjAAAEYIBgDACMEAABghGAAAIwQDAGCEYAAAjBAMAIARggEAMEIwAABGCAYAwAjBAAAYIRgAACN8pjcuS+/BGwI9QqV6d2ZSoEcAqgxWGAAAIwQDAGCEYAAAjBAMAIARggEAMEIwAABGCAYAwAjBAAAYIRgAACMEAwBghGAgMKww3TW6u1bMbKUOYYb7BNfSUzPu0Gt9XJf+H9d0OwCXhb9PCAg7zqOUlpZKwhOU8nPe0gyoDggGAsBSYnKimn/9lTK2Sjd1qa1oK9AzAfhfeGqHyhfkUrebo5S35TMt3BeqXo8mqlPMEX3gLbeNFazrUpprWC+PmsfbKjyUp3feyJbfd86xTLcD8KMRDFS64CaJ6pZYqJV/Pa7jOUe0vuTn6p4UriWLT8kvSbKU0K2NJv8uRl8u3q3RGwrlxMXq7oHN1cYl5X5/JNPtAFQEgoFKZqvVzXWUcPCgVnzpSP5vtHxzqSbdXEeJH+7XV35JQZFKTY1XyM5PNGH2IR11JMmrXfk1NGd8/bOHMt0OQIXgGgYqV1gtpSSF6cDWb3TcFaroqCAd2HZUJxonqlu90xcyrIgoXV/XUdbHR3XMObtrSdZRfVp89vem2wGoGKwwUKlcbRPVKcZWVL+Oerdf+Vscdbs5Wm++kS9/eIhqWtLxE6VnTlGd4SvTiVNny2AZbgegYhAMVB4rVB271FboZ//VqPRjOlXupmu6tdYTyXV1wz/ztfNUmU45UkREsGyVnY2BbSs89Ow+juF2ACoGp6RQaWy3RymtpS3LvtTGT77R9nK/PvzgiLJjPereMkhO4XHtzbHU9Ge1fvBy25AGsWpW8+wXTLcDUDEIBiqJJU/HRLUuy9PSLd/q3BNGZfuPaMWhUCV3iVOE76SWLP5Gzi+aacx9iWrXzK22SY018uG6ii4pt6fpdgAqBMFA5bAj1LVLtIq2HNbmwgvc7i/Q8tUnFNEuUUmRjo78a5uemZWn0OQWemHijRrTz61Db23VrKzyITDdDkBFsFwul9OrT39N+fOfAj0LqoHegzcEeoRK9e7MpECPAFQZrDAAAEYIBgDACMEAABghGAAAIwQDAGCEYAAAjBAMAIARggEAMEIwAABGeLdaXBb+5TNw9WKFAQAwQjAAAEYIBgDACMEAABghGAAAIwQDAGCEYAAAjNiWZQV6BgBANcAKAwBghGAAAIwQDACAEYIBADBCMAAARggGAMAIwQAAGCEYAAAjBAMAYIRgAACMEAwAgBHeSwoAYIQVBgDACMEAABghGAAAI/8POMNGmUDttcsAAAAASUVORK5CYII=;" parent="1" vertex="1">
          <mxGeometry x="1170" y="680" width="235.71" height="100" as="geometry" />
        </mxCell>
        <mxCell id="kUMYeLrfrgq7O8A4BPYU-52" style="edgeStyle=orthogonalEdgeStyle;rounded=0;orthogonalLoop=1;jettySize=auto;html=1;entryX=0.472;entryY=0;entryDx=0;entryDy=0;entryPerimeter=0;" parent="1" source="kUMYeLrfrgq7O8A4BPYU-45" edge="1">
          <mxGeometry relative="1" as="geometry">
            <mxPoint x="1144.96" y="800" as="targetPoint" />
          </mxGeometry>
        </mxCell>
        <mxCell id="kUMYeLrfrgq7O8A4BPYU-53" value="Pressing add" style="edgeLabel;html=1;align=center;verticalAlign=middle;resizable=0;points=[];" parent="kUMYeLrfrgq7O8A4BPYU-52" vertex="1" connectable="0">
          <mxGeometry x="-0.3425" y="1" relative="1" as="geometry">
            <mxPoint as="offset" />
          </mxGeometry>
        </mxCell>
        <mxCell id="kUMYeLrfrgq7O8A4BPYU-60" style="edgeStyle=orthogonalEdgeStyle;rounded=0;orthogonalLoop=1;jettySize=auto;html=1;entryX=0.75;entryY=1;entryDx=0;entryDy=0;" parent="1" target="kUMYeLrfrgq7O8A4BPYU-15" edge="1">
          <mxGeometry relative="1" as="geometry">
            <mxPoint x="1135" y="810" as="sourcePoint" />
            <mxPoint x="1035" y="430" as="targetPoint" />
            <Array as="points">
              <mxPoint x="1135" y="811" />
              <mxPoint x="1030" y="811" />
              <mxPoint x="1030" y="460" />
              <mxPoint x="1073" y="460" />
            </Array>
          </mxGeometry>
        </mxCell>
        <mxCell id="kUMYeLrfrgq7O8A4BPYU-61" value="&lt;div&gt;If valid&lt;/div&gt;" style="edgeLabel;html=1;align=center;verticalAlign=middle;resizable=0;points=[];" parent="kUMYeLrfrgq7O8A4BPYU-60" vertex="1" connectable="0">
          <mxGeometry x="-0.0175" y="3" relative="1" as="geometry">
            <mxPoint x="3" y="81" as="offset" />
          </mxGeometry>
        </mxCell>
        <mxCell id="kUMYeLrfrgq7O8A4BPYU-54" value="" style="ellipse;whiteSpace=wrap;html=1;aspect=fixed;fillColor=#60a917;fontColor=#ffffff;strokeColor=#2D7600;" parent="1" vertex="1">
          <mxGeometry x="1135" y="800" width="20" height="20" as="geometry" />
        </mxCell>
        <mxCell id="kUMYeLrfrgq7O8A4BPYU-67" value="" style="edgeStyle=orthogonalEdgeStyle;rounded=0;orthogonalLoop=1;jettySize=auto;html=1;" parent="1" source="kUMYeLrfrgq7O8A4BPYU-54" target="kUMYeLrfrgq7O8A4BPYU-66" edge="1">
          <mxGeometry relative="1" as="geometry">
            <mxPoint x="1145" y="950" as="targetPoint" />
            <mxPoint x="1145" y="820" as="sourcePoint" />
          </mxGeometry>
        </mxCell>
        <mxCell id="kUMYeLrfrgq7O8A4BPYU-68" value="Invalid" style="edgeLabel;html=1;align=center;verticalAlign=middle;resizable=0;points=[];" parent="kUMYeLrfrgq7O8A4BPYU-67" vertex="1" connectable="0">
          <mxGeometry x="-0.2448" relative="1" as="geometry">
            <mxPoint as="offset" />
          </mxGeometry>
        </mxCell>
        <mxCell id="kUMYeLrfrgq7O8A4BPYU-70" style="edgeStyle=orthogonalEdgeStyle;rounded=0;orthogonalLoop=1;jettySize=auto;html=1;exitX=1;exitY=0.5;exitDx=0;exitDy=0;entryX=0;entryY=0.5;entryDx=0;entryDy=0;" parent="1" source="kUMYeLrfrgq7O8A4BPYU-66" target="kUMYeLrfrgq7O8A4BPYU-65" edge="1">
          <mxGeometry relative="1" as="geometry" />
        </mxCell>
        <mxCell id="a5B9X3Do3ak_Rsppw4Uo-6" style="edgeStyle=orthogonalEdgeStyle;rounded=0;orthogonalLoop=1;jettySize=auto;html=1;exitX=0.5;exitY=1;exitDx=0;exitDy=0;entryX=0.5;entryY=0;entryDx=0;entryDy=0;" edge="1" parent="1" source="kUMYeLrfrgq7O8A4BPYU-66" target="kUMYeLrfrgq7O8A4BPYU-64">
          <mxGeometry relative="1" as="geometry" />
        </mxCell>
        <mxCell id="kUMYeLrfrgq7O8A4BPYU-66" value="" style="ellipse;whiteSpace=wrap;html=1;aspect=fixed;fillColor=#60a917;fontColor=#ffffff;strokeColor=#2D7600;" parent="1" vertex="1">
          <mxGeometry x="1135" y="915" width="20" height="20" as="geometry" />
        </mxCell>
        <mxCell id="kUMYeLrfrgq7O8A4BPYU-71" value="" style="shape=image;verticalLabelPosition=bottom;labelBackgroundColor=default;verticalAlign=top;aspect=fixed;imageAspect=0;image=data:image/png,iVBORw0KGgoAAAANSUhEUgAAAQUAAABdCAYAAACsPHO/AAAACXBIWXMAAA7EAAAOxAGVKw4bAAAQh0lEQVR4nO3deXgUdZ7H8Xf1naQ7CRAgCQINSkAOQZAjIE4QDQIKwoq6UcF1HUZAEcdjhnU8WMVz3FkZxwsZAccogq4cHiRIgEDCcilyGhDDnRAkMRdJurpq/oAOKZNOOgcEer6v56mHPFW/7voW3f2p36+qulq5+9779V279yCEEACm5i5ACHFxkVAQQhhIKAghDCwA33y9vLnrEEJcJKSnIIQwkFAQQhhIKAghDCQUhBAGEgpCCAMJBSGEgYSCEMJAQkEIYSChIIQwsDT1Ex47VsC2bQc5dqyAAwdOGJZ17hxFTEwLrr66A7GxkSiKAlD5rxCi+TVZKOzadZQVK7ajqibcbjc9egzkuutaYbPZACgqKqK4uJjs7GwWLNiExeJl5MhedO8ei8lkQlEUCQchLgKNDoXTpz0sWbKZffvyGDx4MHFxcTW2c7lcuFwuYmJiiI+PJysriyVLMujc+SDjxvUlLMwu4SDERaBRxxROn/Ywd+4aSkqsJCUl+Q2EmsTFxZGUlERZmYN589IpLCxFVVU0TUPX9caUJYRohAaHgi8QnM42JCYmVg4TfLp3rz5ddpnxOWw2G4mJiURGxjB//gYJBiEuAg0ePixZshmbLZKEhAS/bWbMeLfy765dO3PXXTfU2C4hIYGUlBQ+//xbbr+935nCLJbK4YQQ4sJpUE9h584j7NuXV2sg1FdCQgKHDhWyc+cRysvLpccgRDNpUE/hiy++Z/DgwdWGDL/WtWvnyr/btYuqta3NZmPw4MGkpWXSpUtrw0FH6S0IceHUOxSOHs1HVU0BHVScMsU4XMjPr719XFwcW7du5fDhn+nY8UwwyBkJIS6seofCtm0HcbvdAbWtekyhT58rGTt2aJ2Pcbvd7NqVQ3R0OBaLBbPZLMcWhLiA6nVMQdd1jh/PDzgUqmrZ0hVQO7fbzcmTpZSXl+PxePB6vXJsIQDascVMH5nILS+sx9OA5Zeiip9W8MIDd3DzyJGMvedV1v1S+3tEL/iKmaNuZNSTX1NH039p9e4pHDhwkoEDnQ1amSeAd2OrVq3IzS3B4/EYQsFsNjdonQZ6KQdS5zNvyVp2HCnGHBFDp96J3Dt1AleFX5w9Ee3wIh6ePI+9Xht9HnyfV8a05uKs9EIrZdNH81jzE1wxbCw923TlCpf8zzSFeoWCb2/tcgW2128I38FLVVUrJ5vNhq7rjRxCeDm8bBaPvfktFdF9GX5rJ0y5e9iSXYgt9GJ9M2kc3ZDOfs1JhLOE3emZ5N0yhjY1lKsoSq3dvrqWX3L0IvJOlqFb+vNv0x9geGhzFxQ8GhQKF4LX6zWclmz0uk9vYVHyd5Q443n0tWdJjDrzydK8GiYzgE7x3mW8/fYSNuw7hRbRiYG3/o5pE3oRfnIpj098gz0DZ7Lk2esJ8f7IggemkXzqBp5b9Bj9i7/iv5L+iueemQzav5CPN1kZ9+rDuJb9jUUZ+8nXwmh7xQBue3AGoztbKN67lLff+pQN+09ByziGJj3ElJGdCfl1zdoR1qf/iN5uDLddlc77qevIzLuFsW0UwMORb97g5XdXc8DTmr439UQzPLiu5efopftY/sZfq9U6yvVlrds9wKJTtHcZ777zGRn7TlBub0PXMY8ye1IvPH7mq3623eGvhujs6vOn/ZZ2a2eTvMcLaiYvjR3B/PGv8ffbfmRmba9T495B/zIatPOoqKho6joqFRUVAaBpmmFqLDV7OzsKdBx9hnNt1Lldrcl85r9A/yWdOU+/SeohJ/3HjGVomxOsnfcML3+ZS2BxpLJj/gssOt6e34y7hS575/POqixMV45m/E39iS4vQ3FZ0AvSmfPMW6zKiWLI2FsZ2voYK1+fxfwd5dWeUTuygfQDGi37xjN6UB9c6h7SM06gA3ruV8x5/St+OB1N/xsGELZ9Az+o5x5b1/IqLSlY+/caa62Lnr+OOc+8ScoBG1eNGsdNfdsSHR2Dzd98v9te5qcGs9/aHLHduaKFAuYODP33exh/TRuaYIApaEBPoWPHVvz888/ExMScl4KKi4uJinJU6x00uqdQVEgxCs6WkdR0dUXptjQ2Fih0vOtx/jCpM6a8aHInvcG3qenk9LcGsAIdosfw9F+m0MsOJenfYld0PHoIl9+YxL1TW2ABStLS2JgPLfteTmuHHdwdiNy1g62bD+Ht1aXKG1vj8Pp0ftLCGd7/Spw9f6FP6Coy1mVwYuw4wnZsYXeZiQ53PsFT93VByXZxcMoCjpx9dEkdy89RsDldNdaq59W+xaXfprExX6HjXX/kT5Mur6y9ZLWf+Wlv+tn2w9zVpeYaSvzUxoix9Pt6KVt+6cDQpLsZ5qi7XhGYevcUoqPDyc7OPg+lnJGdnU1ERCAfwnoKDSMUnZLCIrzVFuoUF/yCRzfROjoKE6BEtqWNA7SCfAqqPcCLt/qTYG7npsPZxAkb8gBP33cdEVmf8OK0e7jvTx+zs1ijOL8Aj66Rt3Up//jgA/6x/DtOaTqlpaXGHol2iPXpP6Fi5mja28yZu4ETVgV1bzoZJzRKCovx6ibatmuLCTC1jqZ15aup17HcqOZaawrhqtutU1xQiKqbiY5tWyXMaplfy7aH+qkh8NpqUvPrJGpXr1BQFIXevS8776HQoUNYtQuWGnudgtndjbgQOP1dOpurnY9ScLVogU3RyMvJQwP0glxyT+uYIlvSwqKgAHpZGWU6UJ5LTkENQ5qqNZpa0ueOJ3n7w3k8M7Y9pzYt4L2VuYRGRmBRLHS7/31WpqaSmppKaupKkh/sbei2aYfWsz5bBe1ndn6zghVfpLEnX0NX95K+IZdQlxOzonHibL1a/knyq5QUVsdygxprzUFXat/usHAnZsXLiZwT545X6P7mK4TVtu3+avA3v6btqKNeEZh6n5KMjY3EZPKQlZVVr69KAzgctS/PyspCVUtp2bJV5dWMvqmxFGc840d3JHNxGq/+vpRt8R2xl+TwU04HJj53D1f2u5GhUetJXfpnXi7ri33PKnZ4Q7lqWDzR4UeJcZnYvmspcz9RaZ/9BZnFOvg9CaNzfOksnt/kpOflLfEeLsKLCavVQli/GxnSKpPVHz7FUzlDuCKsnNz9ubj/8xnu7OLbr2ocXL+ebK+NPg/NrzwNqR3+iIcmv8/e9EyKHr+arraN7PzsJWaXXEPID6vI8nJ2aKQQ1rO25YHVqrhiatluhbCrBtAzZCPbFr/ArMJBtKs4xH7XeGaP8TN/gr9tf5rf7H6+hhrMHF/6LLNrqA2qHyCpvd4aXqWSA6z7eitl3W4ksUeknOo9q949BUVRGD68KxkZGfU64Hj06Mlal1dUVJCRkUGvXpGYTCbMZrPhm5KNv6LRQY//mM2sidfSvux7vlq8mOXrsihr1ZZwEyiugUx9bgYj3aVsWfYZa3NaMmTi08y8JRbF3pekaTfT3XWctckfsbYknjuuj671TRTaNhrroQyWL1rElz8odE2cypTE1pgiBjN99iOMudJE1qpPWfT5avaq0bSLqPJSaAfZsP4gXnMc8QOiKtdjajeI+I5m1B/WkamM4uHpiVxuP87/f7MFT8IkRsecew4lZnStywOpta7tVtqM5NGZdzKwbSFbly9hWcYJWrRvhdnf/Fq23V8NYf5qq2lD6vk6aUc3sGjhQj5M+5Hzd+j80qPcfe/9+pz/eSWgxrqu4/F4KC8v5+OPN+P1ukhMTKyxbffu1ecVFsKR6ke6AEhJSaGsLIf4+DbYbDbCwsJwuVw4nU7sdjtWq1UudRbiAqh3v9y3Fx85sjtFRbmsWbOmxna7d1ef/AXCmjVrOHXqGH37tsJsNmO1Wisn33cfhBAXRr2HD75QcLlCuO223pw8eZiUlJQGXbtQUVFBSkoKOTnZDBkShcNhwWKxYLPZKnsH8oUoIS6seu+CFUWp3JuHh4cyblwPNO0UycnJZGVlBfw8WVlZJCcnU1aWUxkIVqsVu92Ow+EwhIIEghAXTr3PPvh6CxaLBbvdTmSkk1GjurJ3bw6bNqWzdetW3G43brcbp9NZ+T2Jqrd4z87ORlVL6d07gtjY0MqQsdvthISEEBISgt1ul1uyCdEMGnTnpaq9Bd93E7p1i6Zjxwhyc4vYv/8gmZn7OHmyzPC4Vq1shIdb6dfPSUREhOEsgy8QQkNDpZcgRDNqcCj4egu/nhcbayYqKhSPx+P3uwtVrz+wWq3YbDYcDkdlD0F6CUI0nwbfzfnXweD7kFsslsobpKiqWu0mKVUPVlos544j+Car1SqBIEQzatQvRFUNhqp/22y2ylD49V2Zq7bzhYJvktuvCdH8Gv2zcb4PedUegNVqNdwPwd/wwRcCvklu0ipE82uSH5iteit2XzBomlZ5x6SaQqFqewkDIS4eTfpT9FXDwWw2G+6JUHX4ULVt1XlCiObXpKHgIx92IS5d8qUCIYSBhIIQwkBCQQhhIKEghDCQUBBCGEgoCCEMJBSEEAbn5ToFceH8+b3FzV1CrR67f0JzlyDqSXoKQggD6SkEiem/ndjcJRjMmbuwuUsQDSShECQsZrmkXDQNCYUgYTHLSFA0DQmFICE9BdFUJBSChFV6CqKJSCgECekpiKYiuxchhIGEQpBQvXpgkyef7Z+8yLTbbyJh8CCuHXYzdz/yOl/uK8Xja1O2mZdGDmTQ2L+wrVxH9ZaTtXAy1w8cwh2vbaFArXs94tIlw4cg4fFqdTfCw74FjzB97m702AHcMKEroae+Y/U3H/LfO7Mpe+8VRsaYwKtx5tl0VK/GLzve4dl3t+PtPpknJ1+NXdPwnN/NEc1IQiFIBLR3LllP8sd7KHcO4bE5LzOitQnwMKLDFB6Ym8EHS3YxbGpPLF7OhIKuo55MZ85zyRxwDOThJ++mk0VH9Z7njRHNSoYPQUL1anVOZfu3s6dYx9prGANb+B5jJnbIUDqZNXJ3fs9xz5m2mg5oeaz+35dYmRNFwu9nMiJaCWg9akC9FnGxkp5CkAikp6AWFlGCgj08HIumo56drzsjcSmgFxdSqOq01nV0QM9LY8UJDU2JweGwoXp15BxH8JOeQpDweLU6JzXURSg6ZQUFFKnn5lfk51OogxLqxK5reLz6meGD1U1C0mjc5hxS3vqA3aV1r8M3iUuXhEKQCOTMg96+J12cCp6daWTmec/O93BofTrZXhNR3XoQqZ1pqwFKi2u4/o4HmXRTLPrBT3nv/w5QHuBZDnHpkuFDkFC1APbOjgGMHteNLQszee8PT7A3Pg5H/vdkrtuDGhHPraO7omsaqqafOaag63g1B93unMygDbPI+ORvrLr2JYa3lX1JMJNXN0h4NT2AyUL78S/wx9/dTBfzfjYs/YiVG3Nw9Z3A1OefZGhrpbLt2d/1QtN0NNe13J50DaGlW1k8fw2nvHWvS1y6pKcQJLwBd9lddBoxgydGzPD/HEofJs5L5cwdGnS8Xmgx/EXeGn62oaYjZyWDl4RCkFBl7yyaiIRCkPAGckxBiABIKAQJGceLpiKhECTkNKBoKhIKQUKGD6KpSCgECRk+iKYioRAkVn6xtLlLEEFCLl4SQhhIT+ESJz/LJpqa9BSEEAYSCkIIAwkFIYSBhIIQwkBCQQhhIKEghDCQUBBCGEgoCCEMJBSEEAYSCkIIAwkFIYTBPwGZSa4uN+f81wAAAABJRU5ErkJggg==;" parent="1" vertex="1">
          <mxGeometry x="991.1500000000001" y="820" width="120.67" height="43" as="geometry" />
        </mxCell>
        <mxCell id="kUMYeLrfrgq7O8A4BPYU-75" value="Pressing back button" style="rounded=0;whiteSpace=wrap;html=1;fillColor=#60a917;fontColor=#ffffff;strokeColor=#2D7600;" parent="1" vertex="1">
          <mxGeometry x="150" y="330" width="120" height="40" as="geometry" />
        </mxCell>
        <mxCell id="kUMYeLrfrgq7O8A4BPYU-79" value="Pressing back button" style="rounded=0;whiteSpace=wrap;html=1;fillColor=#60a917;fontColor=#ffffff;strokeColor=#2D7600;" parent="1" vertex="1">
          <mxGeometry x="1190" y="485.58000000000004" width="120" height="42.95" as="geometry" />
        </mxCell>
        <mxCell id="kUMYeLrfrgq7O8A4BPYU-91" value="" style="rounded=0;whiteSpace=wrap;html=1;fillColor=#a20025;fontColor=#ffffff;strokeColor=#6F0000;" parent="1" vertex="1">
          <mxGeometry x="360" y="720" width="120" height="60" as="geometry" />
        </mxCell>
        <mxCell id="kUMYeLrfrgq7O8A4BPYU-97" style="edgeStyle=orthogonalEdgeStyle;rounded=0;orthogonalLoop=1;jettySize=auto;html=1;exitX=0.5;exitY=1;exitDx=0;exitDy=0;entryX=0.5;entryY=0;entryDx=0;entryDy=0;" parent="1" source="kUMYeLrfrgq7O8A4BPYU-94" target="kUMYeLrfrgq7O8A4BPYU-96" edge="1">
          <mxGeometry relative="1" as="geometry" />
        </mxCell>
        <mxCell id="kUMYeLrfrgq7O8A4BPYU-94" value="get all material of that course" style="rounded=0;whiteSpace=wrap;html=1;fillColor=#60a917;fontColor=#ffffff;strokeColor=#2D7600;" parent="1" vertex="1">
          <mxGeometry x="700" y="830" width="120" height="60" as="geometry" />
        </mxCell>
        <mxCell id="ggRZYZTkxGHFuDkCwDY1-5" style="edgeStyle=orthogonalEdgeStyle;rounded=0;orthogonalLoop=1;jettySize=auto;html=1;exitX=0.5;exitY=1;exitDx=0;exitDy=0;entryX=0.5;entryY=0;entryDx=0;entryDy=0;" parent="1" source="kUMYeLrfrgq7O8A4BPYU-96" target="ggRZYZTkxGHFuDkCwDY1-1" edge="1">
          <mxGeometry relative="1" as="geometry" />
        </mxCell>
        <mxCell id="kUMYeLrfrgq7O8A4BPYU-96" value="Create material with the coursename and Arraylist material(name + link&lt;span style=&quot;background-color: initial;&quot;&gt;)&lt;/span&gt;" style="rounded=0;whiteSpace=wrap;html=1;fillColor=#60a917;fontColor=#ffffff;strokeColor=#2D7600;" parent="1" vertex="1">
          <mxGeometry x="650" y="950" width="170" height="70" as="geometry" />
        </mxCell>
        <mxCell id="ggRZYZTkxGHFuDkCwDY1-8" style="edgeStyle=orthogonalEdgeStyle;rounded=0;orthogonalLoop=1;jettySize=auto;html=1;exitX=0.29;exitY=0.995;exitDx=0;exitDy=0;entryX=0.5;entryY=0;entryDx=0;entryDy=0;exitPerimeter=0;" parent="1" source="ggRZYZTkxGHFuDkCwDY1-1" target="ggRZYZTkxGHFuDkCwDY1-7" edge="1">
          <mxGeometry relative="1" as="geometry">
            <mxPoint x="725" y="1245" as="sourcePoint" />
            <mxPoint x="530" y="1275" as="targetPoint" />
          </mxGeometry>
        </mxCell>
        <mxCell id="ggRZYZTkxGHFuDkCwDY1-9" value="Clicks a course" style="edgeLabel;html=1;align=center;verticalAlign=middle;resizable=0;points=[];" parent="ggRZYZTkxGHFuDkCwDY1-8" vertex="1" connectable="0">
          <mxGeometry x="-0.0704" y="1" relative="1" as="geometry">
            <mxPoint as="offset" />
          </mxGeometry>
        </mxCell>
        <mxCell id="ggRZYZTkxGHFuDkCwDY1-14" style="edgeStyle=orthogonalEdgeStyle;rounded=0;orthogonalLoop=1;jettySize=auto;html=1;exitX=0.75;exitY=1;exitDx=0;exitDy=0;entryX=0.5;entryY=0;entryDx=0;entryDy=0;" parent="1" source="ggRZYZTkxGHFuDkCwDY1-1" target="ggRZYZTkxGHFuDkCwDY1-13" edge="1">
          <mxGeometry relative="1" as="geometry" />
        </mxCell>
        <mxCell id="ggRZYZTkxGHFuDkCwDY1-20" value="Clicks Add course" style="edgeLabel;html=1;align=center;verticalAlign=middle;resizable=0;points=[];" parent="ggRZYZTkxGHFuDkCwDY1-14" vertex="1" connectable="0">
          <mxGeometry x="-0.0121" relative="1" as="geometry">
            <mxPoint as="offset" />
          </mxGeometry>
        </mxCell>
        <mxCell id="ggRZYZTkxGHFuDkCwDY1-1" value="Creates a instance of MaterialWindow" style="rounded=0;whiteSpace=wrap;html=1;fillColor=#60a917;fontColor=#ffffff;strokeColor=#2D7600;" parent="1" vertex="1">
          <mxGeometry x="675" y="1170" width="120" height="60" as="geometry" />
        </mxCell>
        <mxCell id="ggRZYZTkxGHFuDkCwDY1-16" style="edgeStyle=orthogonalEdgeStyle;rounded=0;orthogonalLoop=1;jettySize=auto;html=1;exitX=1;exitY=0.5;exitDx=0;exitDy=0;entryX=0.75;entryY=1;entryDx=0;entryDy=0;" parent="1" source="kUMYeLrfrgq7O8A4BPYU-65" target="kUMYeLrfrgq7O8A4BPYU-15" edge="1">
          <mxGeometry relative="1" as="geometry">
            <Array as="points" />
            <mxPoint x="1200" y="450" as="targetPoint" />
          </mxGeometry>
        </mxCell>
        <mxCell id="ggRZYZTkxGHFuDkCwDY1-4" value="" style="shape=image;verticalLabelPosition=bottom;labelBackgroundColor=default;verticalAlign=top;aspect=fixed;imageAspect=0;image=data:image/png,iVBORw0KGgoAAAANSUhEUgAAAlgAAAFyCAYAAAApuaQRAAAACXBIWXMAAA7EAAAOxAGVKw4bAAAgAElEQVR4nOzdd3QUVRvA4d/sppNCKiGEQALSO6ElJCK9qIiKICq2D7uAUhQQxYZdEVFBlCaKiCIdFCnSpPdeElJIISEJIT27M98fqYRNdhM2oPg+5+Qc2MzOvHPnzr3v3Ht3oyxevFgzGo2s+WMjx46fQAghhBBCXB8bTdPQNA2ADetW3uRwhBBCCCH+/XSqqqKq6s2OQwghhBDilqErGr0SQgghhBDWodM0TUawhBBCCCGsSHezAxBCCCGEuNXoVFVFpgmFEEIIIaxHV/pThEIIIYQQ4vrpAFmDJYQQQghhRTKCJYQQQghhZfI1DUIIIYQQViZf0yCEEEIIYWUyRSiEEEIIYWU6QBIsIYQQQggr0sn0oBBCCCGEdckUoRBCCCGElckUoRBCCCGElUmCJYQQQghhZZJgCSGEEEJYmXzRqBBVoF05wLxxwxk0YACDho9j7v4rWONOqq79WkqNW8LIfr3o1asXvXr1Y9QvcTf0+DfCzS7jfyIpEyGsz0YSLPGfYjzH/GeeZ+F541UvKzo9tvY1cPP2o36jlgSHdqd754bUtClnN+f/5s/D8WSoQPxh1u+I4JF2rSlnc8vDq6b9VqsyZWrT/GnmfHY/tZWbHFc5bkgZW6me3Sj/ynonxD+cJFhCAJpqJC87naTodJKiT7Lnz1+YV7crD41+kcGt3Avm0kuxaTyAx++5yJrjl8CzGf3vamqVzsj8fjWS9i3j92NXwKMNdw5oRc1/aCLzT1Vd184Sla1nN8rNLBMhblU2IGuwxH+X4uBF3Tpu2GIkLyOVi0np5KoaoJEds5XvXo0g+tWPGBPufXXnZ1ePHs9OoYe1AzK3X+M5Vs+cxQ/njdg00BHaXxKsSquua1eBKtezG+UmlIkQtzoZwRL/afoG9/FOqeksw+Vz7Ph1Nl8v2U+yQUPLv8D6Tz+gYeAHDKqrv7nBAnlHf2dDtNH8huIf5d9Wz4QQ109GgYUoxcatAeFPvEOg+0RGzTzAFRW0zCP89OMueo0Pwbmwg1TjljD6yW84YQCwodnT3zHtfj9KBpMMXDq8koWL1rHr5AXSDPZ41mtJ2N0PM6xHDX4f8wQzjxlAcaL7G78wIdTWzH5zidu5hFkz15JY+McXDOfm81Sf+YXH09Ng+Fd8+UgQegAtg6g9m9m4dTeHTpwlJukyWXkKdi6e1GnYki69BjGoW4Pi87mpchPZ//sy1vy1l+PnE0nLysemhjd1G7ela99B3N21PjVMxmntMi4l5wK71yzn920HOHE+ntTMfBR7F7z8G9K8XQjd+/UiuI4jVS0+S+tZES0rhr9XLmXttv2cjE4iI98GJ/faNGjZiV6D7qN7YzeuTss0sqJ3sGrZH+w4dJroxDSyjHrsXTypU78xrTqG0bNXCA3d9BaWyfWWtYJd+1F8/14v8vetYMmKzew+Hk1ypoqjVwBNOvbmgWF30tpTuiRx65ApQiGuYUPdOx+lz/JD/HJBBVRSd25kf1YI4TUseb+R+D/fY9wnW0k0FN1buSSc2s6Sj/ey78Rd1L5QmT9RpZG0egrPfr6XLItu1XyOfvMC4369gKHM9obUOM7siePM3g38sWMsH03oge/NWvgDGOI2M33KZ6yLzLrqU2v5l+M5vTue03vWs6rzCKZMGMRtjqXfae0yLnXsmD/4+PXpbIrNvfqTdNmXiT+zj/hzp8lr0I3gOo7l7cJCltUzw4X1fDTpczZdKB1PPukXIziwIYKDf61n05Nv8tp9jXBSADQu7/mSl99cQXRu6TMwkJUax5nUOM4c2MzaI6+wYEoP3MxmidYoa438k7tY/dN2VszbS5pa6kwSzrB7xVn2/X2EcZ+9Ro9a/4SsX4jrJ1/TIIQpto0JblOzeD2MlnWGE1EGi96qJf3Bl19tK9UZKdi6+hJQtxYu+jwiVv3C9rRKdv727vgH1cPbsSQbUuw9qNugAQ0aNKBBgyDquNsXjjjY0qRXTwL1Bf9TdHa4eNchoI4HDrrCzkszkLDla+Zsu4kfx889zrwpH5ZKrhRsnL2pG+CHu4Ou4Fy0fC7unMkbn28ltVSg1VLGANlHmfvWtFLJlYLO0YM6dWvj7mSDooDOoyt9u7hWefTqKubqWe4JFrw1rSS5UnTYu/lRL8AXN7uCMtIMyeyd/Tbf7M0o2EaN44+Fq4kpSq4UG2p41yXAzwMnG6Ugbp07Yf26WJBcWa+stcy/WTBnD2magn1NPwLqeuOkLwpAw5i0je9+2k+u+ZCE+FeQ8VghTNLh61cLHSmoANolkpKNmL9lVGL+XMW+jMIOR7EhYMDrvP98F7xtwJCyn7mT32DJ6ZxKJDYK3j3H82WPZFaMf4QvDhbsW+9/F5O/ephAEyNQNoH38OzztsT5dqJT63rUtFUAjStHvmXcK0s4l6+BeoX9e09iDO9wExoCjeQN37PifH5h4mBDQP/XmPp8KLVsQcs8w9KpE/lmdxqqppK0eS6/DOzCiKY2VE8ZF8SUtHEhq6Lyi5MZn7DRvDu2L/UdFSCf1IiD7L9Um7YO1iqHiuqZRsqmH1gemVcQj86Nto+/zWsPNMVVB+rlo3z/xiR+OJaFpiby55KNPBR8N97qJS4mq8UJon2H0cx/p09BMmXMJP7kHrbvy6NdsJMF8Vm5rHUedHnuPV69OwgnRSPr5Pe8Om4hJ3I0QCXl0CGijO1pJMvQxC1ARrCEMEnBzsG+5L+aRn6+BYvLtXSOHT6PsWjwwLETwx7vjHdhBmPj0Y7hj92Be3VPyynOtLxzCH2C6xcmVwAKLs3CCK5VdHCV7LT0mzNioKWz/+8j5BSVk1NnHn4yhFq2hf+vcRuDRgwksCjzM15g29YzGArfWy1lrF3h4K6jJTHZt+fh54uSKwBb3IM60KODvxUT0grqmZbJgZ2HyS6MR+fbi0fvL0iuAHRuLRg6LKzw/xp5Jw5wNBvQ16KOr03hCJtG3tGlzFq2j7hsDfQ1qN28G/cP702QJSdh5bK2aXgP/7srqHAqU8Gp8UD6t7ItHg3ULqdwWbokcYuQNVhCmKSRk5Vd8l/FBgcHC3okNZG4RGPx07w+oCmNyqxYtgu6jXr6taRUbYmQRYypJ9m0ag1b9p0g4sJF0jLzMKgqmgZcdb+rN2eKUI0n+oKhpJzqNuG2MivZdf5NaOSs41xawfqkpKhosrSmuFZXGasJxMSWjqklzav9OzAqqGdqPFGxecXxqHG/MLrfL+XvyZDMxRQV/H3o+fBdrJm8lMhcDS0rgvVfTWDDAn/ad+/PXXf3pXM9Z8umOK1a1jo8m7fAr3QyptTA08MRhYLz1IzG4mROiH87mSIUwqR8YqPiKB6z0vlQ28eCeQstl5xSC4sVxxqFT+slFKdrX7OmvMjfeOOVmexLvUnJkyW0XHJyri4nx2vKxJEajkBa4Vuys8gGXKurjLVsskrH5OxczqcXramCeqZlk2XZpxoKGTAYABSc2z7Np5835Mc5C1m9N44sVUPNiGHPilnsXb2Ihr2fYvxzfahvbqrTqmWto6ZHzWu+50uRNe3iFmWjaZqMYAlRVtYBtu/PLE5QdK5NaR5gQYKl2GNvX9JjaNmZBVM8pToRLT+f/Oq65bRLbPh2bnFypei96fToSB7v1ZK6Hk7YameY89RIFt3s79JSnHAq1StrWRlkaeB5VWebRWZWqbc4OuIA1VjGdtjZltpHdpaJmKysonqm2OPgUHJwnZMPAbVdKLcW6vxxtyv6j4Jzg5489W53hkXv5c9Vy1nx+15is1Q0Yzpn1n3GZJ0nM0cFV5xEWrms9TZ663w4QIh/ARnBEqIsLYPD389hY2rRnIcOn/DutLKv8F2Fm3pT20eHElMwrWKMPsHpDA1/15JuxRhzntgq5TeK+c7JGMHxUyUf59e3HMqooZ3xKnpjbhop6f+AByp9bQID7FGiCj5BaIw5yekrGnVLfazNGH2CUxkl18AroG5BMlBdZaz3wtdHB3Fq4fGPcSJdo251TROaq2e62tTzty0+T8WnJ+NnPM5tlWq1dTgHdOSe5zpy17AjzJ88kZ9O5qBpRi5u+4vjLwTToaL9VWt9FuLWdhO/AUeIfxojGTF7+e2jsUxeGln8VK5z68wjQ1pjSX6FUpPmLQKKRxm07F0s/G4HSYWfvNcyTvLrgvUkVGn9ld1VowlqcgQRacUrdMjOKliuXjod0NLiSShcJa3lxrFt9lz+ulyNi78sVoN2Ye1xLmyBtOxd/PDdNhLzC/+feYbfZq+g+G8l63zo3OW2gifC6ipjxZOWresVP3Vq2bv5/qs/iCpaZY5GTuIhVs36irVR11OGFtYzxYX2oW2Kp9+M0cuYPnsbMWWmDY2Z8RzfvpYtZwrXchnPs27WtyzbcpSYy/klybabP0G+DiULyvNyyTV3GtVan4W4tckid/GfZjz3K689+ye2xjwy05JJupx91SJbxbEhgya8TC9vS0cxdNTr2Z+WS2ZwIEsDzUDMmjd5dFst/NwV0hISSc+t4tooxYmAej7odl1ABdTL2/joyeH8UseZ3JQELrcaz0+vNKBBoA3KwYJFw8bzvzL2wc34eTuQeTGO1GwNnY0exWCstvVZxpPzeGbQQpOjbTatnuabN/vhoSi4hQ3nwRX7mH00C00zELP2bR7b4kVtLzsyE+NJzSkqJx01Oz/C/S2L5r+qq4x11O9zD8FLP2PnFRU0IwmbPuGpnXPxq+WMlnmJxOQMDLp6PNi9cnuvWj1T8LjjUQavOsj8kzloahYnl77F/1a54F3LEye9gdyMNC6lZJCr2tBuVCfCbnNE0TI5v20Jv/6yGBQbnNx98HKzw5iWQHxaTsHXQaBg27AJQbaYUY31WYhbnIxgif80LSeZ6HPnOHc+hoS0Up2eYoNbkwG89NnHPN3erVLrRhTf/rw4ogMeuuKxAvLTE4iKiic9vyYd77odvyp9z4+eRv3vpY1L8ddSYsxI4Oyps8QkZRZ8hYHiTY8hffCzKfUFjlnJxETFkpINjk0e5O0x3XGrxjtfM+aSlZlJpqmf7HyKBzts6nP/5Ne4r7EzusJvIDdkJhETdYGUouRKscGz/eNMGdcLn1IXobrKWPHuw0sT7qWxc0kZq9mXiD0fxYWkjGu+Gd/iMqlqPbNryINTJnNfE5fiMlLz0kmMiSTyfAxxyVcK/2h0eQc2kJUSR3TkeS6k5lC0qc6lGQ8+1Q8/Cyp29dVnIW5tsgZLCBQUnR77GjXxqh1Ag6at6dj1DsJa1zbxyTZL2FD3zjeY7vMrC35ez54zCWRoNajVsD09hzzOIMdfGLG6apHq6tzF5A9sWfD9Kv4+Hk1yhgG9kzu16zehfae66FFwDn6OT97zY94Pa9l1Mo7LBj0u3oG0vP0+Hn+oGwHaTjrO2sAfVfmmcytTPDrw9LRv6LJuGSs37uJoRDypuWDv7Il/o9Z06TmQu29vWPzdTyWqq4wVPDo8zaezOvH7b6vYvPc4kYmpZOZq2Dq54xvYgs49BzIwsCoZRdXqmc6zI09Pm8Ptm1exZtMuDp+J5mJaNkbFDkc3T/yCmhMc2oO+PdwLEjR9EHeOfBH7v7ax69BZ4i9dIdsAentnPP0CadI2jH6D+tG+ll35B71K9dVnIW5lyhdffKHl5+ez//Bxpn/64c2OR4hbnmHPJwx9bR2XVUBxptdbPzO+s9m5GlEJUsY3jpS1EKbJFKEQN5RK/LlIMos/OFYTj5pyG1qXlPGNI2UtRHnkThDCyrTEDXz10RxW7ThBXIah1AJgjYzTvzFzaeGffAF0Ls1pUV8WsFSWlPGNI2UtRNXIGiwhrEwzpnBy4yJ++2NRwae4anrh7uqAbX4q8QnpJYuSFXsaDLyHYKv94eD/DinjG0fKWoiqkQRLiOqkGchKTSArtczrij11e7zEa0Mbyk14vaSMbxwpayEspu/fv/8UVVWJT0yiX59eNzseIf71FAdv6ng7Y2cDRoMRg8GAqqqgd8TVpx5NO/TgvhFjGfVAa9xlkr5KpIxvHClrIapGmT59umYwGORThEIIIYQQViLPG0IIIYQQViYJlhBCCCGElUmCJYQQQghhZZJgCSGEEEJYmSRYQgghhBBWJgmWEEIIIYSVSYIlhBBCCGFlkmAJIYQQQliZJFhCCCGEEFYmCZYQQgghhJVd9Xc5P/52yc2KQwghhBDilnHNHz7f/rf/zYhDCCGEEOKWENolVqYIhRBCCCGsTRIsIYQQQggrkwRLCCGEEMLKJMESQgghhLAySbCEEEIIIaxMEiwhhBBCCCu75msaCii0fKIbn9/piA5Q4yN4YeRJjhtLbaKrwYNTw3m6kQJA5l/7uOfzRPKrO2JLKPZ0e6EL40NtiV+9n+e/v0SOxe914J4p3RjdUkf6xr3cN+NimXPS0/OVXrzWqfzcVE2L4ZWnT1PjmUrEYPa44p9Dj1+7ejx0Vx06NqxBTRsDqUlZnDtxkQ2/R7EhIh/tZodoNdV5rgoNhoTyzRBXFFNtjPgXkT6j4ra7pHy02HM899IpTpWt69cTg8VxiBtJ9+W8c8xcEFHxRj7edApQrn7N25uQIKWcd1h69Bo8+H5fNn7dlBb669vV1TTysvPJzMonI0e1emeXn5tPZpaBzCwD2fkaGqCpKlmFr2VmGzGWF0O1nbO4IRQbmg3uyMxJTRjQ2gUvJwVNscW7Tk269AwkrM7NDtCK/kvnKqxK+ox/awzCmsoZwSpD70zHNk7Mj8xEBUDBq10tGushL0/F1q5qM406P1+6NdBBcpXeXj4tjx3fbmfHt1beLwBG/pq2gb8AUGjzvzv4tL8DWmwEI8ec5mzppxITMVTbOYsbwqHZbUx8wB1XVGK3HuPt72I5la7g0aAWd/Z04uieW2f06kacq6aBBlxntyv+aaTP+HfGIKzKTIKlEReViUeAMw3beeO9LJNEDVDs6dShJrZqBnuO6Wjf1umqd9n5eHH33QGEN3elro8DzuQTdy6JVT+d5NfjeaiAW5NAXnq+IY30oNQKZMaSQEDlr0/W88Z2I6CnfmgDHr3Tj3b1HHA05hF9PJ6ffzzD+igDWtFwaLNMvp+wl4NtmvJMP2/qZ0cxcvR5Gk++dqjUkrisxsRwrVNF57yjvB2ZKQdrxiwqptgS0t+fOnpQE2P49KsYTuUCaKSci2fBudIb66nbuQGPD/SjfX0HHAx5xJ5KZNWvZ1l+IregrhVPmcDFNbsZ9u0lDICudhAzpjehmS6XlW9t4pNDakl9MlXfR50iqUUQIwb70zHIEWcMpCRe4fDuGH5eEceZzIJ4KlWPrH2uALZOhA9rzv/u8KC2vYHzeyL5Kc5oog5Lnf/3kj6jykxN8RXHnMWPbxzgXOcmPNLVgzpOKknnEvl57gmWn63oQUdH/X7t+ex/3tQ0ZLL64518uifXunGLcpkdwTKcTuZwLWc6NPQm2O08q9NAcfUipIkeNSGJfYm+BJd5j+biQf8+vgTpwJhvRLW1p14Lf56b5Ijh5d38lqjQKLw+HbwLnmI0TSUnW0XFSK4RQKFO73Z8/rQ3bgqoBiMGWwcadAjk1aYuOL26h2XxhQfTOdP3pU484OuEHSo58XlcKae2mY+rOptunZlzNsWCcoiT7uaG0bvRtqkNChrJBxI4klvehgp+vdoy/Rkf3BVQjSoGGweC2tVjZEtPAt77m+kHqzj6Y6K+Z3gHMPGVxrRzAM2oko8tPvU86eGazYZlcZypSj2y+rnqaf1wMJPvdMZWAc2oUD+kMWNyjOjL7E/q/L+b9BnVQF+DAWM74exmi5qvobe1xa+pPyNfhYSRh9mZZepNCl5dWjD1cW9qarn8/d1ePpfk6oYym2DZ5aXy98m6dGjtTqeWtqzZmo9L61q0stdI2JvIeUe/a96THxHBG5MSMcZfIeGKit67Lm992pIuTu6EtrZj2R+57PlmMyMvFy5wvRjFuBdOcLQo0bD3ZtgQL9wwcOSn3Uz6NY0rNs4MHNuZke09Gdq3JqvmZhdsqyh4+ShsnbOTrzalkpClgeJwzQ1saVzVd7uoFZ+zYnvtW+y9zJfDnFQM1RazKE1xcsCnhgKoJCZkU25ebO/FQ0O8cVc0kv8+wkvTY7mgd2Poq534Xwtn7hpen1VHznCuKpXNRH23bdmcAHvAmMFPk7Yx66yCVz1P2ntksTebKtUja59rhIMPg7o7Y6topO47zphPoomy82DEGx0YEkjJfSd1/l9P+ozqoOBaI4clb27lmyP51O4fzMwnvKhR04tOQQo7j5aOQkNVNZybNWLqi/746Q2cWLKfd9dnyqL3G8xsgmWjz2f33jQMrT1o084Dh20ptO/ogZOWzdo9l1G7Xbt6wt7Xk269Awhr6oK3ix5bnYK9I6Ao1Khhg0LFlVJf14OWrgqgp8k9HVl0d8Hrio0eBQXPui64KNnF2+cfPce0NSmkmKnp1xvXjWZZOaSS+k8K+pamFK8V0ip4DNT7e9DSTQEth21r44jJBbjM8j+SeaS5L47+nrTxOMu5S1WLomx9N0SlcPhyAN1rOnPfuE64rolk6YZEfo8s2KBq9ci65xrl7kZDR0DL5a8VMUTkaJCTwrJNadwX6FE8iiV1/t9P+ozqYTgdyy9HcjFocGHPRc496kUrvQ3OTgqUiSLHyYcxLwfQyF7jwsZDvLY4lUy5Z244swmWokDy/oucesyTZq28aeGqENrSBi0lju1nNGy6ldm+hjcjp7Sjv3dJA11ZOmc7XHQFB7d1sOGasR1bHXal/pubklPuEK8147rRKlsOonpp2bmk5AK2Cl7e9ujIMjncrnO2xVkHqHmklaqYeel5ZAGOii0uNYDyEixdxXW0bH3X0uP5+E0dKY/exoDW7gx4xJ1+92eyddEhPlydRl4V6pG1z1VxtMFJAdRcLqUVbaeRdjnvqq5B6vy/n/QZ1SMvObv4wUIzqOQX/lu5JjgFn84B1NIpoGnY2CDTgjeJRZ8iVC8m8ff5JrQI8qbb3TYEO0PK34kcz4dWZXd4my8hXgqKls/+H/fx/ppUkvI9GPl1RwZ5WhaUmpVPhgruShY/v/YXX500cScoDsX/1CzIzK0R141mUTmIG8eQzokIlT6tdPi08SbIJpXTJuaq1Ix8rqjgobPD3a3k6dLOzY4aAFoelzMKti26ora2JY24zs0ejwpadFP1PSvqAjPeimN+gA/3DG3CQ51qcPujrYg+vpV5ValHVj5Xzc5AtgYodri7Fr1bwbmG7VWdl9T5W4P0GdZnNFp+LyhaHoe3puMd4o1feAvGHE7n9U3ZkmjdYJZ9VlbNZOe+DIw6R/rcVRs38tizOxWT6151SsFwv5ZPzNl0knJ01OlUhw41r+0xDIaC75CihiO+zgooOhzsFYxRlzh8WQOdI70GB9LcteC9OnsHGnesQwffKjxPVCKu6lTeOZtSLeUgqk7LYdvmJDI00PvXZ+xjvtRzUgAFe1cnWnTyo7WngjEmmYOpGij2dO1bh7r2oHNy457eXtgrYLiQwuFUDTQDGVkaGgouDd0JsAEUW9p09cG7Ep9i19X2ZkCIB3VdFTKiE/nph1giVEDnQG3vKt5PVj5XY1w6Z3MKYgrvVwc/W9A5u3Hn7TWvesqTOn+LkD6jfArodAp6fcmPzsrVOnPHUV6ZdoAP1mSQjz0hT7TiXn+5d240y74HC43zey9y4X4XAmwU1PRkth03Yio/M0SmcCzbny5OTtz9ek/6GRRsdXnEXzKi+eiu2mdiRDqXNTc8nX2ZOKsXo1SFiB+38NKqZL7/IZFOz/vi1bYJM+Y0IjdPw8Zejw25rHwrnj2JlTtRy+OqThWc82oTTye5FpRDgjzh30iXtp5gRgc3xnd2oFH/dszrp5KXr2Bnq6ComSyaGM+hSyn8uDCR0JG+eHVuyfzgZuQreuz0gCGLdT9EEWEEyOPQwcvktnbHoX5DPv+iFnFGBwJr2WA0gs7Caqn3qcWTYwLwQCM/V0Wz02OnAy0rlQPntCrXI2ueq5ZxkeWbMwntVwOvkFYs7NAcg05HTqYBTSv1OUKp87cI6TPKo6/TgK8XN7jqvM4t3sZTP1tvCbqar2HUDBz68QhLWnXiwXqe/O/FhhyefIbTeVY7jDDD4lpiPH+RnUkaoJFxOJGD5XyHv5Z6gWmfR7AnLh+DBrkpqSyfsYuXFiUXTBGUknPwNFN/vsj5y0ZUvYKWfoVziUY0NBI2HeT5d0+y6kA6SVkatrYKuWkZ7Nt4ns0xlW9gKxNXdSr/nE1GbfVyENfJmMXvn+5gzNxodkVmk5GvYKtXyUy9woEdcRy8BKCRuOUgI98/ze/HM7lsUNDl5xJ9NJaZb+/ks71F6440YlYf5O2lF4m4rOLg6YRHfhpLp+1i+v7y6oSJkBKSWb/nMgmZKjp7HUpODhGHovninUOsTS64Z6tUj6x6rgb2z9/Le2sucSFDxWjM5+ymo7z85jmOXzX1KHX+ViF9xj9AbirzvzzHmTxwaNiAicM8qCEDWTeM0rjdKE1TjXRsk0NAsw5s/9v/ZsckhBBCCPGvFdol1vIRLCGEEEIIYRlJsIQQQgghrEwSLCGEEEIIK5MESwghhBDCyiTBEkIIIYSwsmu+B2vz0v43Iw4hhBBCiFvCpI++kREsIYQQQghrGvu/wZJgCSGEEEJY08ffLpEESwghhBDC2iTBEkIIIYSwMkmwhBBCCCGsrOoJlhrJnEfCeObni6hWDOi6lY1LjeLHpwcw6reE8uP8p56LEEL8W/3b21VrxG/JPizpo6ojtv+Km1hW13xNQ2lqymF+mzOX3/46RGRSJpqjJ3Ubd+Gh8RO4u/4NitCE7Ig1fDVtPusPRpNmsKNmndtoN+glXh/WHIeyG+vqMezrlQzV6WS4TlSLCu+TIBsz9TWPLa/3YsyaTLRS+9R5DGL66kl0tq3oyEZil4/lianH6TZ9FRM72QIGkvb9zKzZSxnCW8AAACAASURBVNly7AIZtj40vf0hXnppMC1cFQC0K0f56cMP+f6vs6TZeNO855O8+tLdNHAEMHB42mBGLIzBWHwcPUFPzmfRs03QW7/4xC1F48qGSdz3lS+f/HjXzQ7GjFKx/jSSwE0TGRkxnNnP3OB6fpP6qIrbgULZEax8/1U+2tKEd35/i3C7a/ZSqgyfIfXtorZMQdHZ4Oheh8btu3P/E8Pp3dAZ5Qae3z9BuQmWenEDU0a8zk6f+3hhyot0DqyJlhbBvm3R+HrfxGY2Zw9fjH6PA11e47OJHfBWU4g5uZ/Ttp5cc+2LSHIlqonZ+8Si+qrg0vc9fnmlM0X5lKKzw7HC5Apyjs/l9bnxuLuX1G7tyi5mf/on+vteZdZbgTgm72HO2+8y/vM6/DI5FCctna2fjGd23ADeXvAJt6knWPTWFMbO8OOHccE4oZJ66TJBj89h5vDAwvtGQW/vJMmVME9LY+uanXj1mUkzW9hzs+OpyFWxZrJt+wGyfIdXz7HMZRZV7aOqmrGYbQcgL3YD0yZ8zF4HbxzLO06Z6729VFtmY8gmNfYYW3/9lvef2MaJT2YyqoPrfyrJKueaZrJ95sf8WWMYn05/mbvbB+Hj4UGtoGD6D7+Xdi6mikgj4+jPvP3cMO7u2ZWQsN4MHfMde1MLn8u1KxxdPIUnBnYnpFMXwvsO4cUZ27ikmvldGWricY6lBNLnwV409fXAy68hbbs/wJAwX9MnY2J4UEs/zA+THqF/eAhhfYYxceFxcsp2ZnkxbJw+kgd6hxN6e3+GT1zA/lTV/LmI/xDz94nF9dXWEWcXF1wKf5xr2FeY0GhpO/hsyjoCR44g2L7kdcUllIkL5zDh3mACfTzxbdabJwc1I/3IYaKNQOZOVm22ZcDzIwit741PUDjPvtAXw9pf2ZEBaFe4lGLA2z8A1+J4nHGyk0cUYZ6atInV+wPo06dhcf3VpR9gzvgH6dO1C6E9BzPyqx0klW4r86JZ//koHugdRkjXntz79FSWnsgoGNFVI5kz/E6mrtnCzNGD6REaSvd7nubTjRdI+PsbxgztTdeQMPo+PJlfT+eU2mcF7XfZWHt7snnKUCasSeLsdw/TKTiYkLHryLI4fvPH0l3ex+yXH6BX1xDCBzzGlCUnyCwasjbVR105yo+THqFfeAjh/R5m4sI9rHy9N8+WmeYqd7/qeeYND2XY7LOlttdI/308d/R+gy3JZtoBDMRu20han4+Y+Vyba2eGKrjeRW2Zq7sP9VrewcNvzOSDATn8/P48juaZueZaKitGhXPv9CMYCjfN3vI6PTvdwcQNmYWvGDk+437CR68g1VhYP9btYM4rw+gbVs41KquiOmdFplvN3H38+Vc6be8fQnNHk1uYoODo7EOTu0bz8fzfWDb/NTomzmPq98cwAsbTP/DO1zF0mDSfVWuXMnfqCHq0DqCmruLfXROwdxBBTpFsWL6XS8Zrf2+Wdok/3h3LrKg2jJ27nOXzXiMsdjG/nCy9syz2Th/N+0ebMHLWUlYueo9+OT8xfspKEtTKxStuYRbcJ9ddX01R41j5zkec6f0WY8NcMeaX+f1Vzz8aqcmpKF7eeChgPH+Ss2ojWjQpGT+za9qKxoaTHI0wgJbKpdR8jsx6jDt796LPwIcY9eEyTlyxdtMjbj0q8X+u5VijfvSqW9QYGjj88y+k957C/BUrWTi5MymLpvD1juyCX2tX+PvjF3lnV22e+HwJq36bzdgOF5g1ajIr44seaC+x5ovFaIM/ZPHKn5jaK49lUx5nxOwUer/5PSuWfsVwr11Mm7aSRBXMtd/XxBrgTvj4mYzu6ED9R77hz02b+OOdnjhZEr9FxzJwaMlKDPe8xw8rljF7ZGNOfTGGT7alm+7QtTQ2fTiOmVGtGTd3Ocu+m0Bo9AymbSybAFSwX10APfs0IWbjRs4WtzsZ7Nq8F7vQnrRNNNMOYEPQ0HeZ+nALXDW1nMTD1PU2QXEhePCdBMVvZtNpY8XXPMGFtsENSTp4qLD88jiyfR92Xo4c+PsQuQBqIgcPJdIwuB1uSmH9+HQeab3eYN7yomv0ZqlrVLZ8LahzVmJ60Cc5lthsLxo2qFmp4Tx9/W4M7teRRnW88QkK5a5wf5IiowqeBIwGDOhxqOmJu0dtGrTryT1hAQVZb0W/K8splBfeHILD6lEMuu85pi7YwOk0ywtFS93K6u16ej/3PN0beONRuxn9Rg6nc6lRAO3yZhathjtHPUXXQC88/FrzwIg7cd+3hi1JauXiFbcsi+4Ti+qrRsa6CfTu1o1uhT+9J28ofoK+Wi4n573OPN3/eOeJZph7/tEubWLBqnTCBnXHWwdq+mWuONbErfSIrV1N3B3SSElTQRfE4CnTmPr+R3z93Ww+e2Ug7vs+5YXXlhMnI7SiIup5fl93llb9e1C7uGdRqBH2OM/1bIyvhxeBYY8wsEU2p07FoQLa5S0sWZdP7xdH07epLx7egYQ88QoP+e3mh2VnCtcBKriGP8qToYF4edSl09C7aGnIo/mDL9CncS08fFty/72dsY08Q5TRgvb7mlh12DrWwEGvoLNzKhhBdrCxMH4LjoWCW7fHGBHeAB8PHxr3GcXT3fLYsGqXyXtcS9vKir8U+r7wYkEf5decAaOfIPSaYaSK9qvDr0cfml/YyMZzhRlWxh427bGja69gHMy1A1W+3qbp6tSjri6RC/EGM9f8HLXatcXn3H4OZ2hgOMG2PXZ0G9wNh307OWEAMo9w8Kwv7dvVLl7C4Bz+GM9fdY2yOHUq3uSidsvqnHWUswZLA5RKzu+qpOxfzKz5a9lzJoG07DwMudkYg40YNdA3Hca4B47x5v8Gsr7zXQweOoQB7WphR8W/u5YOzy4v8M2ygexet5xlS9/nsXnzuf+dzxgd4ml2HluNiyaWQMJvK5VROQUSVFtHStE2sec4n3WBXc/1ZGlRGWj5ZOfXITlVq2S84tZlyX1iSX1VqBE+jvmjgotvSMXR3UTypHF55+e8uaEZE77uj58OKmoNtKxjzJ3wIadCX2N2T4+CMFUVzeRdoqFpBfHWbNSJLkUv163PJOd4hjy7ms0JdzPMT4ZphWnG0+v4/UIHHu/mWeqW0FG3Qf2StlHniJMj5OflowHahQii1PqElm6PdbVp0tiFb85FkktjQIdfPf+Se8PeAXu9J/51Su4Qxd4BO4OBfMy339QqL1ZTzMRv7ljeXBM/OBDU0B/j+hguqhBY5ohqXCTRan3CGpbqURzqEeSn52KZ2Crcb6076NP6SxZtOMOIRk3I3buJPXZhvNXOEfaaawfMs7wMAc2IUdOh14Nq5pobngymreNq9h/Lp4/7dnZlt+XFgZ3JXPQ1OyOMNEvbx1HHttzXsHgSGv+g+sXrV0uuUZ7JkTdzx8+lceHo5fUzmWDpPPzwtU8mMjIdrZWHRXmWGruEiaNnk3v3S7z6bEv8XG2IXvQSr0QVbqB40Om5r1l2/2HW//oDC8YM5qd+7zNzXAjuFf7O9PEUp7p0uvcFOt3zCHunPcXID+bT/deXaWNh+6+7ajsdepuSA2mqhmbTjMdmvEN/z9IHtcXFS2/mXCw7vvj3q8x9Um59tSn6vQe+fn5mkvRMtv+8jDOn8ni2+49X/+r5LqzqPJFVX9yLhwJkneSHcWNZ5jGSL8eHF7wG6Nw9cMuO5nI+FLdIeWmk5bhR2830zWPjH4CfbgeXZZpQlCufo2vWkxY6iq5upe8EBRubij6srhUkKmWqlqZpoBTtx9Q+9OjKueHMtt/lxmpKxfGbP1bhdmW7+oqyGK3oyKXp0JmYIqlwv4oXt/dpzxcLNnJ6RABJm3dh1/Vt2jlUrR24WmXKEIyRZzmv1aabnw0YzVxz2+YEt8pl7sGzRDrsJLXtY7St2YbM1hdZvCuGbllHyGn5OM3toGCIylwdK8uSOmcdpkvSoS1hHezYv3QZ58qu7yhH/sn9HLW9nSdH3kXHJvXx9/NGyb5yzRCdnU8rBjz7AfM/vYf8lb+wo1SjXdHvyj8DN1qHtMI5NYkUC8b2dLX9qU00ZyNLnVheHLEJpT6U7h9IPX0sMSlu+Pn5lfzU9sal1JBqleIVt44q3CeVra9XcyJ8/EIWL15c8vPDZHp7eNBz0g8snNSTmoXJ1cJxL7PE9TlmvHUndUvVWX395jS2O83RUyUB5506wimlIU0CTU9y58ec54LOj7q1ZPRKlCP3AGs25hHerzPOlXibru5tBNlEcOJMqQXqahwnTmZQp0F97Mt/a7nMtt8mY9Wh6EA1Vm4e3LK+QiU2IoqSOy6HiLMXsKlTFx9T64z9AvBXojhTuo8yxF/VR1m2XwX38D4Ep2xly4mDbNttT3ivtthTtXbgKpW53moymxauIrZed3o01Ju/5oozbYMbEX9kO5v2xtGqa3ucFBeCQ5pzfud6thyMo3GHNlUeZaqOOlfusUy+qtSkxzNP0Sr2W0aPmcUfh6NJSk3hYuwZ9m/ZT6yJjkHvUxuv7ONs3xFJ0sVo9i/7iO+2l5yAGrmZn9fu5kT0RVJTYjh64CzpLt54OygV/q4sNXITP6/ZwZFzF0hKSyXh9GZmz92M1qErLcx8rB1AcQ9jQOcc1n41ky0RyaRePM3Gr+eztdRkuFKzG0P6ObHhs3dYvDeaS2kpJJzbzZoVu7moVnwu4j/EgvvE4vqan03GlStcKfzJyMw1Mfunw9k3iAYNGpT8BPnhaqPH1S+IoNqu6LJOsnDcaBbZP84H47vhnlu4z4xMco1AjS7c20fHmhnfsD0qmaTIrcyasRZD94F0dVVQL25hwZzV7DwexcWUZKL3/8YH7y9H6/sAt1vwpCr+m7J2reYvm+70a1/e581MU1xvZ9hAVzZ88RlrjyeQknyeHd99wI+xbRh8521VWtdqrv02GaviiK+vC4m7N7IvLoWk5CvFn2K7nmMVbKRxZfNcZm4+y8XUi5xZ/wXf/GVP9wGdTSYJinsY/UPyWTvjSzZHJJOaeJqNX33LpstlNzS/X8U1lL6dU9j+/VJ224bRs3XhGLmZdsCcCq93fjYZV9K5fCmO07tX8fXYp3jz79o8PuERGtlYcs11eLVpj//Zlaw424yunVxRUHDv2IWGp35j2ekAgtt5Vfmrl8we33iGBU/dxbDp+8gBMPf/CpQ7rmYbNJRPvvNh/jcL+frl74lLz0Pn4E6dpvczqXM7/Mu806bFcF59JIIP3xzG0nxXbrvjScaP0zFpReEGunSOLvqEmWcvkokTtRqH8ug7z9DBDrQKfncNLZUjvyzku3MJpOVo2HvUo/Udz/H5M/0LsnZzDyA6b/pO+pCkDz7m3eGLyKwRSNjDo3n+9omsLb4CLnQe8wVvfTuduW8M5/PkHGzcAmjR/3mCzZyL+G8xd5/4mauvAGhcWTeB3utK9mvZF41eK2/nAmbuTiZH+4CHe31Qaoc1GThtLZNDHAl+/gNe/PR9Pnj0B5LUmjTq9hQfvRyGqwKagyN5R7/l/cUfcfFyHvZeDekw4E2+fLILJr+dRQgtnW1rduDa63NaVboNdKLdC5/z1rcfM3PMA7x92QbvprfzxLSXuM9fZ749N6Wi9rvcWG1p98ho+k74lJfv/RHH8NdY/F7T6ztW0Ta6+gyd9CD8Mp6hExMwuDemx6hPGNPVxfSyAsWTPhM+4OL7H/He8J/JcAog5IFh3N34JMdKb2fRfp3p3CeED8auwX7w17QsPueK24EKVXi9i9oyBZ2tI64+9WjeaRAffD+EkDpFG5u55oA+MJg2dt+xrM7DdC5cd6Pz7UTn2p8zK70n7QOuZzTdzPGNKvk5WeTkGgsnYM39v3xK43ajNE010rFNDgHNOvDuuKeuI3AhhBBCWJUaydzHhrNn4G98eZ9XpT5/pqUsY+Tdcwmc8Qsvt6nkE5uoskkffSNfcC6EEEL8o2VFcvaCLZ6elf1zMxop2//imG9P+liyhkZYVWWW3gshhBCiWhk4unQ2J71vp2MTP1yMsWz5agabbLsytZ2lS7DzyUy7Qmb8NqZ/d4jGw8bQVHr7G06KXAghhPjHULBXY1j92Wimx18mV6lB7Wa3M+qjl7jdggXoAKjRLB75KN9EutK0/6u8c5+/TFfdBJJgCSGEEP8Yem67fypz77+OXega8MSCbTxhtZhEVUhSK4QQQghhZZJgCSGEEEJYmSRYQgghhBBWJgmWEEIIIYSVSYIlhBBCCGFlkmAJIYQQQliZJFhCCCGEEFZm8/xjDTAYDOw/fPxmxyKEEEIIcUv4b45gqVH8+PQARv2WYNkfa1cjmfNIGM/8fLFKf9y9Ssf8px9HCCEqwxrt6M1klX7Agn1UpQ3/t5ftjXQDy6rcBCs7Yg2fjBxC3/AudA65nb6D/8fEH4+RU80BVYeMPybyxMyTGIte0NVj2Ncr+WyQr1UzTDXlML9+/BIP39Wd0M6dCLmjP0OeeZsVEYZqO+Y1TBznmvMXVlXhdcfcvZTHltdvp0NwMMGlfjr2fped+eaObCR2+Uv07tSHqbuKNjaQtO9H3nnmfnqHdSGk+0CefPNnjqZrxe/Srhxl0eTh9A8PIaT7QEZMXcG5bIrff3jaIDpdFU8nHvha6o+oCo0rGybS+77pHDFbn2+2q2O9ae3mjeoryqi4XSiUHcHKNx4g/I7X2ZJnci+lyrB029aBDh27EN7nfkZM/Irfz2agmXr7Lcb0n8rJ2cMXo9/jQJfX+GxiB7zVFGJO7ue0rSd2NzjA65fJvu0HyPIdfvXLOp11k6uLG5gy4nV2+tzHC1NepHNgTbS0CPZti8bXW18txyzXVccp5/yFVZi97hbdSwoufd/jl1c6U/T37hWdHY62po9ZJOf4XF6fG4+7e8nV1q7sYvanf6K/71VmvRWIY/Ie5rz9LuM/r8Mvk0Nx0tLZ+sl4ZscN4O0Fn3CbeoJFb01h7Aw/fhgXjBMqqZcuE/T4HGYODyysRwp6eyf01i48cevT0ti6ZidefWbSzBb23Ox4KnJVrJlsq85209yfFKxqX2Hhnyq8htl2AfJiNzBtwsfsdfDGsbzjlLne20u1bTaGbFJjj7H11295/4ltnPhkJqM6uFY55H8Dk9dQTTzOsZRA+jzYi6a+Hnj5NaRt9wcYElYqo86LYeP0kTzQO5zQ2/szfOIC9qeWDLhp6Uf48bXh9A/vQkivIYxfsIdVr/fm2aJhOcMhPh3YlTFrs0odOIGfngrj0flRJUN3FR1HjWTO8DuZum4Hc14ZRt+wLoT2HMzIr3aQpAJaChumDGXCmiTOfvcwnYKDCRm7jqxrhgg1Mo7+zNvPDePunl0JCevN0DHfsTfV0hw7k+0zP+bPGsP4dPrL3N0+CB8PD2oFBdN/+L20c1GuHZZUI5kz/G4+2Haale88Rr+wMB757kzB01JuNH9Of5lh/W8nJLQ7/R98gzUJqmVlVvo45Z2/hWclzDF/3S26lwBsHXF2ccGl8Me5hn2FCY2WtoPPpqwjcOQIgu1LXldcQpm4cA4T7g0m0McT32a9eXJQM9KPHCbaCGTuZNVmWwY8P4LQ+t74BIXz7At9Maz9lR0ZgHaFSykGvP0DcC2Oxxknu//magJxfdSkTazeH0CfPg2L67Mu/QBzxj9In65l2usiedGs/3wUD/QOI6RrT+59eipLTxSOeBS1+Wu2MHP0YHqEhtL9nqf5dOMFEv7+hjFDe9M1JIy+D0/m19Ol5lvM9FdXxdrbk80VtJvm4zd/LN3lfcx++QF6dQ0hfMBjTFlygsyi7sbEFJZ25Sg/TnqEfuEhhPd7mIkL97CydH9qbr/qeeYND2XY7LOlttdI/308d/R+gy3JZtoFDMRu20han4+Y+VwbHCpxvYvaNld3H+q1vIOH35jJBwNy+Pn9eRwtGgUr75prqawYFc69049gKNw0e8vr9Ox0BxM3ZBa+YuT4jPsJH72CVKOZnKA8FdW562Cy1dR5BxHkFMmG5Xu5ZHJ8NIu900fz/tEmjJy1lJWL3qNfzk+Mn7KShMLEZv17Y5h5vjVj565g1YI36Bb7JZ9vrmzAZo4DoF1izafzSOv1BvOWr2Th5M6kLHqTr3dkg1KT8PEzGd3RgfqPfMOfmzbxxzs9cbrmOAqOzj40uWs0H8//jWXzX6Nj4jymfn/MsuHh3H38+Vc6be8fQnPHypzfJbZ8/C6b/J7iq9+W88XQIPRaOn9/MpK3//bi4Y9/YuXSb3n32Xto41OFDs7i8xdVYsF1N38vVYEax8p3PuJM77cYG+aKsezUy1WPhBqpyakoXt54KGA8f5KzaiNaNCkZP7Nr2orGhpMcjTCAlsql1HyOzHqMO3v3os/Ahxj14TJOXPkvDOgL61KJ/3Mtxxr1o1fdovbLwOGffyG99xTmryhqr6cUtNcA2hX+/vhF3tlVmyc+X8Kq32YztsMFZo2azMr4wkZfu8SaLxajDf6QxSt/YmqvPJZNeZwRs1Po/eb3rFj6FcO9djFt2koSVbCoHykda4B7Be2mmfgtOpaBQ0tWYrjnPX5YsYzZIxtz6osxfLIt3XT/qKWx6cNxzIxqzbi5y1n23QRCo2cwbWPZ/rSC/eoC6NmnCTEbN3K2uB3KYNfmvdiF9qRtopl2ARuChr7L1Idb4Kqp5fTjpq63CYoLwYPvJCh+M5tOGyu+5gkutA1uSNLBQ4Xll8eR7fuw83LkwN+HyAVQEzl4KJGGwe1wU6g4JzBZvhbUuSoyXQpOobzw5hAcVo9i0H3PMXXBBk6nlcp7L29m0Wq4c9RTdA30wsOvNQ+MuBP3fWvYkqSipW5l1TY9vZ97nu4NvPGo3Yz+Ix8muJJzDOaOU0DBOfwxnu/ZGF8PLwLDHmFgiyxOnYpHRYetYw0c9Ao6O6eCkQEH07Oi+vrdGNyvI43qeOMTFMpd4f4kRUZZNNqjJscSm+1FwwY1Kzfcqalk3zaUyY+HEOjlQc0aerS0v1i8Lo/eI1+mf7PaeNYKom14W/yqNIBg+fmLyrPoupu5lwpoZKybQO9u3ehW+NN78oZy6l4uJ+e9zjzd/3jniWaYy+e1S5tYsCqdsEHd8daBmn6ZK441cSs9/WhXE3eHNFLSVNAFMXjKNKa+/xFffzebz14ZiPu+T3nhteXEyepZURnqeX5fd5ZW/XtQu7j9UqgR9jjPXdVeZ3PqVBwqoF3ewpJ1+fR+cTR9m/ri4R1IyBOv8JDfbn5YVjjCj4Jr+KM8GRqIl0ddOg29i5aGPJo/+AJ9GtfCw7cl99/bGdvIM0QZLexHroq1onbTXPyW9Vlu3R5jRHgDfDx8aNxnFE93y2PDql0m73ktbSsr/lLo+8KLBf2pX3MGjH6C0GuGkSrarw6/Hn1ofmEjG88VZlgZe9i0x46uvYJxMNcuVPl6m6arU4+6ukQuxBvMXPNz1GrXFp9z+zmcoYHhBNv22NFtcDcc9u3khAHIPMLBs760b1e7eElD+TmBifK1qM5VTTm9rQ7PLi/wzbKB7F63nGVL3+exefO5/53PGB3iiRZ7jvNZF9j1XE+WFvUsWj7Z+XVITtVQDVHEaoGE31Zq7sIpkAa1deytRHCqmePgXRCrf1D94rUr6BxxcoT8vLxKjJappOxfzKz5a9lzJoG07DwMudkYg40YLdqJBihVmP/WU79Nq4KsuyiSC5FEq/UJa2hf/tvEP4Ql173ie6moQagRPo75o4KLb0jF0d1E8qRxeefnvLmhGRO+7l+QdFdw92tZx5g74UNOhb7G7J4eBWGqKprJ5yoNTSuIt2ajTnQperlufSY5xzPk2dVsTribYVXL9MV/kPH0On6/0IHHu3mWukV01G1Qv2T9YXF7nY8GaBciiFLrE1q679DVpkljF745F0kujQEdfvX8S+4Vewfs9Z741ym5YxR7B+wMBvKxoB+pVV6sppiJ38I+q3T84EBQQ3+M62O4qEJgmSOqcUV9QqkV0A71CPLTc7FMbBXut9Yd9Gn9JYs2nGFEoybk7t3EHrsw3mrnCHvNtQvmWV6GgGbEqOnQ60E1c80NTwbT1nE1+4/l08d9O7uy2/LiwM5kLvqanRFGmqXt46hjW+5rWDwJXamcwNzxc2lc5VmfCoczFKe6dLr3BTrd8wh7pz3FyA/m0/3Xl2mhamg2zXhsxjv09yz9BltcvPRwqjDGq66XDp3eXLHnk28o9Wknc8cp+A82Ntc3KqPGLmHi6Nnk3v0Srz7bEj9XG6IXvcQrUZa9X+fhh699MpGR6WitPCqRZynY2V69krm4Mlu8k6vLTNw4lbnu5d1LbWyKfu+Br5+fmQ+RZLL952WcOZXHs91/vPpXz3dhVeeJrPriXjwUIOskP4wbyzKPkXw5PrzgNUDn7oFbdjSX86G4BcpLIy3HjdpuppMnG/8A/HQ7uCzThMJi+Rxds5600FF0Lf0Eaba91goSlTJVTdM0UIr2Y2ofenTl3IDm+5HyYjWl4vgt67OKzvKqEyz/kFrRkUvToTMxI1ThfhUvbu/Tni8WbOT0iACSNu/CruvbtHOoWrtwtcqUIRgjz3Jeq003Pxswmrnmts0JbpXL3INniXTYSWrbx2hbsw2ZrS+yeFcM3bKOkNPycZrbQcEQVWVzAkvqXNVY9jiqc6N1SCucU5NIMYLeP5B6+lhiUtzw8/Mr+antjYst6Gr740cUZyJKLQ7Ju0BMYqnHbcUWWxvIyc4uqRK5UUTElgzimTuOpaeo6EA1lj/MmX9yP0dtb+fJkXfRsUl9/P28UbKvWP4dGQ5tCetgx/6lyzh3nR9F1tcJoI5ynlNnTXwG1oIyu5b58xdVVJXrXuZeqhwnwscvZPHixSU/P0ymt4cHPSf9wMJJPalZmFwtHPcyS1yfY8Zbd1K31L2ir9+cxnanOXqqJOC8U0c4pTSkSaDpOfz8mPNc0PlRt5aMXgkL5R5gzcY8wvt1xrkSb9PVvY0gmwhOmF4bAgAAF69JREFUnCm1QF2N48TJDOo0qE9VxvXN9iMmY61au2lZn6USGxFFyR2YQ8TZC9jUqYuppbY6vwD8lSjORJZqZAzxxCaUbUDM7VfBPbwPwSlb2XLiINt22xPeqy32VK1duEplrreazKaFq4it150eDfXmr7niTNvgRsQf2c6mvXG06toeJ8WF4JDmnN+5ni0H42jcoU2VR5mqo84V7/vLeeeYuSDiqhfVyE38vGYHR85dICktlYTTm5k9dzNah660sAWlZjeG9HNiw2fvsHhvNJfSUkg4t5s1K3ZzUQXFPZz+XfJY++XXbIlIJvXiaTZ+vYDtpSeYdf40uc2OI8sWsj0qhdSEk/zx//buPD6K8vDj+Hd2cxAgJwESchASQDlERERAIBjgJ4cYlYJKEaht1XpSFY/SotYqBEQRQQ5BFA+qRQSVo1AvDhEoKioQzkDAGJKQ+0529/cHQQIuZBOeQNXP+/XKHyGT2ZlZs/vZ55kZZ76idYUnM7Kmx/GI5aewMH8d3fKxtqVlKzOr4MerEU6wNwtXaMlObfw8RZkZqfpy2VQt2FiLO35ZQep35+3qdGS+xj04V2u+SVVmTrYyjuzVl+u+1JFavJFawfEalmBp9Yzp+nfyUeVkp2vPps+VnO/y6JjVZf9RRx487zX9Lf2ookSFBQUqqPoqLCpzM/tnU+OwWMXFxZ38im2hAC+7AlrEKjY8QLbiZL0xfpwW+/5OSQ/3VXBZ1ToLi1TmkNSoh268xqaVM+dp46EsZaas19yZq1SZkKheAZacGeu06JUV+mLnIWVkZyn1y/eUNHm5XANHKN6DT6aAJBVvXqHPvBI06PIzXW/mnhUQr5GJAfroxee1ame6srMO6vMFSXrrSGcNv7ZNnW4VUtP7iNttrePrpkfvWZZLBZ8u1JxP9ykjJ0N7176oeZ/5KmFId7eRYAX31uCeFVo1c5Y+PZClnKN79PFL8/VJ3ukL1rxeK+AqDeyerY2vL9UW797qf2nVmHkNrws1OevzXVGiwoJ85R1L054tH2r2Q7fryU3h+t1jt6qtlyfPuU2hnS9X5L4P9P6+9up1ZYAsWQru1kOtd7+nZXui1bVLaJ1vgVTj4zv2atHtQzVyxrbj9y6s6ftq3I+juXL07ZI3tGB/unJLXfINaalLr75LL9w5uKqE/dX9wRf19/kztPDx0Xohq1RegdHqOPhudZUkW6gGTZiirKSpenr02ypu3Eq9R45UYutd+vbkXinhvgn65qmZmnjLYpU3bqluv7lb9w54Wst+XKaGx/GIt7rcOk4DH3tOD9z4lvz6/FVvT2p36kHoOFqP3npAU54cqaUVAWpz9e/18HibJrzv8YPIO/ZmTVvQTK/Ne0OzH3hdafnlsjUIVkS732hC9y6K9HTE0gpW/CPT9dDM5/XyfcP0eJ4UGDdEj87soYs9OWae7H/S4B+njHBuanreW9T4tyRJLhWsfkz/t/rkem0hN2jGignq7vFI7XHlXyzSnC1ZKnUladSApGorDFLi9FX6W08/db07Sfc+N1lJY95UpjNIbfverqkP9FaAJbka+Kn8u/ma/PZUZeSVyze0ta4Y8qRm/b6H/PlvBp5w5WvDys8VMOAFdar1jRMbqss9L+jv85/VnAdH6Kk8LzVtF6/bpv9ZwyJtqtOtt8/2PnLGba35faPWj3ViGVuMbp5wi7TkYd38l3RVBl+kfvdP04O9/N2fZmA10TWPJSlj8lRNGv2OChtGq+eIkbruomTtqL6cR+ttrO7X9FTSQyvlO3y2Lvlxn8/+unBWZ32+T7y2WbJ5+ymgWUt1uPIGJb1+k3pGnFi4hudckr1VV3X2WaBlEaPUPfj4BtnCrlT38Bc0N7+/Lo8+l9H1Gh7f4VRFabFKyxxVM0c1fX+SdVGX+10up0PdOpcquv0Venr87eewoWfhTNHCsaO1+dp39dKIZr/S/0cPAADnqOr9dGvie5o1LLRW11e5spfpvusWqtXMJXqgcy0/wcFjE6bOO7+d4+nVCAAA4AyKU7Tve281adK4lhevu5S98TPtCOuvazoSV/WNmyIBAPA/q1LfLX1ZyU3j1e3iFvJ3HNG6l2bqE+9eeqaLp6dgV6got0BFP2zQjAXbddHIB9WOd/96xyEGAOB/liVf52GteH6cZvyQpzKrkcLbx+v+qX9WvAcnoEuSnKl6+74xmpcSoHaDH9U/hkVyms55cP7OwQIAAPgVOO/nYAEAAPwaEFgAAACG/eQcrJycnAuxHQAAAL8YjGABAAAYRmABAAAYRmABAAAYRmABAAAYRmABAAAYRmABAAAYRmABAAAYRmABAAAYRmABAAAYRmABAAAYRmABAAAYRmABAAAYRmABAAAYRmABAAAYRmABAAAYRmABAAAYRmABAAAYRmABAAAYRmABAAAYRmABAAAYRmABAAAYRmABAAAYRmABAAAYRmABAAAYRmABAAAYRmABAAAYRmABAAAYRmABAAAYRmABAAAYRmABAAAYRmABAAAYRmABAAAYRmABAAAYRmABAAAYRmABAAAYRmABAAAY5nX32DhVVlbqy292XuhtAQAA+EVgBAsAAMAwAgsAAMAwAgsAAMAwAgsAAMAwAgsAAMAwAgsAAMAwAgsAAMAwAgsAAMAwAgsAAMAwAgsAAMAwAgsAAMAwAgsAAMAwAgsAAMAwAgsAAMAwAgsAAMAwAgsAAMAwAgsAAMAwAgsAAMAwAgsAAMAwAgsAAMAwAgsAAMAwAgsAAMAwAgsAAMAwAgsAAMAwAgsAAMAwAgsAAMAwAgsAAMAwAgsAAMAwAgsAAMAwAgsAAMAwAgsAAMAwAgsAAMAwAgsAAMAwAgsAAMAwAgsAAMAwAgsAAMAwAgsAAMAwAgsAAMAwAgsAAMAwAgsAAMAwAgsAAMAwAgsAAMAwAgsAAMAwAgsAAMAwAgsAAMAwAgsAAMAwAgsAAMAwAgsAAMAwAgsAAMAwAgsAAMAwAgsAAMAwAgsAAMAwAgsAAMAwAgsAAMAwAgsAAMAwAgsAAMAwAgsAAMAwAgsAAMAwAgsAAMAwAgsAAMAwAgsAAMAwAgsAAMAwAgsAAMAwAgsAAMAwAgsAAMAwAgsAAMAwAgsAAMAwAgsAAMAwAgsAAMAwAgsAAMAwAgsAAMAwAgsAAMAwAgsAAMAwAgsAAMAwAgsAAMAwAgsAAMAwAgsAAMAwAgsAAMAwAgsAAMAwAgsAAMAwAgsAAMAwAgsAAMAwAgsAAMAwAgsAAMAwAgsAAMAwAgsAAMAwAgsAAMAwAgsAAMAwAgsAAMAwAgsAAMAwAgsAAMAwAgsAAMAwAgsAAMAwAgsAAMAwAgsAAMAwAgsAAMAwAgsAAMAwAgsAAMAwAgsAAMAwAgsAAMAwAgsAAMAwAgsAAMAwAgsAAMAwAgsAAMAwAgsAAMAwAgsAAMAwAgsAAMAwAgsAAMAwAgsAAMAwAgsAAMAwAgsAAMAwAgsAAMAwAgsAAMAwAgsAAMAwAgsAAMAwAgsAAMAwAgsAAMAwAgsAAMAwAgsAAMAwAgsAAMAwAgsAAMAwAgsAAMAwAgsAAMAwAgsAAMAwAgsAAMAwAgsAAMAwAgsAAMAwAgsAAMAwAgsAAMAwAgsAAMAwAgsAAMAwAgsAAMAwAgsAAMAwAgsAAMAwr9ffXCyXy6mL219yobcFAADgF8Frx7ffShKBBQAAYIhNliVZF3ozAAAAfjmqzsGisAAAAEzhJHcAAADDvBi7AgAAMMvG7CAAAIBZTBECAAAYRmABAAAYRmABAAAYZrM4CQsAAMCo4yNYFpEFAABgClOEAAAAhhFYAAAAhhFYAAAAhtkkTnMHAAAwyYu6AgAAMIspQgAAAMMILAAAAMOqAot5QgAAAFMYwQIAADDMi7ErAAAAsxjBAgAAMIzAAgAAMMzL3Qnuz87/1wXYFAAAgF8Gy98/yCVJicN+oxnPTVFwcPCF3iYAAICfNa/q32wKCblQ2wEAAPCLwTlYAAAAhtksS9xnFAAAwCAbdQUAAGAWU4QAAACGEVgAAACGEVgAAACGEVgAAACGEVgAAACG2WRxHSEAAIBJjGABAAAYVhVYjGEBAACYwggWAACAYQQWAACAYccDixlCAAAAYxjBAgAAMIzAAn4uQsaqa2ml+k7tUfOgc22Wxc+YXQ3/tFoJqe8rOs5e699t9MhmDSpbr5hWvBUAptmYHwTOH6vzk+pd4dCAf90sb/70YIDl6yd7w4ay1bavANQrPrYA542vgsaMUmM55TVwjMLCKaxfBe9uumjnfrXv410PK3eoaHpfrW3aXwf3OOph/QDqysZLPHCeNE5Q5IgolSx+Tdn2voq8KZbx418BW5cb1bzW03e14ZJc9bh6AHXCCBZwXljyHjxWYc2OKvP1KUr/wqWgMb9VY7fvu5bsHUep3YffKCG/TIMK0tTr3Ylq2swp50/eSGuz7Bm2LLyPWs54X1elZOqakkL1P7xTPd68Q/5e1ZZp3kstX1qt3odzNbC0QP33blTnv9+kxv7VE9FbTV5M1aCS5YoIPO1BfG9Q54JK9Zvdv+pF5/j5PwN3JymoUayaT/pQvY8WamD+KkVH2GSFxavVy/9R77Q8Dawo1zXHDqnX2lcVl9D8lCi1wuMVM2eten+fq4Gl+UrYvkLtRneS11nLteqx909TSEx/xS3erKtzSzWwMF29V01TeJsGsiIGKG7RevXNLNLA4iz1Xb9QLa8MPnU13hEKuWuaLvv4S/VNy9PA0nz127FWHX5/WdXjN1Two6vVZ+14NfZpqZjPyjXY5dLg045PzftwtmPl7f48qhq3DUB986p5EQDnzApT2JjB8vr+VaWv36ei2A26eOYoRXSbrORN5acuGvdHdflktkIrNij1yTuVc9RHfn1GqePyJnKdNlRRm2Xdap6oS9a/o4jA7Up7caIOplTIp203BTfMVOmJGaemQ9Rh3RJFBX2lIzMe0YGUUnlfMlRR97+pHgmx2jJgkvJK6nhcwroo+pW1ahq7XqkT/6Ti0qPKzWqn2HUr1TZysw49O077j9rkE9NeQf27ytsqOLlXoYPV4dOlimywTqnPjtP+TD81uu4etXrlY/k36qGts/ee9QhYUYnq8EGiKtbN0767ZkhtEtVq/Dhd+l4btdAV8vt6rg48MFvOplcp6pE71H6pSyXtb1NGXtUKXE3V5Kb+8tq7Uoff3a2SomAFjR2vlnOXyTrcQd+tKVfphrnaMz9Qne6PU9YT9+rILofkSFNeUR32wd2xOup0v3M1blthHZ8wAJ4isIDzwGp1kyISGqhk1mLllDrlXP5PHXt2nlqMidfeTWt18uyZRgp9ZKJCA3cppc8gJX9RfPyf33hd2VO2qvt4SyV1WtYdX4U8Ok0R0XuUEn+1kjedeNefr5RqywQ//JyiYvboQO/+2r2l6jG0SGlbXlOvf/1V7W5/R5tf2F+nWSoroJ/CWvxFX/SZrPwTGxt6m0Iu9Vb+U/do13M7T6736eq/6a3AB55VVOR/tbvrEB3YVXH8n99aqfI1O9R+woNq8uqdyjrbAfCOke2jBG0dt67q+L+jfN8O6vnYEAUtvknrb12icpckLVZmboziXx6i5lf6KGNNVRBXfq298Zeessq0D7PV8OACNR18maw161Wy4T2VR/xWcoWr+LOlSl9XUed9cHusZFcjd/vmwbYxqwjUL5ssyWLIGKhHdjX+7WgFe+3VD//cIqckHf1AP3xcJN9hYxRafTrN+xI16RsmbX9TR7YWV/tBsXLfXqaiyjou645XJzUd1FL66g0d3lJ0hmU6qtmQWOmrN3VkW/XHcKl8xctKP+yroOsHybeuJxs4M5Q+aUa1YJCUt0P5KVLAHyYpdmCc7O5en7w6qvl1beTatlyZWYHyCQ09/hVSoryNu6XmPRTctobPj47vlfnepmpxW6HCr3fJ6SpS9tLVVXFVta/ffasyZ4B8mjVwuyrLt5G8QprI2ztXZXmSd0hwzefX1XYf3B0rD9Rp2wCcMy9u0wDUM58rFDHqEunQfOUWxKhha0myVLjhv3JeO1SRic10dFHG8WVt4WoQbpNj224Vn3ZRmCv1gEocOjliUZtl3bFHyS/SLseXe1RypgvQTizzgZtlKvarcH+lrLg4+dml0jPMVp1V5QEV7C49bb2btff6MfJa8JzarExWbPIapc2bpYMLVqmooKp67DFq2NIuW4cp6p0x5afrdRyUd0ANr23ONJWmnbrRLodDcuaoLLPstPU55JIly17tpLmATor46xOKGX61/KMDZfvxkiGXKj15WfV4H6r22d2xOpNz3TYA54wpQqCe2ePHqkWclyz7nbo8+c7TfupS6Jjh8ntjlkqqv9c73dRKZaX7aZ3aLFudZXkwem0dvxTG5maIyrJkWZbk8KCsbF6yuR2Kcsjl5teduxdrR69lOtB7hCLv+JOiJ3+oqAdWaNfQETq0vUSybLIsyfHxRG17ys10l6tUJd/UMITnqpSz0t1R8uCqPFuMov75iToOqFDuwinaseYblWQXyWXropjFU9Wkhl+XVIt9OHHs3R+retk2AOfMq9rnIwDGBSp0zI3yrdiqg3+couyC6j/zlv8fZ6p139Fq0XaO9ic7JGe6ytKdssXEqYFNKq72hmo1Dz91Kq42y7rjSFNJmlP2Vq3lZ5eK3I1iOQ6qOMUhe5uL1dAuFVZfxquNGre2y7X/wI+jWy6nU7LssuynvrJYkTFqUOuPcyUqWf+a9q5fpANJ96rLR8/p4n+M0A/XvabyylQVH3HI1rhcJes/db/t9ciKTlREvyCVvXattty+6uQ0YwN/RXp6R4Z62gcj2wbgnHGbBqA+NUtU5NAmqlw5XfteXaL0JdW/Fmv/M2+qxN5FEbd2Pj5ZX/GtstZlyLr8FkV08q22Im81uuGGU26dUKtl3an4Wllr06TLRymya0P3y1R+p6PLk6VLb1VUT/9qP7Dke/0dCosoV+77q1XmlCSnyn7IkLzaK/DS6ucq+ajxiOEK8DiwTh/pcsmx40Nl7XHICgw6fk5W5TfK+CBF6vIHteoX4umKzfHxlc1yqjIjUye71pLPoBFqctrUpKu0VE7LXz4hPqeuo772oRbbBqD+MEUI1Bub/IaPVWij7/X9nOXVTpo+yblhro5sv0Ntbhmt4Ke2Kbu0UFlTJin7+umKe3+FvJ9/Q7lH7Wpw5U2KHhSg0uLqK6nNsu6U6NikR5U+9DXFvv8f+UxfqGMHimQPb6fA9ulKvWuW8isrlDftfh287kPFLP1I3jNe0bF9xfLulKjouxNl3/KEds07cQWhQ8UfLFXexGcU9cq7ckxbrPycBvLreYuirw9VWaHLs090zX6nyz4aKee/P1P+7hSVFTeU39W3qVX3cuU9sqbqXK8y5STdr9Rrlyr63c/VYO5cpW9Lk9M3VA0vS1DTqE+1ffiLPzk3zRRXyic6ts+l2Dtm65L8OcpKlRp0G6aoIYEqOeRQ9RR1fb1ReSW3qPnkhWrdZLlKrHIVLlmivNz62YfabBuA+lMVWHyqAYyzt1WLMVfJtmuKUj89w1V6jl06MvcTxb40QpH9Jih7RaFcu2dqW79CtZ38kMKfmqeWylLB2vnaOehhBby9SZHVfr02y7rjOvyWtvfOUf7fHlSLe6YqollDubIPKHfJ46o8MfyR87GSExJUOOEvavmHpxUe5idn2nc6NnuMvnr6LRVUu7jQtWOavhrhp3YTxyjq2QWylx1V4fol2jPkz/KZtVmxnhy3gm3K2jhCLYePU1h4oGyOApUlb9IP9w7Q3rm7Tk48Zq3Szj5XK/+R8Yq6/lG1vzdE9so8le7cpIxXtqqiLifde6piq/YNGyv7C39Ti8fnKMJxTIXrFmn34GfkeDhZnasN4LkOzde3o1ur4zOjFffSUDmPvKsdK5YoL7ee9qEW2wag/lhBQU1cLklDr79Bt7w6/0JvDwAAwM+ejcErAAAAs2wSE4QAAAAmcRUhAACAYQQWAACAYTYmCAEAAMw6PoJFYwEAABhTNUVIYQEAAJjCOVgAAACG2Ri7AgAAMIsRLAAAAMNssjgDCwAAwCRu0wAAAGBY1W0aiCwAAABT/h+rsWcTwgMbFQAAAABJRU5ErkJggg==;" parent="1" vertex="1">
          <mxGeometry x="510" y="1030" width="210.8" height="130" as="geometry" />
        </mxCell>
        <mxCell id="la9x5LW5Tkp9Ms-UtW0m-2" style="edgeStyle=orthogonalEdgeStyle;rounded=0;orthogonalLoop=1;jettySize=auto;html=1;exitX=0.5;exitY=1;exitDx=0;exitDy=0;entryX=0.5;entryY=0;entryDx=0;entryDy=0;" parent="1" source="ggRZYZTkxGHFuDkCwDY1-7" target="la9x5LW5Tkp9Ms-UtW0m-1" edge="1">
          <mxGeometry relative="1" as="geometry" />
        </mxCell>
        <mxCell id="ggRZYZTkxGHFuDkCwDY1-7" value="Copies material link to clipboard" style="rounded=0;whiteSpace=wrap;html=1;fillColor=#60a917;fontColor=#ffffff;strokeColor=#2D7600;" parent="1" vertex="1">
          <mxGeometry x="510" y="1300" width="120" height="60" as="geometry" />
        </mxCell>
        <mxCell id="a5B9X3Do3ak_Rsppw4Uo-4" style="edgeStyle=orthogonalEdgeStyle;rounded=0;orthogonalLoop=1;jettySize=auto;html=1;entryX=1;entryY=0.5;entryDx=0;entryDy=0;" edge="1" parent="1" source="ggRZYZTkxGHFuDkCwDY1-13" target="kUMYeLrfrgq7O8A4BPYU-42">
          <mxGeometry relative="1" as="geometry">
            <Array as="points">
              <mxPoint x="960" y="750" />
            </Array>
          </mxGeometry>
        </mxCell>
        <mxCell id="ggRZYZTkxGHFuDkCwDY1-13" value="create a instance of&lt;div&gt;addMaterial window&amp;nbsp;&lt;/div&gt;" style="rounded=0;whiteSpace=wrap;html=1;fillColor=#60a917;fontColor=#ffffff;strokeColor=#2D7600;" parent="1" vertex="1">
          <mxGeometry x="860" y="1300" width="120" height="60" as="geometry" />
        </mxCell>
        <mxCell id="ggRZYZTkxGHFuDkCwDY1-19" value="Pressing back button" style="rounded=0;whiteSpace=wrap;html=1;fillColor=#60a917;fontColor=#ffffff;strokeColor=#2D7600;" parent="1" vertex="1">
          <mxGeometry x="1610" y="700" width="120" height="40" as="geometry" />
        </mxCell>
        <mxCell id="la9x5LW5Tkp9Ms-UtW0m-1" value="Paste to any modern browser" style="rounded=0;whiteSpace=wrap;html=1;fillColor=#60a917;fontColor=#ffffff;strokeColor=#2D7600;" parent="1" vertex="1">
          <mxGeometry x="510" y="1440" width="120" height="60" as="geometry" />
        </mxCell>
        <mxCell id="a5B9X3Do3ak_Rsppw4Uo-5" value="" style="edgeStyle=orthogonalEdgeStyle;rounded=0;orthogonalLoop=1;jettySize=auto;html=1;exitX=1;exitY=0.5;exitDx=0;exitDy=0;entryX=0.75;entryY=1;entryDx=0;entryDy=0;" edge="1" parent="1" source="ggRZYZTkxGHFuDkCwDY1-4" target="kUMYeLrfrgq7O8A4BPYU-64">
          <mxGeometry relative="1" as="geometry">
            <Array as="points">
              <mxPoint x="1670" y="1095" />
              <mxPoint x="1670" y="450" />
              <mxPoint x="1073" y="450" />
            </Array>
            <mxPoint x="1073" y="430" as="targetPoint" />
            <mxPoint x="721" y="1095" as="sourcePoint" />
          </mxGeometry>
        </mxCell>
        <mxCell id="kUMYeLrfrgq7O8A4BPYU-64" value="" style="shape=image;verticalLabelPosition=bottom;labelBackgroundColor=default;verticalAlign=top;aspect=fixed;imageAspect=0;image=data:image/png,iVBORw0KGgoAAAANSUhEUgAAATkAAABfCAYAAACTO7ACAAAACXBIWXMAAA7EAAAOxAGVKw4bAAAT3UlEQVR4nO3deXgUZbbA4V9VV3dn6ySQhCwIhCgEAygii4BoQAkgLuCoOODIXJ2rgqOio6jjuF13Z/GKu+ioMKJo9Aq4ERRQZBEJirIGBsKeQCQxCSFJd1XdP6DbztrVnTAx7Xmfp56kq7+qOlXVOX2+2qLk5uaauq6z8JPFbNy0GSGECCeqaZoYhtHWcQghxAmhGoaBaZptHYcQQpwQmmmaviT3+acL2zgcIYRoXaphGNJdFUKELVW6qkKIcCYnHoQQYU1t6wCEEOJEkrOrQoiwpvqfXRVCiHCjAnJMTggRtqSSE0KENbmERAgR1rQTdQnJ/v1lrFu3i/37y9ix42Cd9zIyEklN7cAZZ3QlLS0eRVEAfD+FEKK1aK3dXd24cR8ffrgej0clPT2d3r0Hc845CTgcDgAqKiqorKyksLCQN95Yg6bpjB3bl6ysNFRVRVEUSXZCiFajAa2S5I4edZOb+w3bth1i6NCh9OzZs9F2LpcLl8tFamoqQ4YMoaCggNzclWRk7GLChP5ERzsl2QkhWo3aGl3Vo0fdzJq1jCNH7EyaNKnJBNeYnj17MmnSJKqrI3j11eWUl1fh8XiQ6/eEEK2hxWdXvQkuJqYTOTk5vm6pV1ZWw+Gkk+rOw+FwkJOTQ3x8Kq+/vkISnRCi1bS4u5qb+w0ORzzZ2dlNtpk+/WXf75mZGUyefH6j7bKzs8nLy+ODD77liivOPBagpvm6r0IIESwVQk9yGzbsZdu2Q80muGBlZ2eze3c5GzbspaamRio6IUSLtKiS++ij7xk6dGiDLmp9mZkZvt87d05stq3D4WDo0KEsXbqKHj2S6pyEkGpOCBEsLdQEt29fKR6Paukkw9SpdbunpaXNt+/Zsyf5+fns2fMj3bodS3RyxlUIEYqQk9y6dbtIT0+31Nb/mFy/fqdyySXDA06Tnp7Oxo1FpKTEomkaNptNjs0JIYIW0m1dpmly4ECp5STnr2NHl6V26enplJRUUVNTg9vtRtf1sDs2Z5Z9wt0XjOKCez7lp1ZYrdaeX7gw9r/LzWNzuOjRr3D/imP4tQr5mNyOHSUMHhwT0kLdFvZyQkICxcVHcLvddZKczWYLaZk+nu+YedWdLPzR7/pAx9n8+b37GREReHJ97wpyV2uce+lgUtr4kaO/pFiE+KUKqbvqncblslaVhcJ7MsPj8fgGh8OBaZqt0mVVXaeSc8kAkhTA1pXumpWpPGxa+BKvfzGAzPGtmVgUgl+jZmJRVVr4VRBWFEVp80dg/xJi+LWy9Kdd33+yy6jrep3LSFpt2dFZjJl8Nb39toBZ9gl/nvQMtRNvoc/291j0/X5qE/rxm+kzmHRaBDsXPMyTHxbhqV3IHWMXovW7iTlPXkTE1vm8+MJ7rNh+GDr2ZPikm5g6NoOI4/Nz/+5uzto+m7fX2JnwzLNMTq/3cXfvZMGD1/D+2hIieoxh2l3Xc3ayDTCp3LKAF1/MZcW2wxhx3Rk8/npuvDyTHxc2jGX2n+2AguLewQcPXMP7a4shuT+X3XoHv+0bWy+RmlRsWcDLL73Pym0HqXF2IvPiP/HIlL54Gl1mX2JL5nPH1c+yefDd5D4wkkj937xxw43MPXw+D827nYGVjazvX2/BteA55q3cTqkRTfIpg7jsj9MZl6FRuaXx7RbZwjjjFDd7P3+WJ15ewg53Ev3H9MGoN09LyzYr2fDes7y26Ht2HihDd6Uz8NIbueWy3sT81NxnJRaFQDG0v33R/N9HLIqV7XXFTWQV5LJoQzGkDmHy1DFUfTCL+d/upTahPxNvv5MrsqJRrO4jC1p0nVxtbW1I01lRUVEBHHugp//Qao5s4tM3ZzN79mz+9clGyn2bwM33bz7HV+rpjBjWHXXf18x5fj47dRMjMoGECAUlqiejJv+OyaMyiSxbzsz7X+CzokSGXTKe4Un7WfT0g7z+Q83x+Xn44fVHmXegC+dOuIj+SQ1rNs/6xayKGMTIMxIo3/gBf39+CYdNMH9azsz7nmfx7hgGXnwJwzsd5ItX7+eJj4vRG4klCgCT2nUfscQ8k9HnZKDuW83s5+azs96mM0u/ZOb9z5O3w8FpF0xgTP9kUlJScTSzTGufkrrr22PL67z0WQHqqeO4dMxAUmqqUVwaZsDtFnqcRvEnzHz6E7YeTWHg+YOIXr+CrR6/eVpcNkoksQ6I6D6Y0eMvpF/kbr589Sne3a4H+KyAGSCG9rgvAq2zpe311ousiTyTc05L5MjOZTw7437y9D6cMyANfe9qZr/2OSVmEPvIgpC7q926JfDjjz+Smpoa9PRWVFZWkpgY0aB6a61KzqjYzKf/2gyA1stJ9ujeeDvfavJYpt87lb7KVrQttzDvwD6KDCdDR+TQ+82P2VydSc5VV9NPgyNL32Z1KXTsfzJJEU5I70r8xh/I/2Y3ehcAE1Iu5r6nptLX2XgsateLmH7H7+mhnwX/dScL1uezuXYU/dYtZXWZQrfJd3DnlAzUQykUT3mWbxd/zU1/bRiLWbbDF/+t906jr7oVbevx+HXI8Csgq75dyupShW6T7+IvU072dW+PLH2+iWUup2ig3cKWrbu+R5Z/i1MxcZuRnDxqEr+f1gENOLJ0adPbrW8PXzyhxLnD8T2bqlW6XjmDe6/pgVLoYtfUN9hbZ56Blw02ks+6kBx1M/vLjmKkxKPsLWLfAQ8kNfdZgU4/rG02Bn/tZV94NbXOGTYL2yvlAm6++3qyqk7mwG//ztqYkUz7yx8ZyCoqvn2AJQcPcEiHKMv7KLCQuqsAKSmxFBYWnrAkV1hYSFyclR0ZGjXlN/zjtRvqdleP/7SldaGzDTCjiYlWoMRo4pvTpLK0DLdpcCh/Pv/K980dW1XVz/PrnE7XZq6XVhOSSFQBtRPJiSpmaQWVNQaVZT/hNlWSUhJRASU+mU4RYJSVUqY3PT9bWlc6a83Fb1JZVo7HtJGSluz3gTEDLLNTvSXp6I3E4b++0cNu4L5rTF6Y9w6P3fg+rw26ihl3XUGShe0WWpyHKf6pEt1USe6cfOy9pBSSVI4nGGv7DMCzYx4zbn2VTVX+Yx2YflVx458VkyPlzcXQHvdFoHW2uL1SOpNqAyUyhmgbqImppNgBI5qYSMAwMYPYR1aEVMkpisLpp5/EW299x5AhQ4Ke3orCwkIGDIhucAHwf+Q6OU1r/JvCG4tpHt/QCtHxcWiKxinXzuLpiSfVObhslu33Tdcco6SYEgM66MUcOGSgOF24IlRcHTrgUAwOFR3CIBa1rJjioyZq14500OrHYiF+P9GxMdgUnYNFBzGIOX7cQgm8TMCsrqbahMiaYorKDBqcNfFfX7Uj/Sbew4sX72PlPx/msflv8Mqic3moQ9PbrWVxJpASG4NNMTh4/D2ltIRS3x9a8/vMb69w4JuvKKiykXHZYzx+TV+Ozr+Na1/abmlbR7uai6F97ovm1znE7aWqjZx0s7qPrAn5EpK0tHhU1U1BQUFQj1YCiAhwqUZBQQEeTxUdOyb47nbwDq3m+DG5/ONnV8+ZmE23QNOoccTHKZgH1jDvpX+S3/FULh47imEJq1jy5r3cWzSMU6JrKN5eTPq19zMxyVoo+p4PeerJWrKqviavBGKGDiTLDpFnjmJ44lcsnv83nqjuj3PzZ/ygR3HaiCEk25SGsYyxuvIK0acNok/kata9+ygPlp9F59rdbHddyiMTm15mSuw+Ul0q6zfOZ9Y7HroUfsSqShOaPMlucmD+gzy8JoY+J3dE31OBjordrhF9ZtPb7coethbF2b2vSqZjNRvef5xHjgwgcutnFOjgLaYtL9sVjU0xKN2yhNxXPua7pQUYipXPoEJ0nzOajaH97QsL6xzy9mqouZgmpu3iy0/zqe41itG94wPOK6QIvNXVeedlsnLlyqBOQOzbV9Ls+7W1taxcuZK+feNRVRWbzVbnSSStVckdOyY3hzlz5jBn7hfsbOKgcB1KCiN/O56sDuWs/3gBX2wtw4gbys2P3MrFp6oUfPYe8z5YwhZPCp3jrG5ajVMn3cjwI6tYvO5H4vpM4E/TRhCvgOIazLSHpjM2vYq1C97ni6KODLv6Pu6+KA2lkVia6cE2XJVOY/nT3VcyOLmc/IW5LFh5kA5dErA1t0xnfybdeCFZrgN8MfctvjgyhIkjU5q9/CUqOQX77pUsnDePj7cqZOZMY2pOEqrF7RZKnGrqOG65OYeTnQf4+vO1uLOnMC715/kqlpat0CF7ClOGnISn4HM+ydcZedu1nOGw9vlTAsTQHvdFgDVu0fZqMLdmYjL2rWDe7Nm8ufTf1ub1zDPPmLqus/a7Dcz8x5OWJjJNE7fbTU1NDW+//Q267iInJ6fRtllZDceVl8Pexo7AAnl5eVRXFzFkSCccDgfR0dG4XC5iYmJwOp3Y7Xa5tUsIYVnI/T9vlTV2bBYVFcUsW7as0XabNjUcmkpwy5Yt4/Dh/fTvn4DNZsNut/sG772rQggRjJC7q94k53JFctllp1NSsoe8vLyQrp2rra0lLy+PoqJChg1LJCJCQ9M0HA6Hr3qTG/SFEKEI+WJgRVF81VZsbBQTJvTGMA4zd+5cCgoKLM+noKCAuXPnUl1d5Etwdrsdp9NJREREnSQnCU4IEayQr5PzVnOapuF0OomPj+GCCzLZsqWINWuWk5+fT3p6Ounp6cTExPjuc/X/l4SFhYV4PFWcfnocaWlRvqTpdDqJjIwkMjISp9Mpj0AXQoRMw6zh0Kbl+C5JDoJ/Nee9t7RXrxS6dYujuLiC7dt3sWrVNkpKqutMl5DgIDbWzplnxhAXF1fnLKo3wUVFRUkVJ4RoMe3wdwvIXbKLQdmjgp7Yv5qrPy4tzUZiYhRut7vJe0/9r3+z2+04HA4iIiJ8FZxUcUKIltLWrN5DrTMjcMsm1E903qSlaZrvgZcej6fBQy/9T15o2s/H4byD3W6XBCeEaDFt71ETLaMXtOB5pf6Jzv93h8PhS3L1/+uWfztvkvMO8rhzIURr0WpQiIiOpCVJDn5OWv4Vmt1ur/M8uKa6q96k5h3kn9YIIVqL5sDkaHXwz2hqjP+/DvQmOsMwfE/0bSzJ+beX5CaEaG1aih0K9myDtK6tNlP/ZGez2eo8E86/u+rf1n+cEEK0FvWM0xJQqqxfvBuM+lWd9ySDf/dUqjchxImkdR42gYtsSznc1pEIIcQJoGKLJX3wuLaOQwghTgh5rIcQIqypcixMCBHOpJITQoQ1SXJCiLAmSU4IEdZCfp6c+HX52yvvtnUIzbr9D5e3dQjiF0oqOSFEWNNAbqcS1t3831e3dQh1zJw1u61DEL9w0l0VQdFs8oUo2hdJciIomk2OcIj2RbqrIihSyYn2Rio5ERS7VHKinZEkJ4IilZxob1R5lpsQIpxJ30MExaOb1gZ3KevfeYwbrxhD9tCzOHvEhVx169N8vK0Kt7dN9Tc8PnYwZ13yFOtqTDx6DQWzr2Pk4GFM/PtayjyBlyNEIHLiQQTFrRuBG+Fm2xu3cvOsTZhpgzj/8kyiDn/Hks/f5H82FFL9ypOMTVVBNzg2NxOPbvDTDy/xwMvr0bOu457rzsBpGC3890pCgCYJTgTDUvV05Cvmvr2Zmphh3D7zCUYnqYCb0V2ncsOslczJ3ciIaX3QdI4lOdPEU7KcmQ/NZUfEYG655yq6ayYe/QSvjPhVkO6qCIpHNwIO1dvXs7nSxN53BIM7eKexkTZsON1tBsUbvueA+1hbwwSMQyz538dZVJRI9m13MzpFsbQcj6WqUvzaSSUngmKlkvOUV3AEBWdsLJph4jk+3oyJx6WAWVlOucckyTQxAfPQUj48aGAoqUREOPDoJvKpFK1FBTkmJ6xz60bAwRPlIgqT6rIyKjw/j68tLaXcBCUqBqdp4NbNY91VezrZk8aRbisi74U5bKoKvAzvIEQg0l0VQbFyZtXs0oceMQruDUtZdUg/Pt7N7q+WU6irJPbqTbxxrK0BKB0GMHLiH5kyJg1z13u88n87qLF4FleIQKS7KoLiMSxUTxGDGDehF2tnr+KVO2ewZUhPIkq/Z9WXm/HEDWH8uExMw8BjmMeOyZkmuhFBryuv46wVD7Lynef47OzHOS9ZvoNFy0l3VQRFN0wLg0aXSx/lrusvpIdtOyvmv8Wi1UW4+l/OtIfvYXiS4mt7rBYzMQwTw3U2V0waQFRVPu++vozDeuBlCRGIVHIiKLrlLqKL7qOnM2P09KbnofTj6lcXc+wJdSa6Dh3Oe4wXzjve0DCRq0hES0mSE0HxSPUk2hlN7l0VwdCtHJMT4hdEbusSQZHjYKK9kSQngiKXbYj2RpKcCIp0V0V7I8fkRFCkuyraG81ms2HIt7OwaNFH89s6BCGCIhcDCyHCmnRXhSW3/+Hytg5BiJCoiqKgqnKPoBAiPKlSxQkhwpkKSCUnhAhb0l0VQoQ16a4KIcKaarPZ5OyqECJsyXVyQoiwpsnxOCFEOJNjckKIsCaVnBAirEklJ4QIa5rNZsM05fE5QojwpMHPdzzcfNuMNg1GCCFam+a942H8hWPQdR3DMPB4PBiG4Rt0Xfe9ZxgGpmk2GOcdX/+1ruuYplln8L7n/xqoM66x195xgX73fx2oSv2lVrEffLwz5GljTunKmEwPX+ftZ4+73puKk94j0ulRvo+P1lbi7N6FUac7Kd12kM1FboiIpHvPDiRHaxzdvpPFW2oxgRiL7UI1/oLuLZhaBCvQYSrv+/Xb+b9u7nf/pxvVf62qap1x9V8rioL3+l1VVX1D/dc2m61BO+84/3b/Dz0/emc3a1tXAAAAAElFTkSuQmCC;" parent="1" vertex="1">
          <mxGeometry x="1029.69" y="980" width="230.63" height="70" as="geometry" />
        </mxCell>
        <mxCell id="a5B9X3Do3ak_Rsppw4Uo-8" value="Pressing back button" style="rounded=0;whiteSpace=wrap;html=1;fillColor=#60a917;fontColor=#ffffff;strokeColor=#2D7600;" vertex="1" parent="1">
          <mxGeometry x="900" y="1160" width="120" height="40" as="geometry" />
        </mxCell>
        <mxCell id="kUMYeLrfrgq7O8A4BPYU-65" value="" style="shape=image;verticalLabelPosition=bottom;labelBackgroundColor=default;verticalAlign=top;aspect=fixed;imageAspect=0;image=data:image/png,iVBORw0KGgoAAAANSUhEUgAAAWIAAABcCAYAAABUW78TAAAACXBIWXMAAA7EAAAOxAGVKw4bAAAWqklEQVR4nO3deXwV1f3/8dfcPbk3C0kgCwIXlC3smxCQGhACYZcqUVFs1aJCUetC9WvF+lWrtrb+XFoXUHCpGMFWRKWsiSYkyKIGAmKgGPaEJQlkz5078/sjJCRkuyHCwDef5+MxD/Fm5s6ZM3Pe98y5M3OVAVeP0BFCCGEYk9EFEEKI1k7Jy8uTHrEQQhhIesRCCGEwCWIhhDCYBLEQQhhMglgIIQwmQSyEEAaTIBZCCINJEAshhMEkiIUQwmASxEIIYTDLz/VGR44U8O23+zlypIB9+47V+luXLmFERrZhwICOREUFoygKQPV/hRCiNWvxLc47dx7m888zUFUTbrcbt9tNaGgoNpsNgMLCQoqKisjOziY7OxuLxUt8fB+io6MwmUwoiiKBLIRo1c47iEtLPSxfvoU9e44zfPhwunXr5tNyWVlZpKWl0aVLCNdfPxCn0y6BLIRo1c4riEtLPSxcmIzNFkxsbGx179dXFRUVJCcnU1Jykl/9ajgulwOz2VwdyEII0Zo0O4irQtjlakdsbGydv0dH113m9Gk4dKju68nJyRQUHGHWrBgCAvywWCwSxkKIVqfZQfz++2kUF1uJi4ur9+/R0fDAA29V/3/37l2YOXNMvUEMsGbNGiyWImbMGITdbpcwFkK0Os26fC0z8xB79hyvtyd8vmJjYzlw4DSZmYcoLy9HVVU0TUPX5THJQojWoVmXr33xxXaGDx/e5Jhw9+5dqv/dvn1Yo/PabDaGDx9OUlI6Xbu2rfXFnfSKhRCtgc9BfPhwPqpq8unqiHvvHVPr//PzG5+/W7dubNu2jYMHT9KpU2UYy5UUQojWwucg/vbb/bjdbp/mrTlG3L9/T6ZOHdnkMm63m507c4iICMRischVFEKIVsOnMWJd1zl6NN/nIK4pJCTAp/ncbjcnTpRQXl6Ox+PB6/XKWHE99IJVPDZhLBMe/w+nLnDVaEeWcV98HJP/lIrnwq4KAL0giWcSJpHwzAbyZbeLS8yFbA8+f1m3b98JXC7Xea3E40OpQ0NDyc0txuPx1Arin4Vewr41/+Dx2QlMmTCR62++iwef/5jtpy/d1q4dTGRefBxj4ybxyGfHuXRL+vNRXNHEz5zFzPheBDRxIuQ9tJHE5d+Q08xDxHvwXzx8/XT+54tcdMrZv/41Hvn1L5kUP5kbbr2Hx15eQ7Z6/tvQIur3vHLTOMaOHUfC86lUH57qZl785TgmPv0V5UaUy7OD12eNZ8ofVld+QF5u7emil1cnP/lZEibP4d2sCp+W8LlHDBAQ4Fvv9nxUfQGoqmr1pOv6z9Aj9nLws6d4+K+fklHemVHTphAb7eJ49mls/pfqsIfG4Y0p7NVcBLk87EpJ57gBx7iiKBf3qVCWcAZNmcGUQeFNjJmp7Fr5JkuaG8T6KVKWfMjO4HHMjAtHz17OCy9+xk61G+OmT2R4Vzu5+Souc8s2o+U08r96l2U/+taIL7SKncmk5toZOGoYwcrl1p5+vvL63h4U2oycyZQOP/HJO2s45kPb9WmM+GIOD3i93lqXsLV43aVbSfzwe4pdMTz01z8SF1ZZ+ZpXw2QG0Cna/RlvvLGcjXvy0II6M3Ta3cy9sQ+BJ1bwyKzX+GHoYyz/42j8vP/l3Xvm8mHeGJ5OfJghRav4n1texXPbYwzb+x4fbbZy/V/uJ+Czv5OYtpd8zUn4VVdzw28fYGIXC0W7V/DG65+wcW8ehHRj5C3zuDe+C37nllk7RGrKf9HbT+GGviksXvs16ccnM7Vd3QNHL6inDK++ytSylfWvSy8i85PXWLx6Oz8dLcAb4GbI9Lncf0MvAhQPh9a/xgtvbWCfpy0Dx/emOue0AyyddzeL9/XgnsV/Y3qEgifjNX41fyVlsU/w3mPX4Dxbqga2tT37F9/Hg0sP0fn2V3l5Znv2LPotD358lK53vMZfx//Aglv+RsaAh1j6zHgCS/ew8rVXz6nLOfTMfIE/f56DWrGSR+JXYuk/j/ee6kl6nXkfYGIX69lS5aex5ptirrhxDD2s4DmwjwNeM+74e5h7S6fajayRenKdqqzzihnziM5azurMXIiMYea94yn5dCErvjtERehAEh7+PTOinSgN1kc9+x5wdulK8IG9fPbOf5j4whQi6uz0i1m2crYnbeSEczCzhwailG6+vNpTC9p/UGPtodHjvAt+5k6Mvq47HyxaQ/KRCcxo33iEN6vDU1Fx4T6hCwsLAdA0rdbUUmp2BjsKdBz9r+OasLNBZjJXbrp+KoVXFvyDtQdcDJkylZHtjvHV20/ywpe5Pg4HqOxY8icSj3bg2usn03X3Et5cl4Wp50Smjx9CRHkZSoAFvSCFV558nXU5YYyYOo2RbY+w+uWnWLKj7smmdmgjKfs0QgbGMHFYfwLUH0hJO9ZIeWqXYYAtteF1KX4E2sDReSjjpk2iv98Bvn77JZbt9aLnruKVl1fxY2kEQ8ZcjTNjIz9WnaabOjBqTE+s3izSvzmOjsqeTVs4QSDDRg2sEcI0sq3QI2EOk9p72fvJ2/zn25UsXLEfpcsNzJ3uPqdXoFPw1Tv11KUZzS+UUIeC4t+NsTNvY+bYbniS65u39jtW7M5gtyeIPv06YQas7m50tnr5b+LTPLs0nYMlNWq4kXqq5GH70jfY7DeIX/QNo/inZF6b/yRrvL35xeAovIc28d7i9ZzQG6uP+gcadPcUbr+2DWUZS/ngm6K6+/1ilq30O5LS8wkYMorBLuWya08tKa/WWHugqbpTaNe3H1fo+8jILGxyq30emujUKZSTJ0/6Mvt5KSoqIizMUacX3OIeceFpilBwhQRT39XPJd8msalAodPUR/j93bN56PFb6Wsu4ru1KeT4tGodIqaw4KUFzLsjnl6hAdgVHY/ux5Vjf8PTf3+CCW0VSr5LYlM+hHS+krYOO6HujgTruWzbcgBvrffTOJiawk9aIAOH9MTVZyj9/T3s+jqtkVOc2mXo9GNyI+syEz5sEnF9owh0uIiICEbRcjh8VKV4x1Z2lZnoOG0+T8y5h/mPTKdLdZYphP9iDP3sHn5I30Ke+hObNudCcAyx/f1r12lj2+rfl9vuGUtY8RZeX7CYTPUKpsxNoHudnaNgc9VXlw6uGhVHrwBQ/LoTd+ssbo3rQVBA/fVes45OHj5KqSmKDpGVYw+mjtN59OEJXGk+SMo7TzL7zkf5YPupM4HRcD1VMUVM4L7H5jB3/s30tyqY2oxmzh9+y5z5v2a4S0E9dpTj3ibqo569qZbbGHLbTfS2n2T9kk/YW6FgqnUydPHKVrwtiU2nghg6alDlh+3l1p5aUN592xtrD03Xnbl9R6LMKkcP5jS51T5fvhYREUh2djaRkZG+LtIs2dnZBAVZm56xufyd+KNTeLoQL+dusE5RwSk8uom2EWGYACU4nHYO0AryKfC2O+fNvHjraTnm9m46ntnLzhH3sOAOndcTP+a5uf9i8dW3Mv/RGbTNL8CjaxzftoIPtlUtacJcUlK7p6AdIDXlJ1SCOJz0Bq+kF3PMqqDuTiHt2DSm2evfzLNl0ClqZF2efYn8/ndvs6tm7w8buqZTfLoIr24ivH14ZV20jaCtCaruTldCrmHM4IVs25rGpu0n2XxEJ3R8LH0d59Rpo9uqEDBoArFRa/n4UAWWHuOY1Ku+E/SG6jKB3o5mzOuqSjCNspJSdKUtftXLW2k/6gFeHTiRDUtfZ9Gn3/H+c4vpueQB+h1OZH699VSjziPaE2kGxc+F0wymsEgirIDmxOUHaDp6k/VRD80LURO4Y9JKHvrk3yxeG0l4jaah7rtIZdML2Zy0maI2Ixk14Mw+utza03mXN4/cU421Bx/2q9UPP4tOaWlp3Y08h09BrCgK/fpdwdKl3xMTE+PLIs2WnZ3N4MHOOjdxtPQ6YrO7B938IPX7FLacGs41QTXfTyGgTRtsisbxnONoBGIqyCW3VMfUMYQ2FgUF0MvKKNPBrzyXnAINzi1SzTKaQuif8DhvTDlM2jvP8NyKd1m0+lqebhOERbFw1Z0LeTnhigZPRbQDqaRmq6CdJHP952RWr2M3KRtzmTq6gQWry6DgDG5oXRoHExeRVWKmyw3P8fwdfShd8SB3vrkXAGeAC7OicexMXSj5J8ivOTqkBDJs7FAC0tJZt7SA/Vo7Jo3qQ+3PhsbWD6CTu/YDVh2BoOBACrNW8GH6eB4ZEVR3mxqoy5emnTlGdP1so2to3l9GntldCjaHHUUvpbQMCAK1uAivvwt7UFfG3v2/cDiBv2w9wIECL+22pDZYT9UsFmp9r2cy1Tk0mq6PBih2ohNuZ+TaP/H1h8voWB1YGkcvUtn0U+tI2lpC6JjR9D2zky+39nT+5Q0lIrCx9uDDfvWUUqoq2B319BzO4XOPOCoqGJPJQ1ZWls/PHq7SVDmysrJQ1RJCQkKr76qrmlpKccUwfWIn0pcl8ZcHS/g2phP24hx+yunIrKdvo+egsYwMS2Xtihd5oWwg9h/WscPrT99RMUQEHiYywETGzhUs/FilQ/YXpBfp0ODFIzpHVzzFM5td9L4yBO/BQryYsFotOAeNZURoOhv++QRP5IzgKmc5uXtzcd/5JDd1rWoyGvtTU8n22ug/bwl/ntIWBdAOLmXe7MXsTkkjZ1T9vceaGl7XAuICnJgVjfzdG1i+6Eu+T8pCU0yAgrP3ALrbNpH5r+d5tngwfj+uI8tLrVM6/0FjGRmaxJfb90LEdGKj657FNLatCaFf89birRSHxvHUc/1Z/dCfWf/mEkb3u49BPtYlpiCCgxT0o5tJfPMdtoX0IMZvDf/YUs+81UyERUVg03ZyOMcL4WaOrVrA/V+a6dfnKiIdOWza7sEU3oNuoSacDdZT8/m27+tSgkYyKyGa9Lcyydar9oNykcq2gLi9SXxX3o742F7Vx8Dl1Z5aVt7OfUyNtoemyuDNOUyO10RE+/Am94NvH85neqnXXdedtLS0Zn1pd/jwiUb/XlFRQVpaGn36BGMymTCbzbWewNbyO+sc9Pr1szw16xo6lG1n1bJlrPw6i7LQcAJNoAQMZc7TDxDvLmHrZ//iq5wQRsxawGOTo1DsA7ll7iSiA47y1YdL+ao4hoTREfX0LM7yD4/AeiCNlYmJfPmjQve4Odwb1xZT0HDue/Z3TOlpImvdJyR+uoHdagTtg2rsAm0/G1P34zV3I+bqsOr1mNoPI6aTGfXHr0n34VoYpcF1mWkTezu3x1yBmrWeVdu8jH7wTgbYzvQZIydy/31xXGk/yjfrt+KJvZ2JkeccIvZ+jLk2AjSF9iOvpXs9H+UNrj+wiG/eWUTqKSdDZs1iaKdR3HlzL2w5/+EfH2Ry7glcQ3WpKBGMvnka0W1Ok/HlZ3z14ylsEQ3MW7PoPfrS3ZrPjozKMbyAKwfS05HD9xs+ZfkXO/B2n8yDT86il0VptJ6aq+H90VTzM9Fh0h1MiDLX2I6LVLbAfDYmZeCJGElsz5oftpdRe2pheU1NtIfG96tO3o7tHFTc9Otdz9neufvBl8dg6rqOx+OhvLycjz7agtcb0OhjMM/V0POIofIxmGVlOcTEtMNms+F0OgkICMDlcmG327FarXKb8yWlhC0v3cUfVju5+dU3+FUjPbpLjp7P+qfu5MUDE3jpzbvocQG+khACAO0QHz9wN+/bfsPCv0wjookI8/l8pqq3Gh8fTWFhLsnJyfXOt2tX3amhEE5OTiYv7wgDB4ZiNpuxWq3VU9WzJsSlQuNIeiJv/+0P/G3NSRx9JjPuqssohAGUNlz761vomfcl769r7HJAIVpC51T6B/z7pw5Mvyu+yRCGZjwYXtM0PB4PZWVl5OWdZtmyDAIDw1v0U0l5eUcYMSIMPz8rNpsNf39/XC4XTqcTh8OB1WqVML5kqGT8/XYeXVXOFQMnM3vebQxpK/tGiJ+Dz0Gs6zper5eKigpKS0vJyzvN2rVZ5OSUndePh4aEmBgwIASHw4LNZsPhcOB0OnE6nfj5+WGz2TCbzTIsIYT4P69ZP5WkaRqqqlaHcXFxMbt357B58xHMZn/cbjdutxuXy1X9XIrCwkKKiorIzs4mOzsbVS2hd+8goqL8q4cj7HY7/v7+tUK46gs7IYT4v65ZQazrenUYl5eXU1ZWRklJCaWlpeTmFrJ3bz4FBRWcOFFWa7nQUBuBgVY6dXIRFGStdXWE3W7Hz88Pf39/HA6H/G6dEKLVadZPJSmKgslkwmKx1HktKspMWJg/Ho+nwWdF1Lw+2Gq1Vg9J+Pn5YbfbJYSFEK1Ss4IY6oZxVbBaLJbqh7qrqlrnwe5Vy1X1hKuGJKomq9UqISyEaJWaHcRQO4xr/ttms1UH8bm/xlxzvqogrprkp5GEEK3ZeQUxnA3Wmj1dq9Va63nCDQ1NVAVv1SQ/FCqEaM3OO4jh7K3PNcNY0zRsNlv1F3s11Qxc+aVmIYSo1KIgrlIzkM1mc61nCtccmqg5b83XhBCiNftZgriKBKwQQjSf3DEhhBAGkyAWQgiDSRALIYTBJIiFEMJgEsRCCGEwCWIhhDCYBLEQQhjsZ72OWAhfvLhomdFFaNTDd91odBFEKyM9YiGEMJj0iIVh7vvNLKOLUMsrC98zugiilZIgFoaxmOVWeCFAglgYyGKWkTEhQIJYGEh6xEJUkiAWhrFKj1gIQIJYGEh6xEJUki6JEEIYTIJYGEb16r5NnnwyPn6OuTPGEzt8GNeMmsStv3uZL/eU4Kmap2wLz8cPZdjUl/i2XEf1lpP13mxGDx1Bwl+3UqA2vR4hjCJDE8IwHq/W9Ex42PPu77hv4S70qKsZc2N3/PO+Z8P6f/K/mdmULfoz8ZEm8GpUvpuO6tU4teNN/vhWBt7o2Tw+ewB2TcNzYTdHiPMmQSwM41MvtDiVDz/6gXLXCB5+5QXGtTUBHsZ1vJd7Fqbx/vKdjJrTG4uXyiDWddQTKbzy9Ifscwzl/sdvpbNFR/Ve4I0RogVkaEIYRvVqTU5lezP4oUjH2mcUQ9tULWMmasRIOps1cjO3c9RTOa+mA9pxNvy/51mdE0bsg48xLkLxaT2qT71zIS4M6RELw/jSI1ZPF1KMgj0wEIumo555XXcFE6CAXnSa06pOW11HB/TjSXx+TENTInE4bKheHbk2Q1zqpEcsDOPxak1Oqn8A/uiUFRRQqJ59vSI/n9M6KP4u7LqGx6tXDk1Y3cTeMhG3OYc1r7/PrpKm11E1CWEUCWJhGF+umNA79KarS8GTmUT6ce+Z1z0cSE0h22sirEcvgrXKeTVAaTOY0Qm/5fbxUej7P2HRv/dR7uPVGUIYRYYmhGFUzYdeqONqJl7fg63vpbPo9/PZHdMNR/520r/+ATUohmkTu6NrGqqmV44R6zpezUGPm2YzbONTpH38d9Zd8zzXhUufQ1y65OgUhvFqug+ThQ7T/8Sjd0+iq3kvG1csZfWmHAIG3sicZx5nZFulet7KPq2OpuloAdcw45bB+JdsY9mSZPK8Ta9LCKMoeXl5cgSKi6rqFzpm3pRgcElq++dHiYD8Qoe4+GRoQhhGlV6oEIAEsTCQ15cxYiFaAQliYRgZlxWikgSxMIxcMiZEJQliYRgZmhCikgSxMIwMTQhRSYJYGGb1FyuMLoIQlwS5oUMIIQwmN3QIIYTBpEcshBAGkyAWQgiDSRALIYTBJIiFEMJgEsRCCGEwCWIhhDCYBLEQQhhMglgIIQwmQSyEEAaTIBZCCINJEAshhMEkiIUQwmD/H6EosbNn+AM6AAAAAElFTkSuQmCC;" parent="1" vertex="1">
          <mxGeometry x="1200" y="895" width="230.87" height="60" as="geometry" />
        </mxCell>
      </root>
    </mxGraphModel>
  </diagram>
</mxfile>
